SplineFontDB: 3.2
FontName: CubicSans-Regular
FullName: Cubic Sans Arabic Regular
FamilyName: Cubic Sans Arabic Regular
Weight: Regular
Copyright: Copyright 2015 Google Inc. All Rights Reserved.
Version: 2.000;GOOG;noto-source:20170915:90ef993387c0; ttfautohint (v1.7)
ItalicAngle: 0
UnderlinePosition: -16
UnderlineWidth: 6
Ascent: 80
Descent: 48
InvalidEm: 0
sfntRevision: 0x00020000
LayerCount: 2
Layer: 0 1 "Back" 1
Layer: 1 1 "Fore" 0
XUID: [1021 637 -1511240969 2662]
StyleMap: 0x0040
FSType: 0
OS2Version: 4
OS2_WeightWidthSlopeOnly: 1
OS2_UseTypoMetrics: 0
CreationTime: 1467853589
ModificationTime: 1616762204
PfmFamily: 17
TTFWeight: 400
TTFWidth: 5
LineGap: 0
VLineGap: 0
Panose: 2 11 5 2 4 5 4 2 2 4
OS2TypoAscent: 176
OS2TypoAOffset: 0
OS2TypoDescent: -94
OS2TypoDOffset: 0
OS2TypoLinegap: 0
OS2WinAscent: 176
OS2WinAOffset: 0
OS2WinDescent: 94
OS2WinDOffset: 0
HheadAscent: 176
HheadAOffset: 0
HheadDescent: -94
HheadDOffset: 0
OS2SubXSize: 83
OS2SubYSize: 77
OS2SubXOff: 0
OS2SubYOff: 10
OS2SupXSize: 83
OS2SupYSize: 77
OS2SupXOff: 0
OS2SupYOff: 45
OS2StrikeYSize: 6
OS2StrikeYPos: 41
OS2CapHeight: 53
OS2XHeight: 68
OS2Vendor: 'GOOG'
OS2CodePages: 00000000.00000000
OS2UnicodeRanges: 80002043.80002000.00000008.00000000
Lookup: 1 0 0 "'aalt' Access All Alternates in Arabic lookup 0" { "'aalt' Access All Alternates in Arabic lookup 0 subtable"  } ['aalt' ('DFLT' <'dflt' > 'arab' <'URD ' 'dflt' > ) ]
Lookup: 3 0 0 "'aalt' Access All Alternates in Arabic lookup 1" { "'aalt' Access All Alternates in Arabic lookup 1 subtable"  } ['aalt' ('DFLT' <'dflt' > 'arab' <'URD ' 'dflt' > ) ]
Lookup: 4 0 0 "'ccmp' Glyph Composition/Decomposition in Arabic lookup 2" { "'ccmp' Glyph Composition/Decomposition in Arabic lookup 2 subtable"  } ['ccmp' ('arab' <'dflt' > ) ]
Lookup: 1 0 0 "'locl' Localized Forms in Arabic lookup 3" { "'locl' Localized Forms in Arabic lookup 3 subtable"  } ['locl' ('arab' <'URD ' > ) ]

StartChar: .notdef
Encoding: 65536 -1 0
Width: 65
VWidth: 108
Flags: W
LayerCount: 2
Fore
SplineSet
10 0 m 1,0,-1
 10 78 l 1,1,-1
 55 78 l 1,2,-1
 55 0 l 1,3,-1
 10 0 l 1,0,-1
16 6 m 1,4,-1
 50 6 l 1,5,-1
 50 72 l 1,6,-1
 16 72 l 1,7,-1
 16 6 l 1,4,-1
EndSplineSet
EndChar

StartChar: uni0621
Encoding: 1569 1569 4
Width: 50
VWidth: 108
GlyphClass: 2
Flags: W
AnchorPoint: "Anchor-1" 25 50 basechar 0
LayerCount: 2
Fore
SplineSet
48 10 m 5,0,-1
 48 10 l 5,1,-1
 48 0 l 5,2,-1
 2 0 l 5,3,4
 2 10 l 5,5,-1
 48 10 l 5,0,-1
12 10 m 21,6,7
 9 12 9 12 9 20 c 260,8,9
 9 40 9 40 30 40 c 260,10,11
 41 40 41 40 48 29 c 5,12,-1
 40 23 l 5,13,14
 36 30 36 30 30 30 c 4,15,16
 19 30 19 30 19 20 c 132,-1,17
 19 10 19 10 30 10 c 13,18,-1
 12 10 l 21,6,7
EndSplineSet
EndChar

StartChar: uni0674
Encoding: 1652 1652 5
Width: 21
VWidth: 108
GlyphClass: 2
Flags: W
LayerCount: 2
Fore
SplineSet
28 77 m 5,0,-1
 28 77 l 5,1,-1
 28 70 l 5,2,-1
 0 70 l 5,3,4
 0 77 l 5,5,-1
 28 77 l 5,0,-1
7 77 m 21,6,7
 5 78 5 78 5 83 c 260,8,9
 5 95 5 95 17 95 c 260,10,11
 25 95 25 95 28 89 c 5,12,-1
 23 85 l 5,13,14
 21 89 21 89 17 89 c 4,15,16
 11 89 11 89 11 83 c 132,-1,17
 11 77 11 77 17 77 c 5,18,-1
 7 77 l 21,6,7
EndSplineSet
EndChar

StartChar: uni0627
Encoding: 1575 1575 7
Width: 30
VWidth: 129
GlyphClass: 2
Flags: W
LayerCount: 2
Fore
SplineSet
10 80 m 1,0,-1
 20 80 l 1,1,-1
 20 0 l 1,2,-1
 10 0 l 1,3,-1
 10 80 l 1,0,-1
EndSplineSet
Substitution2: "'fina' Terminal Forms in Arabic lookup 6 subtable" uniFE8E
Substitution2: "'aalt' Access All Alternates in Arabic lookup 0 subtable" uniFE8E
Position2: "Single Positioning lookup 1 per glyph data 1" dx=0 dy=0 dh=-3 dv=0
EndChar

StartChar: uniFE8E
Encoding: 65166 65166 9
Width: 27
VWidth: 129
GlyphClass: 2
Flags: W
LayerCount: 2
Fore
SplineSet
28 0 m 1,0,1
 25 0 l 2,2,3
 5 0 5 0 5 19 c 2,4,-1
 5 84 l 1,5,-1
 15 84 l 1,6,-1
 15 19 l 2,7,8
 15 9 15 9 25 9 c 2,9,-1
 28 9 l 1,10,-1
 28 0 l 1,0,1
EndSplineSet
EndChar

StartChar: dotlessbeh-ar
Encoding: 1646 1646 30
Width: 100
VWidth: 129
GlyphClass: 2
Flags: W
LayerCount: 2
Fore
SplineSet
70 0 m 6,0,1
 30 0 l 6,2,3
 10 0 10 0 10 20 c 6,4,-1
 10 50 l 5,5,-1
 20 50 l 5,6,-1
 20 20 l 6,7,8
 20 10 20 10 30 10 c 6,9,-1
 70 10 l 6,10,11
 80 10 80 10 80 20 c 6,12,-1
 80 50 l 5,13,-1
 90 50 l 5,14,-1
 90 20 l 6,15,16
 90 0 90 0 70 0 c 6,0,1
EndSplineSet
Substitution2: "'fina' Terminal Forms in Arabic lookup 6 subtable" dotlessbeh-ar.fina
Substitution2: "'medi' Medial Forms in Arabic lookup 5 subtable" dotlessbeh-ar.medi
Substitution2: "'init' Initial Forms in Arabic lookup 4 subtable" dotlessbeh-ar.init
AlternateSubs2: "'aalt' Access All Alternates in Arabic lookup 1 subtable" dotlessbeh-ar.fina dotlessbeh-ar.medi dotlessbeh-ar.init
EndChar

StartChar: dotlessbeh-ar.init
Encoding: 65542 -1 33
Width: 40
VWidth: 129
GlyphClass: 2
Flags: W
LayerCount: 2
Fore
SplineSet
-1 10 m 17,0,1
 10 10 10 10 10 10.0068359375 c 1,2,3
 20 10 20 10 20 21 c 2,4,-1
 20 50 l 1,5,-1
 30 50 l 1,6,-1
 30 21 l 2,7,8
 30 0 30 0 10 0.005859375 c 1,9,10
 10 0 10 0 -1 0 c 9,11,-1
 -1 10 l 17,0,1
EndSplineSet
Position2: "Single Positioning lookup 1 per glyph data 0" dx=0 dy=0 dh=-3 dv=0
EndChar

StartChar: uni062D
Encoding: 1581 1581 154
Width: 80
VWidth: 129
GlyphClass: 2
Flags: W
LayerCount: 2
Fore
SplineSet
35 10 m 2,0,1
 51 10 l 1,2,-1
 51 24 l 0,3,4
 51 40 51 40 35 40 c 0,5,6
 25 40 25 40 20 40 c 0,7,-1
 20 50 l 1,8,9
 28 50 28 50 35 50 c 0,10,11
 61 50 61 50 61 24 c 0,12,13
 61 10 61 10 69 10 c 6,14,-1
 70 10 l 5,15,-1
 70 0 l 1,16,-1
 35 0 l 2,17,18
 20 0 20 0 20 -14 c 256,19,20
 20 -20 20 -20 25 -25 c 1,21,-1
 17 -32 l 1,22,23
 10 -25 10 -25 10 -14 c 256,24,25
 10 10 10 10 35 10 c 2,0,1
EndSplineSet
Substitution2: "'fina' Terminal Forms in Arabic lookup 6 subtable" uniFEA2
Substitution2: "'medi' Medial Forms in Arabic lookup 5 subtable" uniFEA4
Substitution2: "'init' Initial Forms in Arabic lookup 4 subtable" uniFEA3
AlternateSubs2: "'aalt' Access All Alternates in Arabic lookup 1 subtable" uniFEA2 uniFEA4 uniFEA3
EndChar

StartChar: uniFEA2
Encoding: 65186 65186 156
Width: 75
VWidth: 129
GlyphClass: 2
Flags: W
LayerCount: 2
Fore
SplineSet
76 10 m 5
 76 0 l 5
 69 0 l 1
 69 10 l 1
 76 10 l 5
EndSplineSet
Refer: 154 1581 N 1 0 0 1 0 0 2
EndChar

StartChar: uniFEA3
Encoding: 65187 65187 158
Width: 70
VWidth: 129
GlyphClass: 2
Flags: W
LayerCount: 2
Fore
SplineSet
-1 0 m 9,0,-1
 60 0 l 1,1,-1
 60 10 l 1,2,-1
 59 10 l 2,3,4
 50 10 50 10 50 24 c 4,5,6
 50 50 50 50 25 50 c 4,7,8
 10 50 l 1,9,-1
 10 40 l 4,10,11
 25 40 l 0,12,13
 40 40 40 40 40 24 c 4,14,-1
 40 10 l 1,15,-1
 -1 10 l 0,16,17
 -1 0 l 9,0,-1
EndSplineSet
Position2: "Single Positioning lookup 1 per glyph data 2" dx=0 dy=0 dh=-4 dv=0
EndChar

StartChar: uni062F
Encoding: 1583 1583 200
Width: 45
VWidth: 129
GlyphClass: 2
Flags: W
LayerCount: 2
Fore
SplineSet
4 10 m 1,0,-1
 21 10 l 2,1,2
 30 10 30 10 30 18 c 0,3,4
 30 40 30 40 21 40 c 2,5,-1
 10 40 l 1,6,-1
 10 50 l 1,7,-1
 21 50 l 2,8,9
 40 50 40 50 40 18 c 256,10,11
 40 0 40 0 21 0 c 2,12,-1
 4 0 l 1,13,-1
 4 10 l 1,0,-1
EndSplineSet
Substitution2: "'fina' Terminal Forms in Arabic lookup 6 subtable" uniFEAA
Substitution2: "'aalt' Access All Alternates in Arabic lookup 0 subtable" uniFEAA
Position2: "Single Positioning lookup 1 per glyph data 0" dx=0 dy=0 dh=-3 dv=0
EndChar

StartChar: uni0631
Encoding: 1585 1585 236
Width: 35
VWidth: 129
GlyphClass: 2
Flags: W
LayerCount: 2
Fore
SplineSet
8 -10 m 6,0,1
 18 -10 18 -10 18 0 c 6,2,-1
 18 50 l 5,3,-1
 28 50 l 5,4,5
 28 23 28 23 28 0 c 4,6,7
 28 -20 28 -20 8 -20 c 6,8,-1
 2 -20 l 5,9,-1
 2 -10 l 5,10,-1
 8 -10 l 6,0,1
EndSplineSet
Substitution2: "'fina' Terminal Forms in Arabic lookup 6 subtable" uniFEAE
Substitution2: "'aalt' Access All Alternates in Arabic lookup 0 subtable" uniFEAE
EndChar

StartChar: uni08B4
Encoding: 2228 2228 247
Width: 100
VWidth: 108
GlyphClass: 2
Flags: W
LayerCount: 2
Fore
SplineSet
74 10 m 1024
53 56 m 1025
42 -14 m 1024
EndSplineSet
Refer: 989 64435 S 1 0 0 1 34 0 2
Refer: 418 1603 N 1 0 0 1 0 0 2
Substitution2: "'fina' Terminal Forms in Arabic lookup 6 subtable" uni08B4.fina
Substitution2: "'medi' Medial Forms in Arabic lookup 5 subtable" uni08B4.medi
Substitution2: "'init' Initial Forms in Arabic lookup 4 subtable" uni08B4.init
AlternateSubs2: "'aalt' Access All Alternates in Arabic lookup 1 subtable" uni08B4.fina uni08B4.medi uni08B4.init
EndChar

StartChar: uni08AA
Encoding: 2218 2218 282
Width: 53
VWidth: 108
GlyphClass: 2
Flags: W
AnchorPoint: "Anchor-1" 41 38 basechar 0
AnchorPoint: "Anchor-0" 19 -24 basechar 0
LayerCount: 2
Fore
SplineSet
50 -26 m 1,0,1
 46 -18 46 -18 40 -13 c 1,2,3
 36 -19 36 -19 30 -21.5 c 128,-1,4
 24 -24 24 -24 19 -24 c 0,5,6
 12 -24 12 -24 7.5 -20 c 128,-1,7
 3 -16 3 -16 3 -9 c 0,8,9
 3 -5 3 -5 5.5 -1.5 c 128,-1,10
 8 2 8 2 12 4 c 128,-1,11
 16 6 16 6 20 6 c 128,-1,12
 24 6 24 6 28.5 4.5 c 0,13,14
 34 3 34 3 38 0 c 1,15,16
 38 4 38 4 38 10 c 0,17,18
 38 20 38 20 34 35 c 1,19,-1
 43 37 l 1,20,21
 45 29 45 29 46 22.5 c 128,-1,22
 47 16 47 16 47 11 c 128,-1,23
 47 6 47 6 46 2 c 128,-1,24
 45 -2 45 -2 44 -6 c 1,25,26
 47 -9 47 -9 50.5 -13 c 128,-1,27
 54 -17 54 -17 56 -22 c 1,28,-1
 50 -26 l 1,0,1
12 -9 m 256,29,30
 12 -12 12 -12 14 -13.5 c 128,-1,31
 16 -15 16 -15 20 -15 c 128,-1,32
 24 -15 24 -15 27.5 -13.5 c 128,-1,33
 31 -12 31 -12 34 -8 c 1,34,35
 30 -6 30 -6 27 -4 c 128,-1,36
 24 -2 24 -2 20 -2 c 128,-1,37
 16 -2 16 -2 14 -4 c 128,-1,38
 12 -6 12 -6 12 -9 c 256,29,30
EndSplineSet
Substitution2: "'fina' Terminal Forms in Arabic lookup 6 subtable" rehLoop-ar.fina
Substitution2: "'aalt' Access All Alternates in Arabic lookup 0 subtable" rehLoop-ar.fina
EndChar

StartChar: rehLoop-ar.fina
Encoding: 65634 -1 283
Width: 58
VWidth: 108
GlyphClass: 2
Flags: W
AnchorPoint: "Anchor-1" 39 38 basechar 0
AnchorPoint: "Anchor-0" 19 -24 basechar 0
LayerCount: 2
Fore
SplineSet
50 -26 m 1,0,1
 46 -19 46 -19 41 -14 c 1,2,3
 37 -19 37 -19 31 -21.5 c 128,-1,4
 25 -24 25 -24 19 -24 c 0,5,6
 12 -24 12 -24 7.5 -20 c 128,-1,7
 3 -16 3 -16 3 -9 c 0,8,9
 3 -5 3 -5 5.5 -1.5 c 128,-1,10
 8 2 8 2 12 4 c 128,-1,11
 16 6 16 6 20 6 c 128,-1,12
 24 6 24 6 29 4 c 128,-1,13
 34 2 34 2 39 -1 c 1,14,15
 40 3 40 3 40 8 c 0,16,17
 40 12 40 12 39 16.5 c 128,-1,18
 38 21 38 21 36.5 26 c 128,-1,19
 35 31 35 31 34 35 c 1,20,-1
 43 38 l 1,21,22
 44 34 44 34 45 29.5 c 128,-1,23
 46 25 46 25 47 21.5 c 0,24,25
 48 18 l 0,26,27
 49 14 49 14 51 12 c 128,-1,28
 53 10 53 10 55.5 9 c 128,-1,29
 58 8 58 8 60 8 c 128,-1,30
 62 8 62 8 63 7 c 128,-1,31
 64 6 64 6 64 4 c 256,32,33
 64 2 64 2 62.5 1 c 128,-1,34
 61 0 61 0 59 -0 c 0,35,36
 56 0 56 0 53 0.5 c 128,-1,37
 50 1 50 1 49 2 c 1,38,39
 48 -3 48 -3 46 -7 c 1,40,41
 49 -10 49 -10 51.5 -14 c 128,-1,42
 54 -18 54 -18 56 -22 c 1,43,-1
 50 -26 l 1,0,1
12 -9 m 256,44,45
 12 -12 12 -12 14 -13.5 c 128,-1,46
 16 -15 16 -15 20 -15 c 128,-1,47
 24 -15 24 -15 28 -13.5 c 128,-1,48
 32 -12 32 -12 35 -8 c 1,49,50
 31 -5 31 -5 27.5 -3.5 c 128,-1,51
 24 -2 24 -2 20 -2 c 128,-1,52
 16 -2 16 -2 14 -4 c 128,-1,53
 12 -6 12 -6 12 -9 c 256,44,45
EndSplineSet
EndChar

StartChar: uni0633
Encoding: 1587 1587 284
Width: 150
VWidth: 129
GlyphClass: 2
Flags: W
LayerCount: 2
Fore
SplineSet
70 20 m 2,0,-1
 70 50 l 1,1,-1
 80 50 l 1,2,-1
 80 20 l 2,3,4
 80 10 80 10 90.5 10 c 0,5,6
 100 10 100 10 100 20 c 2,7,-1
 100 50 l 1,8,-1
 110 50 l 1,9,-1
 110 20 l 2,10,11
 110 10 110 10 121 10 c 0,12,13
 130 10 130 10 130 20 c 2,14,-1
 130 50 l 1,15,-1
 140 50 l 1,16,-1
 140 20 l 2,17,18
 140 0 140 0 121 0 c 0,19,20
 111 0 111 0 105 8 c 1,21,22
 100 0 100 0 90 0 c 0,23,24
 70 0 70 0 70 20 c 2,0,-1
80 9 m 2,25,26
 80 -20 80 -20 45 -20 c 128,-1,27
 10 -20 10 -20 10 10 c 0,28,29
 10 29 10 29 10 50 c 5,30,-1
 20 50 l 5,31,32
 20 31 20 31 20 10 c 0,33,34
 20 -10 20 -10 45 -10 c 128,-1,35
 70 -10 70 -10 70 10 c 2,36,-1
 70 50 l 1,37,-1
 80 50 l 1,38,-1
 80 9 l 2,25,26
EndSplineSet
Substitution2: "'fina' Terminal Forms in Arabic lookup 6 subtable" uniFEB2
Substitution2: "'medi' Medial Forms in Arabic lookup 5 subtable" uniFEB4
Substitution2: "'init' Initial Forms in Arabic lookup 4 subtable" uniFEB3
AlternateSubs2: "'aalt' Access All Alternates in Arabic lookup 1 subtable" uniFEB2 uniFEB4 uniFEB3
EndChar

StartChar: uniFEB3
Encoding: 65203 65203 288
Width: 100
VWidth: 129
GlyphClass: 2
Flags: W
LayerCount: 2
Fore
SplineSet
-1 0 m 5,0,-1
 -1 10 l 1,1,2
 20 10 20 10 20 20 c 2,3,-1
 20 50 l 1,4,-1
 30 50 l 1,5,-1
 30 20 l 2,6,7
 30 10 30 10 40.5 10 c 0,8,9
 50 10 50 10 50 20 c 2,10,-1
 50 50 l 1,11,-1
 60 50 l 1,12,-1
 60 20 l 2,13,14
 60 10 60 10 71 10 c 0,15,16
 80 10 80 10 80 20 c 2,17,-1
 80 50 l 1,18,-1
 90 50 l 1,19,-1
 90 20 l 2,20,21
 90 0 90 0 71 0 c 0,22,23
 60 0 60 0 55 7 c 5,24,25
 51 0 51 0 41 0 c 4,26,27
 30 0 30 0 24.9912109375 7 c 5,28,29
 20 0 20 0 -1 0 c 5,0,-1
EndSplineSet
EndChar

StartChar: uni0635
Encoding: 1589 1589 307
Width: 146
VWidth: 129
GlyphClass: 2
Flags: W
LayerCount: 2
Fore
SplineSet
85 9 m 2,0,1
 85 -20 85 -20 47 -20 c 0,2,3
 10 -20 10 -20 10 10 c 0,4,5
 10 24 10 24 10 40 c 1,6,-1
 20 40 l 1,7,8
 20 26 20 26 20 10 c 0,9,10
 20 -10 20 -10 47 -10 c 0,11,12
 75 -10 75 -10 75 10 c 2,13,-1
 75 50 l 1,14,-1
 85 50 l 1,15,-1
 85 9 l 2,0,1
75 0 m 1,16,-1
 85 42 l 1,17,18
 91 50 91 50 104 50 c 2,19,-1
 116 50 l 2,20,21
 136 50 136 50 136 24 c 0,22,23
 136 0 136 0 116 0 c 2,24,-1
 75 0 l 1,16,-1
85 10 m 1,25,26
 116 10 l 2,27,28
 126 10 126 10 126 24 c 0,29,30
 126 40 126 40 116 40 c 2,31,-1
 104 40 l 2,32,33
 85 40 85 40 85 10 c 1,25,26
EndSplineSet
Substitution2: "'fina' Terminal Forms in Arabic lookup 6 subtable" uniFEBA
Substitution2: "'medi' Medial Forms in Arabic lookup 5 subtable" uniFEBC
Substitution2: "'init' Initial Forms in Arabic lookup 4 subtable" uniFEBB
AlternateSubs2: "'aalt' Access All Alternates in Arabic lookup 1 subtable" uniFEBA uniFEBC uniFEBB
EndChar

StartChar: uniFEBB
Encoding: 65211 65211 311
Width: 102
VWidth: 129
GlyphClass: 2
Flags: W
LayerCount: 2
Fore
SplineSet
10 50 m 1,0,-1
 20 50 l 1,1,-1
 20 8 l 1,2,-1
 10 8 l 1,3,-1
 10 50 l 1,0,-1
40 10 m 1,4,5
 69 10 l 2,6,7
 82 10 82 10 82 24.9814453125 c 128,-1,8
 82 40 82 40 69 40 c 2,9,-1
 57 40 l 2,10,11
 40 40 40 40 40 10 c 1,4,5
92 25 m 128,-1,13
 92 0 92 0 69 0 c 2,14,-1
 -1 0 l 1,15,-1
 -1 10 l 1,16,-1
 30 10 l 1,17,18
 30 50 30 50 57 50 c 2,19,-1
 69 50 l 2,20,12
 92 50 92 50 92 25 c 128,-1,13
EndSplineSet
EndChar

StartChar: uni0637
Encoding: 1591 1591 333
Width: 92
VWidth: 129
GlyphClass: 2
Flags: W
LayerCount: 2
Fore
SplineSet
20 80 m 5,0,-1
 30 80 l 5,1,-1
 30 8 l 5,2,-1
 20 8 l 5,3,-1
 20 80 l 5,0,-1
30 10 m 5,4,5
 59 10 l 6,6,7
 72 10 72 10 72 24.9812500477 c 132,-1,8
 72 40 72 40 59 40 c 6,9,-1
 47 40 l 6,10,11
 30 40 30 40 30 10 c 5,4,5
82 25 m 132,-1,13
 82 0 82 0 59 0 c 6,14,-1
 10 0 l 5,15,-1
 10 10 l 5,16,-1
 20 10 l 5,17,18
 20 50 20 50 47 50 c 6,19,-1
 59 50 l 6,20,12
 82 50 82 50 82 25 c 132,-1,13
EndSplineSet
Substitution2: "'fina' Terminal Forms in Arabic lookup 6 subtable" uniFEC2
Substitution2: "'medi' Medial Forms in Arabic lookup 5 subtable" uniFEC4
Substitution2: "'init' Initial Forms in Arabic lookup 4 subtable" uniFEC3
AlternateSubs2: "'aalt' Access All Alternates in Arabic lookup 1 subtable" uniFEC2 uniFEC4 uniFEC3
Position2: "Single Positioning lookup 1 per glyph data 0" dx=0 dy=0 dh=-3 dv=0
EndChar

StartChar: uni0639
Encoding: 1593 1593 351
Width: 80
VWidth: 129
GlyphClass: 2
Flags: W
LayerCount: 2
Fore
SplineSet
33 10 m 21,0,1
 30 12 30 12 30 26 c 260,2,3
 30 50 30 50 52 50 c 260,4,5
 63 50 63 50 70 39 c 5,6,-1
 62 33 l 5,7,8
 58 40 58 40 52 40 c 4,9,10
 40 40 40 40 40 26 c 4,11,12
 40 10 40 10 52 10 c 13,13,-1
 33 10 l 21,0,1
70 10 m 1,14,-1
 70 10 l 1,15,-1
 70 0 l 1,16,-1
 35 0 l 2,17,18
 20 0 20 0 20 -14 c 256,19,20
 20 -20 20 -20 25 -25 c 1,21,-1
 17 -32 l 1,22,23
 10 -25 10 -25 10 -14 c 256,24,25
 10 10 10 10 35 10 c 2,26,-1
 70 10 l 1,14,-1
EndSplineSet
Substitution2: "'fina' Terminal Forms in Arabic lookup 6 subtable" uniFECA
Substitution2: "'medi' Medial Forms in Arabic lookup 5 subtable" uniFECC
Substitution2: "'init' Initial Forms in Arabic lookup 4 subtable" uniFECB
AlternateSubs2: "'aalt' Access All Alternates in Arabic lookup 1 subtable" uniFECA uniFECC uniFECB
EndChar

StartChar: uniFECA
Encoding: 65226 65226 353
Width: 89
VWidth: 129
GlyphClass: 2
Flags: W
LayerCount: 2
Fore
SplineSet
90 10 m 1,0,-1
 90 10 l 1,1,-1
 90 0 l 1,2,-1
 35 0 l 2,3,4
 20 0 20 0 20 -14 c 256,5,6
 20 -20 20 -20 25 -25 c 1,7,-1
 17 -32 l 1,8,9
 10 -25 10 -25 10 -14 c 256,10,11
 10 10 10 10 36 10 c 2,12,-1
 90 10 l 1,0,-1
40 30 m 128,-1,14
 40 20 40 20 55 11.9814453125 c 1,15,16
 70 20 70 20 70 30 c 128,-1,17
 70 40 70 40 63.5 40 c 0,18,19
 55 40 55 40 47 40 c 0,20,13
 40 40 40 40 40 30 c 128,-1,14
42 10 m 1,21,22
 30 17 30 17 30 30 c 0,23,24
 30 50 30 50 47 50 c 0,25,-1
 63 50 l 1,26,27
 80 50 80 50 80 30 c 1,28,29
 80 16 80 16 70 10 c 1,30,-1
 42 10 l 1,21,22
EndSplineSet
EndChar

StartChar: uniFECC
Encoding: 65228 65228 354
Width: 69
VWidth: 129
GlyphClass: 2
Flags: W
LayerCount: 2
Fore
SplineSet
70 10 m 5,0,-1
 70 10 l 5,1,-1
 70 0 l 5,2,-1
 -1 0 l 5,3,4
 -1 10 l 5,5,-1
 70 10 l 5,0,-1
20 30 m 132,-1,7
 20 20 20 20 35 11.9814453125 c 5,8,9
 51 20 51 20 51 30 c 132,-1,10
 51 40 51 40 43 40 c 132,-1,11
 35 40 35 40 27 40 c 4,12,6
 20 40 20 40 20 30 c 132,-1,7
22 10 m 5,13,14
 10 18 10 18 10 30 c 4,15,16
 10 50 10 50 27 50 c 4,17,-1
 43 50 l 5,18,19
 60 50 60 50 60 30 c 5,20,21
 60 17 60 17 49 10 c 5,22,-1
 22 10 l 5,13,14
EndSplineSet
EndChar

StartChar: uniFECB
Encoding: 65227 65227 355
Width: 60
VWidth: 129
GlyphClass: 2
Flags: W
LayerCount: 2
Fore
SplineSet
50 10 m 5,0,-1
 50 10 l 5,1,-1
 50 0 l 5,2,-1
 -1 0 l 5,3,4
 -1 10 l 5,5,-1
 50 10 l 5,0,-1
13 10 m 21,6,7
 10 12 10 12 10 26 c 260,8,9
 10 50 10 50 32 50 c 260,10,11
 43 50 43 50 50 39 c 5,12,-1
 42 33 l 5,13,14
 38 40 38 40 32 40 c 4,15,16
 20 40 20 40 20 26 c 4,17,18
 20 10 20 10 32 10 c 13,19,-1
 13 10 l 21,6,7
EndSplineSet
Position2: "Single Positioning lookup 1 per glyph data 1" dx=0 dy=0 dh=-3 dv=0
EndChar

StartChar: dotlessfeh-ar
Encoding: 1697 1697 379
Width: 109
VWidth: 129
GlyphClass: 2
Flags: W
LayerCount: 2
Fore
SplineSet
74 10 m 5,0,-1
 74 0 l 5,1,-1
 30 0 l 2,2,3
 10 0 10 0 10 20 c 2,4,-1
 10 50 l 1,5,-1
 20 50 l 1,6,-1
 20 20 l 2,7,8
 20 10 20 10 30 10 c 2,9,-1
 74 10 l 5,0,-1
74 9.962890625 m 0,10,11
 89 10 89 10 89 24 c 0,12,13
 89 40 89 40 74 40 c 256,14,15
 60 40 60 40 60 24 c 0,16,17
 60 10 60 10 74 9.962890625 c 0,10,11
74 0 m 0,18,19
 50 0 50 0 50 24 c 0,20,21
 50 50 50 50 74 50 c 0,22,23
 99 50 99 50 99 24 c 0,24,25
 99 0 99 0 74 0 c 0,18,19
99 50 m 1025,26,-1
EndSplineSet
Substitution2: "'fina' Terminal Forms in Arabic lookup 6 subtable" dotlessfeh-ar.fina
Substitution2: "'medi' Medial Forms in Arabic lookup 5 subtable" dotlessfeh-ar.medi
Substitution2: "'init' Initial Forms in Arabic lookup 4 subtable" dotlessfeh-ar.init
AlternateSubs2: "'aalt' Access All Alternates in Arabic lookup 1 subtable" dotlessfeh-ar.fina dotlessfeh-ar.medi dotlessfeh-ar.init
Position2: "Single Positioning lookup 1 per glyph data 0" dx=0 dy=0 dh=-3 dv=0
EndChar

StartChar: dotlessfeh-ar.fina
Encoding: 65668 -1 380
Width: 109
VWidth: 129
GlyphClass: 2
Flags: W
LayerCount: 2
Fore
SplineSet
40 10 m 5,0,-1
 40 0 l 5,1,-1
 30 0 l 6,2,3
 10 0 10 0 10 20 c 6,4,-1
 10 50 l 5,5,-1
 20 50 l 5,6,-1
 20 20 l 6,7,8
 20 10 20 10 30 10 c 6,9,-1
 40 10 l 5,0,-1
30 9.962890625 m 5,10,-1
 110 9.962890625 l 5,11,-1
 110 0 l 5,12,-1
 30 0 l 5,13,-1
 30 9.962890625 l 5,10,-1
74 9.962890625 m 4,14,15
 89 10 89 10 89 24 c 4,16,17
 89 40 89 40 74 40 c 260,18,19
 60 40 60 40 60 24 c 4,20,21
 60 10 60 10 74 9.962890625 c 4,14,15
74 0 m 4,22,23
 50 0 50 0 50 24 c 4,24,25
 50 50 50 50 74 50 c 4,26,27
 99 50 99 50 99 24 c 4,28,29
 99 0 99 0 74 0 c 4,22,23
99 50 m 1029,30,-1
EndSplineSet
EndChar

StartChar: dotlessfeh-ar.medi
Encoding: 65669 -1 381
Width: 69
VWidth: 129
GlyphClass: 2
Flags: W
LayerCount: 2
Fore
SplineSet
-1 9.962890625 m 5,0,-1
 70 9.962890625 l 5,1,-1
 70 0 l 5,2,-1
 -1 0 l 5,3,-1
 -1 9.962890625 l 5,0,-1
34 9.962890625 m 4,4,5
 49 10 49 10 49 24 c 4,6,7
 49 40 49 40 34 40 c 260,8,9
 20 40 20 40 20 24 c 4,10,11
 20 10 20 10 34 9.962890625 c 4,4,5
34 0 m 4,12,13
 10 0 10 0 10 24 c 4,14,15
 10 50 10 50 34 50 c 4,16,17
 59 50 59 50 59 24 c 4,18,19
 59 0 59 0 34 0 c 4,12,13
EndSplineSet
EndChar

StartChar: dotlessfeh-ar.init
Encoding: 65670 -1 382
Width: 69
VWidth: 129
GlyphClass: 2
Flags: W
LayerCount: 2
Fore
SplineSet
-1 9.962890625 m 5,0,-1
 34 9.962890625 l 1,1,-1
 34 0 l 1,2,-1
 -1 0 l 5,3,-1
 -1 9.962890625 l 5,0,-1
34 9.962890625 m 0,4,5
 49 10 49 10 49 24 c 0,6,7
 49 40 49 40 34 40 c 256,8,9
 20 40 20 40 20 24 c 0,10,11
 20 10 20 10 34 9.962890625 c 0,4,5
34 0 m 0,12,13
 10 0 10 0 10 24 c 0,14,15
 10 50 10 50 34 50 c 0,16,17
 59 50 59 50 59 24 c 0,18,19
 59 0 59 0 34 0 c 0,12,13
EndSplineSet
Position2: "Single Positioning lookup 1 per glyph data 0" dx=0 dy=0 dh=-3 dv=0
EndChar

StartChar: dotlessqaf-ar
Encoding: 1647 1647 401
Width: 90
VWidth: 129
GlyphClass: 2
Flags: W
LayerCount: 2
Fore
SplineSet
80 10 m 1,0,1
 80 -20 80 -20 45 -20 c 128,-1,2
 10 -20 10 -20 10 10 c 2,3,4
 10 50 l 5,5,-1
 20 50 l 5,6,7
 20 10 l 2,8,9
 20 -10 20 -10 45 -10 c 128,-1,10
 70 -10 70 -10 70 10 c 1,11,-1
 80 10 l 1,0,1
70 9.962890625 m 1,12,-1
 70 0 l 1,13,-1
 57 0 l 2,14,15
 40 0 40 0 40 25 c 128,-1,16
 40 50 40 50 60 50 c 128,-1,17
 80 50 80 50 80 25 c 2,18,-1
 80 10 l 1,19,-1
 70 10 l 1,20,-1
 80 10 l 1,21,-1
 70 10 l 1,22,-1
 70 25 l 2,23,24
 70 40 70 40 57 40 c 256,25,26
 50 40 50 40 50 25.0099909856 c 128,-1,27
 50 10.0199819712 50 10.0199819712 57 10 c 2,28,-1
 70 9.962890625 l 1,12,-1
EndSplineSet
Substitution2: "'fina' Terminal Forms in Arabic lookup 6 subtable" dotlessqaf-ar.fina
Substitution2: "'medi' Medial Forms in Arabic lookup 5 subtable" dotlessqaf-ar.medi
Substitution2: "'init' Initial Forms in Arabic lookup 4 subtable" dotlessqaf-ar.init
AlternateSubs2: "'aalt' Access All Alternates in Arabic lookup 1 subtable" dotlessqaf-ar.fina dotlessqaf-ar.medi dotlessqaf-ar.init
EndChar

StartChar: dotlessqaf-ar.fina
Encoding: 65680 -1 402
Width: 90
VWidth: 129
GlyphClass: 2
Flags: W
LayerCount: 2
Fore
SplineSet
91 10 m 1
 91 0 l 1
 77 0 l 1
 77 10 l 1
 91 10 l 1
EndSplineSet
Refer: 401 1647 S 1 0 0 1 -0.03125 0 3
EndChar

StartChar: uni0643
Encoding: 1603 1603 418
Width: 100
VWidth: 129
GlyphClass: 2
Flags: W
LayerCount: 2
Fore
SplineSet
90 80 m 1
 90 49 l 1
 80 49 l 1
 80 80 l 1
 90 80 l 1
EndSplineSet
Refer: 1004 1620 N 1 0 0 1 36 -30 2
Refer: 30 1646 S 1 0 0 1 0 0 3
Substitution2: "'fina' Terminal Forms in Arabic lookup 6 subtable" uniFEDA
Substitution2: "'medi' Medial Forms in Arabic lookup 5 subtable" uniFEDC
Substitution2: "'init' Initial Forms in Arabic lookup 4 subtable" uniFEDB
AlternateSubs2: "'aalt' Access All Alternates in Arabic lookup 1 subtable" uniFEDA uniFEDC uniFEDB
Position2: "Single Positioning lookup 1 per glyph data 1" dx=0 dy=0 dh=-3 dv=0
EndChar

StartChar: uniFEDB
Encoding: 65243 65243 422
Width: 60
VWidth: 129
GlyphClass: 2
Flags: W
LayerCount: 2
Fore
SplineSet
15 60 m 0,0,1
 15 51 15 51 20 50 c 0,2,-1
 30 50 l 2,3,4
 50 50 50 50 50 24 c 256,5,6
 50 0 50 0 30 0 c 1,7,-1
 -0 0 l 1,8,-1
 0 10 l 1,9,-1
 30 10 l 1,10,11
 40 10 40 10 40 24 c 0,12,13
 40 40 40 40 30 40 c 2,14,15
 25 40 25 40 20 40 c 0,16,17
 5 40 5 40 5 60 c 128,-1,18
 5 80 5 80 20 80 c 0,19,-1
 45 80 l 1,20,-1
 45 70 l 1,21,-1
 20 70 l 0,22,23
 15 70 15 70 15 60 c 0,0,1
EndSplineSet
Position2: "Single Positioning lookup 1 per glyph data 2" dx=0 dy=0 dh=-4 dv=0
EndChar

StartChar: uni06A9
Encoding: 1705 1705 423
Width: 100
VWidth: 129
GlyphClass: 2
Flags: W
LayerCount: 2
Fore
SplineSet
70 0 m 2,0,1
 30 0 l 2,2,3
 10 0 10 0 10 20 c 2,4,-1
 10 50 l 1,5,-1
 20 50 l 1,6,-1
 20 20 l 2,7,8
 20 10 20 10 30 10 c 2,9,-1
 70 10 l 2,10,11
 80 10 80 10 80 20 c 2,12,-1
 80 20 l 1,13,-1
 90 20 l 1,14,-1
 90 20 l 2,15,16
 90 0 90 0 70 0 c 2,0,1
50 60 m 0,17,18
 50 51 50 51 55 50 c 0,19,-1
 70 50 l 2,20,21
 90 50 90 50 90 30 c 256,22,-1
 90 20 l 1,23,-1
 80 20 l 1,24,25
 80 28 80 28 80 29.9814453125 c 0,26,27
 80 40 80 40 70 40 c 2,28,-1
 55 40 l 0,29,30
 40 40 40 40 40 60 c 128,-1,31
 40 80 40 80 55 80 c 0,32,-1
 80 80 l 5,33,-1
 80 70 l 5,34,-1
 55 70 l 0,35,36
 50 70 50 70 50 60 c 0,17,18
EndSplineSet
Substitution2: "'fina' Terminal Forms in Arabic lookup 6 subtable" uniFB8F
Substitution2: "'medi' Medial Forms in Arabic lookup 5 subtable" uniFB91
Substitution2: "'init' Initial Forms in Arabic lookup 4 subtable" uniFB90
AlternateSubs2: "'aalt' Access All Alternates in Arabic lookup 1 subtable" uniFB8F uniFB91 uniFB90
EndChar

StartChar: uniFB8E
Encoding: 64398 64398 424
Width: 100
VWidth: 129
GlyphClass: 2
Flags: W
LayerCount: 2
Fore
SplineSet
70 0 m 2,0,1
 30 0 l 2,2,3
 10 0 10 0 10 20 c 2,4,-1
 10 50 l 1,5,-1
 20 50 l 1,6,-1
 20 20 l 2,7,8
 20 10 20 10 30 10 c 2,9,-1
 70 10 l 2,10,11
 80 10 80 10 80 20 c 2,12,-1
 80 20 l 1,13,-1
 90 20 l 1,14,-1
 90 20 l 2,15,16
 90 0 90 0 70 0 c 2,0,1
50 60 m 0,17,18
 50 51 50 51 55 50 c 0,19,-1
 70 50 l 2,20,21
 90 50 90 50 90 30 c 256,22,-1
 90 20 l 1,23,-1
 80 20 l 1,24,25
 80 28 80 28 80 29.9814453125 c 0,26,27
 80 40 80 40 70 40 c 2,28,-1
 55 40 l 0,29,30
 40 40 40 40 40 60 c 128,-1,31
 40 80 40 80 55 80 c 0,32,-1
 80 80 l 5,33,-1
 80 70 l 5,34,-1
 55 70 l 0,35,36
 50 70 50 70 50 60 c 0,17,18
EndSplineSet
EndChar

StartChar: uni06AA
Encoding: 1706 1706 461
Width: 110
VWidth: 108
GlyphClass: 2
Flags: W
AnchorPoint: "Anchor-1" 54 58 basechar 0
AnchorPoint: "Anchor-0" 47 -3 basechar 0
LayerCount: 2
Fore
SplineSet
60 -2 m 0,0,1
 55 -2 55 -2 47.5 -2 c 128,-1,2
 40 -2 40 -2 32.5 -1.5 c 128,-1,3
 25 -1 25 -1 18 -0.5 c 128,-1,4
 11 0 11 0 6 0 c 1,5,-1
 7 9 l 1,6,7
 14 9 14 9 23 8.5 c 128,-1,8
 32 8 32 8 41 7.5 c 128,-1,9
 50 7 50 7 60 7 c 0,10,11
 78 7 78 7 87.5 8.5 c 128,-1,12
 97 10 97 10 97 15 c 0,13,14
 97 17 97 17 95 19 c 128,-1,15
 93 21 93 21 87.5 22.5 c 128,-1,16
 82 24 82 24 72 24 c 0,17,18
 60 25 60 25 53 26.5 c 128,-1,19
 46 28 46 28 43 30 c 128,-1,20
 40 32 40 32 40 36 c 128,-1,21
 40 40 40 40 43 44.5 c 128,-1,22
 46 49 46 49 52 52 c 128,-1,23
 58 55 58 55 65 57.5 c 128,-1,24
 72 60 72 60 80 62 c 1,25,-1
 82 54 l 1,26,27
 72 52 72 52 64.5 49 c 128,-1,28
 57 46 57 46 52.5 43 c 128,-1,29
 48 40 48 40 48 38 c 128,-1,30
 48 36 48 36 50.5 35 c 128,-1,31
 53 34 53 34 58 33.5 c 0,32,33
 63 32 63 32 72 32 c 0,34,35
 82 31 82 31 88.5 30 c 128,-1,36
 95 29 95 29 98.5 26.5 c 128,-1,37
 102 24 102 24 103.5 21.5 c 128,-1,38
 105 19 105 19 105 16 c 0,39,40
 105 9 105 9 100.5 5.5 c 128,-1,41
 96 2 96 2 86 0 c 128,-1,42
 76 -2 76 -2 60 -2 c 0,0,1
EndSplineSet
Substitution2: "'fina' Terminal Forms in Arabic lookup 6 subtable" kafswash-ar.fina
Substitution2: "'medi' Medial Forms in Arabic lookup 5 subtable" kafswash-ar.medi
Substitution2: "'init' Initial Forms in Arabic lookup 4 subtable" kafswash-ar.init
AlternateSubs2: "'aalt' Access All Alternates in Arabic lookup 1 subtable" kafswash-ar.fina kafswash-ar.medi kafswash-ar.init
EndChar

StartChar: kafswash-ar.init
Encoding: 65711 -1 464
Width: 82
VWidth: 108
GlyphClass: 2
Flags: W
AnchorPoint: "Anchor-1" 50 60 basechar 0
AnchorPoint: "Anchor-0" 42 -0 basechar 0
LayerCount: 2
Fore
SplineSet
0 -0 m 1,0,-1
 1 8 l 1,1,-1
 32 8 l 2,2,3
 44 8 44 8 52 8.5 c 128,-1,4
 60 9 60 9 65 10.5 c 128,-1,5
 70 12 70 12 70 15 c 0,6,7
 70 17 70 17 68 19 c 128,-1,8
 66 21 66 21 60.5 22.5 c 128,-1,9
 55 24 55 24 44 24 c 0,10,11
 32 25 32 25 25 26.5 c 128,-1,12
 18 28 18 28 15 30 c 128,-1,13
 12 32 12 32 12 36 c 128,-1,14
 12 40 12 40 15 44.5 c 128,-1,15
 18 49 18 49 24 52 c 128,-1,16
 30 55 30 55 37 57.5 c 128,-1,17
 44 60 44 60 52 62 c 1,18,-1
 54 54 l 1,19,20
 44 52 44 52 36.5 49 c 128,-1,21
 29 46 29 46 25 43 c 128,-1,22
 21 40 21 40 21 38 c 128,-1,23
 21 36 21 36 23 35 c 128,-1,24
 25 34 25 34 30 33.5 c 0,25,26
 35 32 35 32 44 32 c 0,27,28
 54 31 54 31 60.5 30 c 128,-1,29
 67 29 67 29 71 26.5 c 128,-1,30
 75 24 75 24 76.5 21.5 c 128,-1,31
 78 19 78 19 78 16 c 0,32,33
 78 9 78 9 73 5.5 c 128,-1,34
 68 2 68 2 58 1 c 128,-1,35
 48 0 48 0 32 -0 c 2,36,-1
 0 -0 l 1,0,-1
EndSplineSet
EndChar

StartChar: uni0644
Encoding: 1604 1604 504
Width: 90
VWidth: 129
GlyphClass: 2
Flags: W
LayerCount: 2
Fore
SplineSet
80 9 m 2,0,1
 80 -20 80 -20 45 -20 c 128,-1,2
 10 -20 10 -20 10 10 c 0,3,4
 10 29 10 29 10 50 c 5,5,-1
 20 50 l 5,6,7
 20 31 20 31 20 10 c 0,8,9
 20 -10 20 -10 45 -10 c 128,-1,10
 70 -10 70 -10 70 10 c 2,11,-1
 70 80 l 1,12,-1
 80 80 l 1,13,-1
 80 9 l 2,0,1
EndSplineSet
Substitution2: "'fina' Terminal Forms in Arabic lookup 6 subtable" uniFEDE
Substitution2: "'medi' Medial Forms in Arabic lookup 5 subtable" uniFEE0
Substitution2: "'init' Initial Forms in Arabic lookup 4 subtable" uniFEDF
AlternateSubs2: "'aalt' Access All Alternates in Arabic lookup 1 subtable" uniFEDE uniFEE0 uniFEDF
EndChar

StartChar: uniFEDF
Encoding: 65247 65247 508
Width: 40
VWidth: 129
GlyphClass: 2
Flags: W
LayerCount: 2
Fore
SplineSet
30 80 m 1
 30 49 l 1
 20 49 l 1
 20 80 l 1
 30 80 l 1
EndSplineSet
Refer: 33 -1 N 1 0 0 1 0 0 2
Position2: "Single Positioning lookup 1 per glyph data 1" dx=0 dy=0 dh=-3 dv=0
EndChar

StartChar: uni0645
Encoding: 1605 1605 529
Width: 80
VWidth: 129
GlyphClass: 2
Flags: W
LayerCount: 2
Fore
SplineSet
45 40 m 256,0,1
 30 40 30 40 30 25 c 128,-1,2
 30 10 30 10 45 10 c 128,-1,3
 60 10 60 10 60 25 c 128,-1,4
 60 40 60 40 45 40 c 256,0,1
20 -10 m 2,5,-1
 20 -20 l 1,6,-1
 10 -20 l 1,7,-1
 10 -10 l 2,8,9
 10 10 10 10 25 10 c 1,10,11
 20 12 20 12 20 25 c 0,12,13
 20 50 20 50 45 50 c 128,-1,14
 70 50 70 50 70 25 c 256,15,16
 70 0 70 0 45 0 c 2,17,-1
 30 0 l 2,18,19
 20 0 20 0 20 -10 c 2,5,-1
EndSplineSet
Substitution2: "'fina' Terminal Forms in Arabic lookup 6 subtable" uniFEE2
Substitution2: "'medi' Medial Forms in Arabic lookup 5 subtable" uniFEE4
Substitution2: "'init' Initial Forms in Arabic lookup 4 subtable" uniFEE3
AlternateSubs2: "'aalt' Access All Alternates in Arabic lookup 1 subtable" uniFEE2 uniFEE4 uniFEE3
Position2: "Single Positioning lookup 1 per glyph data 2" dx=0 dy=0 dh=-4 dv=0
EndChar

StartChar: uniFEE2
Encoding: 65250 65250 531
Width: 82
VWidth: 129
GlyphClass: 2
Flags: W
LayerCount: 2
Fore
SplineSet
41 24 m 0,0,1
 41 10 41 10 55 10 c 256,2,3
 69 10 69 10 69 24 c 0,4,5
 69 40 69 40 55 40 c 256,6,7
 41 40 41 40 41 24 c 0,0,1
76 10 m 1,8,9
 83 10 l 1,10,-1
 83 0 l 1,11,-1
 55 0 l 2,12,13
 31 0 31 0 31 24 c 0,14,15
 31 35 31 35 35 40 c 1,16,-1
 30 40 l 0,17,18
 20 40 20 40 20 24 c 2,19,-1
 20 -20 l 1,20,-1
 10 -20 l 1,21,-1
 10 24 l 2,22,23
 10 50 10 50 30 50 c 0,24,-1
 55 50 l 24,25,26
 79 50 79 50 79 24 c 4,27,28
 79 14 79 14 76 10 c 1,8,9
EndSplineSet
EndChar

StartChar: uniFEE3
Encoding: 65251 65251 533
Width: 70
VWidth: 129
GlyphClass: 2
Flags: W
LayerCount: 2
Fore
SplineSet
20 26 m 260,0,1
 20 10 20 10 35 10 c 132,-1,2
 50 10 50 10 50 26 c 260,3,4
 50 40 50 40 35 40 c 260,5,6
 20 40 20 40 20 26 c 260,0,1
35 0 m 4,7,8
 20 0 20 0 15 7 c 5,9,10
 10 0 10 0 -1 0 c 5,11,-1
 -1 10 l 5,12,13
 10 10 10 10 10 26 c 5,14,15
 10 50 10 50 35 50 c 132,-1,16
 60 50 60 50 60 26 c 4,17,18
 60 0 60 0 35 0 c 4,7,8
EndSplineSet
Position2: "Single Positioning lookup 1 per glyph data 2" dx=0 dy=0 dh=-4 dv=0
EndChar

StartChar: uni06BA
Encoding: 1722 1722 547
Width: 90
VWidth: 129
GlyphClass: 2
Flags: W
LayerCount: 2
Fore
SplineSet
80 9 m 2,0,1
 80 -20 80 -20 45 -20 c 128,-1,2
 10 -20 10 -20 10 10 c 0,3,4
 10 29 10 29 10 50 c 1,5,-1
 20 50 l 1,6,7
 20 31 20 31 20 10 c 0,8,9
 20 -10 20 -10 45 -10 c 128,-1,10
 70 -10 70 -10 70 10 c 2,11,-1
 70 50 l 1,12,-1
 80 50 l 1,13,-1
 80 9 l 2,0,1
EndSplineSet
Substitution2: "'fina' Terminal Forms in Arabic lookup 6 subtable" uniFB9F
Substitution2: "'aalt' Access All Alternates in Arabic lookup 0 subtable" uniFB9F
EndChar

StartChar: uni0647
Encoding: 1607 1607 561
Width: 60
VWidth: 129
GlyphClass: 2
Flags: W
LayerCount: 2
Fore
SplineSet
20 40 m 1,0,-1
 20 24 l 2,1,2
 20 10 20 10 32 10 c 257,3,4
 44 10 44 10 44 25 c 132,-1,5
 44 40 44 40 32 40 c 9,6,-1
 20 40 l 1,0,-1
10 50 m 1,7,-1
 32 50 l 17,8,9
 54 50 54 50 54 25 c 132,-1,10
 54 0 54 0 32 0 c 129,-1,11
 10 0 10 0 10 23 c 1,12,-1
 10 50 l 1,7,-1
EndSplineSet
Substitution2: "'fina' Terminal Forms in Arabic lookup 6 subtable" uniFEEA
Substitution2: "'medi' Medial Forms in Arabic lookup 5 subtable" uniFEEC
Substitution2: "'init' Initial Forms in Arabic lookup 4 subtable" uniFEEB
AlternateSubs2: "'aalt' Access All Alternates in Arabic lookup 1 subtable" uniFEEA uniFEEC uniFEEB
Position2: "Single Positioning lookup 1 per glyph data 2" dx=0 dy=0 dh=-4 dv=0
EndChar

StartChar: uniFEEA
Encoding: 65258 65258 563
Width: 60
VWidth: 129
GlyphClass: 2
Flags: W
LayerCount: 2
Fore
SplineSet
43 25 m 256,0,1
 43 40 43 40 31 40 c 256,2,3
 20 40 20 40 20 25 c 256,4,5
 20 10 20 10 31.5 10 c 128,-1,6
 43 10 43 10 43 25 c 256,0,1
31 0 m 0,7,8
 10 0 10 0 10 25 c 128,-1,9
 10 50 10 50 31.5 50 c 128,-1,10
 53 50 53 50 53 25 c 1,11,12
 53 10 53 10 61 10 c 5,13,-1
 61 0 l 5,14,15
 53 0 53 0 48 9 c 1,16,17
 42 0 42 0 31 0 c 0,7,8
EndSplineSet
EndChar

StartChar: uniFEEB
Encoding: 65259 65259 565
Width: 90
VWidth: 129
GlyphClass: 2
Flags: W
LayerCount: 2
Fore
SplineSet
30.5 10 m 128,-1,1
 41 10 41 10 41 25 c 128,-1,2
 41 40 41 40 30.5 40 c 128,-1,3
 20 40 20 40 20 25 c 128,-1,0
 20 10 20 10 30.5 10 c 128,-1,1
68 25 m 128,-1,5
 68 40 68 40 47 40 c 1,6,7
 52 35 52 35 52 25 c 256,8,9
 52 16 52 16 48 10 c 1,10,4
 68 10 68 10 68 25 c 128,-1,5
10 25 m 128,-1,12
 10 36 10 36 13 40 c 1,13,-1
 10 40 l 1,14,-1
 10 50 l 1,15,-1
 52 50 l 17,16,17
 80 50 80 50 80 25 c 128,-1,18
 80 0 80 0 52 0 c 9,19,-1
 -0 0 l 1,20,-1
 0 10 l 1,21,-1
 13 10 l 0,22,11
 10 14 10 14 10 25 c 128,-1,12
EndSplineSet
Position2: "Single Positioning lookup 1 per glyph data 2" dx=0 dy=0 dh=-4 dv=0
EndChar

StartChar: uniFBA7
Encoding: 64423 64423 571
Width: 63
VWidth: 108
GlyphClass: 2
Flags: W
LayerCount: 2
Fore
SplineSet
13 4 m 20,0,1
 6 10 6 10 6 23 c 4,2,3
 6 46 6 46 29 46 c 132,-1,5
 52 46 52 46 52 24 c 5,6,7
 52 9 52 9 64 8 c 5,8,-1
 64 0 l 5,9,10
 43 0 43 0 43 24 c 261,11,12
 43 38 43 38 29 38 c 260,13,14
 15 38 15 38 15 24 c 260,15,16
 15 16 15 16 19 12 c 5,17,-1
 13 4 l 20,0,1
EndSplineSet
EndChar

StartChar: uni0648
Encoding: 1608 1608 593
Width: 55
VWidth: 129
GlyphClass: 2
Flags: W
LayerCount: 2
Fore
SplineSet
40 10 m 1,0,-1
 40 23 l 2,1,2
 40 40 40 40 30 40 c 256,3,4
 15 40 15 40 15 25 c 128,-1,5
 15 10 15 10 30 10 c 2,6,-1
 40 10 l 1,0,-1
30 -10 m 2,7,8
 40 -10 40 -10 40 0 c 1,9,-1
 30 0 l 2,10,11
 5 0 5 0 5 25 c 128,-1,12
 5 50 5 50 27.5 50 c 128,-1,13
 50 50 50 50 50 24 c 1,14,-1
 50 0 l 2,15,16
 50 -20 50 -20 30 -20 c 2,17,-1
 20 -20 l 1,18,-1
 20 -10 l 1,19,-1
 30 -10 l 2,7,8
EndSplineSet
Substitution2: "'fina' Terminal Forms in Arabic lookup 6 subtable" uniFEEE
Substitution2: "'aalt' Access All Alternates in Arabic lookup 0 subtable" uniFEEE
EndChar

StartChar: uniFEEE
Encoding: 65262 65262 595
Width: 55
VWidth: 129
GlyphClass: 2
Flags: W
LayerCount: 2
Fore
SplineSet
56 10 m 5
 56 0 l 5
 49 0 l 1
 49 10 l 1
 56 10 l 5
EndSplineSet
Refer: 593 1608 N 1 0 0 1 -7.10543e-15 -0.0371094 3
EndChar

StartChar: uni08B1
Encoding: 2225 2225 611
Width: 51
VWidth: 108
GlyphClass: 2
Flags: W
AnchorPoint: "Anchor-1" 25 36 basechar 0
AnchorPoint: "Anchor-0" 34 -30 basechar 0
LayerCount: 2
Fore
SplineSet
38 -30 m 1,0,-1
 30 -29 l 1,1,2
 30 -24 30 -24 32 -16 c 0,3,4
 34 -8 34 -8 34 -0 c 1,5,-1
 25 -0 l 2,6,7
 20 0 20 0 16 1 c 128,-1,8
 12 2 12 2 9.5 5 c 128,-1,9
 7 8 7 8 7 13 c 0,10,11
 7 17 7 17 8.5 21 c 128,-1,12
 10 25 10 25 12.5 28.5 c 128,-1,13
 15 32 15 32 18.5 34 c 128,-1,14
 22 36 22 36 25 36 c 0,15,16
 32 36 32 36 37.5 29.5 c 128,-1,17
 43 23 43 23 43 8 c 1,18,-1
 52 8 l 2,19,20
 54 8 54 8 55.5 7 c 128,-1,21
 57 6 57 6 57 4 c 256,22,23
 57 2 57 2 55.5 1 c 128,-1,24
 54 0 54 0 51 -0 c 2,25,-1
 42 -0 l 1,26,27
 41 -4 41 -4 40.5 -10 c 128,-1,28
 40 -16 40 -16 39 -21 c 128,-1,29
 38 -26 38 -26 38 -30 c 1,0,-1
30 8 m 2,30,-1
 34 8 l 1,31,32
 34 17 34 17 31 22 c 128,-1,33
 28 27 28 27 24 27 c 0,34,35
 22 27 22 27 20 25.5 c 128,-1,36
 18 24 18 24 17 21 c 128,-1,37
 16 18 16 18 16 15 c 0,38,39
 16 11 16 11 19.5 9.5 c 128,-1,40
 23 8 23 8 30 8 c 2,30,-1
EndSplineSet
EndChar

StartChar: uni0649
Encoding: 1609 1609 630
Width: 90
VWidth: 129
GlyphClass: 2
Flags: W
LayerCount: 2
Fore
SplineSet
70 2 m 1,0,1
 70 2 l 1,2,3
 70 15 70 15 63 15 c 4,4,5
 49 15 49 15 49 32.5 c 128,-1,6
 49 50 49 50 63 50 c 2,7,-1
 80 50 l 1,8,-1
 80 40 l 1,9,-1
 63 40 l 2,10,11
 58 40 58 40 58 32.5 c 128,-1,12
 58 25 58 25 63 25 c 4,13,14
 80 25 80 25 80 2 c 1,15,-1
 80 2 l 1,16,17
 80 -20 80 -20 42 -20 c 0,18,19
 10 -20 10 -20 10 3 c 0,20,21
 10 29 10 29 10 50 c 1,22,-1
 20 50 l 1,23,24
 20 31 20 31 20 3 c 0,25,26
 20 -10 20 -10 42 -10 c 0,27,28
 70 -10 70 -10 70 2 c 1,0,1
EndSplineSet
Substitution2: "'fina' Terminal Forms in Arabic lookup 6 subtable" uniFEF0
Substitution2: "'medi' Medial Forms in Arabic lookup 5 subtable" uniFBE9
Substitution2: "'init' Initial Forms in Arabic lookup 4 subtable" uniFBE8
AlternateSubs2: "'aalt' Access All Alternates in Arabic lookup 1 subtable" uniFBE9 uniFBE8 uniFEF0
EndChar

StartChar: uniFEF0
Encoding: 65264 65264 632
Width: 90
VWidth: 129
GlyphClass: 2
Flags: W
LayerCount: 2
Fore
SplineSet
59 0 m 4,0,1
 40 3 40 3 40 18 c 128,-1,2
 40 33 40 33 60 33 c 128,-1,3
 80 33 80 33 84 17 c 1,4,5
 86 10 86 10 91 10 c 1,6,-1
 91 0 l 1,7,8
 78 0 78 0 74 17 c 257,9,10
 72 23 72 23 61 23 c 256,11,12
 50 23 50 23 50 17 c 256,13,14
 50 12 50 12 59 10 c 0,15,16
 77 7 77 7 77 -10 c 4,17,18
 77 -30 77 -30 43.5 -30 c 129,-1,19
 10 -30 10 -30 10 0 c 1,20,21
 10 19 10 19 10 40 c 1,22,-1
 20 40 l 1,23,24
 20 21 20 21 20 0 c 1,25,26
 20 -20 20 -20 43.5 -20 c 129,-1,27
 67 -20 67 -20 66.95703125 -10.5458984375 c 132,-1,28
 67 -1 67 -1 59 0 c 4,0,1
EndSplineSet
EndChar

StartChar: uni08AD
Encoding: 2221 2221 633
Width: 25
VWidth: 108
GlyphClass: 2
Flags: W
AnchorPoint: "Anchor-1" 17 50 basechar 0
AnchorPoint: "Anchor-0" 15 10 basechar 0
LayerCount: 2
Fore
SplineSet
10 10 m 1,0,-1
 10 50 l 1,1,-1
 20 50 l 5,2,-1
 20 10 l 5,3,-1
 10 10 l 1,0,-1
EndSplineSet
EndChar

StartChar: uni06CD
Encoding: 1741 1741 689
Width: 97
VWidth: 108
GlyphClass: 2
Flags: W
AnchorPoint: "Anchor-1" 43 32 basechar 0
AnchorPoint: "Anchor-0" 48 -20 basechar 0
LayerCount: 2
Fore
SplineSet
48 -20 m 0,0,1
 39 -20 39 -20 31.5 -17.5 c 128,-1,2
 24 -15 24 -15 20 -10 c 128,-1,3
 16 -5 16 -5 16 3 c 0,4,5
 16 5 16 5 16 7.5 c 128,-1,6
 16 10 16 10 18 14 c 1,7,-1
 1 9 l 1,8,-1
 2 18 l 1,9,-1
 22 24 l 1,10,-1
 29 22 l 1,11,12
 27 17 27 17 25.5 12.5 c 128,-1,13
 24 8 24 8 24 5 c 0,14,15
 24 -1 24 -1 27.5 -4.5 c 128,-1,16
 31 -8 31 -8 36.5 -10 c 128,-1,17
 42 -12 42 -12 48 -12 c 0,18,19
 59 -12 59 -12 66 -9 c 128,-1,20
 73 -6 73 -6 76 -2.5 c 128,-1,21
 79 1 79 1 79 5 c 0,22,23
 79 7 79 7 77 8.5 c 128,-1,24
 75 10 75 10 72 11.5 c 128,-1,25
 69 13 69 13 65.5 15 c 128,-1,26
 62 17 62 17 60 20 c 0,27,28
 58 24 58 24 58 28 c 128,-1,29
 58 32 58 32 60 36.5 c 128,-1,30
 62 41 62 41 65.5 44.5 c 128,-1,31
 69 48 69 48 73.5 50 c 128,-1,32
 78 52 78 52 83 52 c 0,33,34
 87 52 87 52 90.5 51 c 128,-1,35
 94 50 94 50 95 49 c 1,36,-1
 92 41 l 1,37,38
 90 42 90 42 87.5 43 c 128,-1,39
 85 44 85 44 83 44 c 0,40,41
 80 44 80 44 77 42.5 c 128,-1,42
 74 41 74 41 72 38.5 c 128,-1,43
 70 36 70 36 68.5 33.5 c 0,44,45
 67 30 67 30 67 28 c 0,46,47
 67 25 67 25 69.5 23.5 c 128,-1,48
 72 22 72 22 75 20 c 128,-1,49
 78 18 78 18 81.5 16 c 128,-1,50
 85 14 85 14 87 12 c 128,-1,51
 89 10 89 10 89 8 c 0,52,53
 89 3 89 3 86.5 -2 c 128,-1,54
 84 -7 84 -7 79 -11 c 128,-1,55
 74 -15 74 -15 66 -17.5 c 128,-1,56
 58 -20 58 -20 48 -20 c 0,0,1
EndSplineSet
Substitution2: "'fina' Terminal Forms in Arabic lookup 6 subtable" yehTail-ar.fina
Substitution2: "'aalt' Access All Alternates in Arabic lookup 0 subtable" yehTail-ar.fina
EndChar

StartChar: yehTail-ar.fina
Encoding: 65798 -1 690
Width: 92
VWidth: 108
GlyphClass: 2
Flags: W
AnchorPoint: "Anchor-1" 45 26 basechar 0
AnchorPoint: "Anchor-0" 48 -29 basechar 0
LayerCount: 2
Fore
SplineSet
48 -29 m 0,0,1
 39 -29 39 -29 31.5 -26.5 c 128,-1,2
 24 -24 24 -24 20 -18.5 c 128,-1,3
 16 -13 16 -13 16 -4 c 0,4,5
 16 -2 16 -2 16 0.5 c 128,-1,6
 16 3 16 3 18 7 c 1,7,-1
 1 1 l 1,8,-1
 2 10 l 1,9,-1
 22 17 l 1,10,-1
 29 14 l 1,11,12
 27 9 27 9 25.5 5 c 128,-1,13
 24 1 24 1 24 -2 c 0,14,15
 24 -9 24 -9 28 -13 c 128,-1,16
 32 -17 32 -17 37.5 -18.5 c 128,-1,17
 43 -20 43 -20 50 -20 c 0,18,19
 58 -20 58 -20 65 -18 c 128,-1,20
 72 -16 72 -16 76.5 -12 c 128,-1,21
 81 -8 81 -8 81 -2 c 0,22,23
 80 1 80 1 76 3 c 0,24,25
 72 5 72 5 64 7 c 1,26,-1
 66 16 l 1,27,28
 77 12 77 12 83.5 10 c 128,-1,29
 90 8 90 8 94 8 c 0,30,31
 96 8 96 8 97 7 c 128,-1,32
 98 6 98 6 98 4 c 256,33,34
 98 2 98 2 96 1 c 0,35,36
 94 -0 94 -0 92 -0 c 2,37,-1
 88 -0 l 1,38,39
 88 -1 88 -1 88.5 -2 c 128,-1,40
 89 -3 89 -3 89 -4 c 0,41,42
 89 -11 89 -11 84 -16.5 c 128,-1,43
 79 -22 79 -22 70 -25.5 c 128,-1,44
 61 -29 61 -29 48 -29 c 0,0,1
EndSplineSet
EndChar

StartChar: uni06D2
Encoding: 1746 1746 702
Width: 102
VWidth: 108
GlyphClass: 2
Flags: W
AnchorPoint: "Anchor-1" 21 45 basechar 0
AnchorPoint: "Anchor-0" 51 -2 basechar 0
LayerCount: 2
Fore
SplineSet
12 16 m 1,0,1
 12 0.28 12 0.28 52.5 5.14 c 128,-1,2
 93 10 93 10 99 10 c 1,3,-1
 97 2 l 1,4,-1
 78 -1 l 2,5,6
 72 -2 72 -2 65 -2 c 128,-1,7
 58 -2 58 -2 31 -2 c 128,-1,8
 4 -2 4 -2 4 15 c 1,9,-1
 22.75 42.25 l 1,10,11
 36.1428571428 64.5714285713 36.1428571428 64.5714285713 48 29 c 1,12,-1
 41 24 l 1,13,14
 36 36.5 36 36.5 30 41 c 1,15,-1
 12 16 l 1,0,1
EndSplineSet
Substitution2: "'fina' Terminal Forms in Arabic lookup 6 subtable" uniFBAF
Substitution2: "'aalt' Access All Alternates in Arabic lookup 0 subtable" uniFBAF
EndChar

StartChar: uniFBAF
Encoding: 64431 64431 704
Width: 59
VWidth: 108
GlyphClass: 2
Flags: W
AnchorPoint: "Anchor-1" 21 4 basechar 0
AnchorPoint: "Anchor-0" 48 -32 basechar 0
LayerCount: 2
Fore
SplineSet
48 -32 m 0,0,1
 24 -32 24 -32 12 -28 c 128,-1,2
 0 -24 0 -24 0 -15 c 0,3,4
 0 -9 0 -9 7 -3.5 c 128,-1,5
 14 2 14 2 27 5 c 128,-1,6
 40 8 40 8 61 8 c 0,7,8
 63 8 63 8 64 7 c 128,-1,9
 65 6 65 6 65 4 c 256,10,11
 65 2 65 2 63.5 1 c 128,-1,12
 62 0 62 0 60 -0 c 0,13,14
 49 0 49 0 39.5 -1.5 c 128,-1,15
 30 -3 30 -3 23 -5 c 128,-1,16
 16 -7 16 -7 12.5 -9.5 c 128,-1,17
 9 -12 9 -12 9 -14 c 0,18,19
 9 -18 9 -18 18.5 -21 c 128,-1,20
 28 -24 28 -24 48 -24 c 0,21,22
 65 -24 65 -24 77 -22.5 c 128,-1,23
 89 -21 89 -21 95 -20 c 1,24,-1
 94 -28 l 1,25,26
 91 -29 91 -29 86 -29.5 c 128,-1,27
 81 -30 81 -30 74.5 -31 c 128,-1,28
 68 -32 68 -32 61.5 -32 c 128,-1,29
 55 -32 55 -32 48 -32 c 0,0,1
EndSplineSet
EndChar

StartChar: uniFE73
Encoding: 65139 65139 797
Width: 54
VWidth: 108
GlyphClass: 2
Flags: W
AnchorPoint: "Anchor-1" 34 78 basechar 0
AnchorPoint: "Anchor-0" 36 0 basechar 0
LayerCount: 2
Fore
SplineSet
16 34 m 1,0,1
 9.5 8 9.5 8 39 8 c 2,2,-1
 56 8 l 2,3,4
 60 8 60 8 60 4 c 128,-1,5
 60 0 60 0 54 -0 c 2,6,-1
 36 -0 l 2,7,8
 6 0 6 0 6 26 c 0,9,10
 6 32 6 32 8 36 c 1,11,-1
 16 34 l 1,0,1
EndSplineSet
EndChar

StartChar: uni0640
Encoding: 1600 1600 800
Width: 50
VWidth: 108
GlyphClass: 2
Flags: W
LayerCount: 2
Fore
SplineSet
10 0 m 1,0,-1
 10 9.962890625 l 1,1,-1
 40 9.962890625 l 1,2,3
 40 8 40 8 40 0 c 9,4,-1
 10 0 l 1,0,-1
EndSplineSet
EndChar

StartChar: yehRohingya-ar.pt.fina
Encoding: 65900 -1 848
Width: 61
VWidth: 108
Flags: W
LayerCount: 2
Fore
SplineSet
6 -18 m 1,0,1
 3 -15 3 -15 1.5 -11.5 c 128,-1,2
 0 -8 0 -8 0 -5 c 0,3,4
 0 -1 0 -1 2 1.5 c 128,-1,5
 4 4 4 4 7 5.5 c 128,-1,6
 10 7 10 7 14 8 c 0,7,8
 16 8 16 8 19 8.5 c 0,9,10
 22 10 22 10 24 10 c 1,11,12
 22 12 22 12 19.5 16 c 128,-1,13
 17 20 17 20 17 26 c 256,14,15
 17 32 17 32 19.5 36 c 128,-1,16
 22 40 22 40 26 42.5 c 128,-1,17
 30 45 30 45 36 45 c 128,-1,18
 42 45 42 45 45.5 42.5 c 128,-1,19
 49 40 49 40 51.5 36 c 128,-1,20
 54 32 54 32 54 26 c 128,-1,21
 54 20 54 20 51.5 16 c 128,-1,22
 49 12 49 12 45 9 c 1,23,24
 49 9 49 9 54 8.5 c 128,-1,25
 59 8 59 8 63 8 c 0,26,27
 65 8 65 8 66 7 c 128,-1,28
 67 6 67 6 67 4 c 256,29,30
 67 2 67 2 65.5 1 c 128,-1,31
 64 0 64 0 62 -0 c 0,32,33
 55 0 55 0 47 1 c 128,-1,34
 39 2 39 2 34 4 c 1,35,36
 29 2 29 2 24 1 c 128,-1,37
 19 0 19 0 16 -0 c 256,38,39
 13 -0 13 -0 10.5 -1.5 c 128,-1,40
 8 -3 8 -3 8 -6 c 0,41,42
 8 -8 8 -8 9 -10.5 c 128,-1,43
 10 -13 10 -13 12 -14 c 1,44,-1
 6 -18 l 1,0,1
26 26 m 128,-1,46
 26 22 26 22 28 18 c 128,-1,47
 30 14 30 14 33 12 c 1,48,49
 38 14 38 14 41 17 c 128,-1,50
 44 20 44 20 44 26 c 0,51,52
 44 30 44 30 42 33 c 128,-1,53
 40 36 40 36 35 36 c 0,54,55
 31 36 31 36 28.5 33 c 128,-1,45
 26 30 26 30 26 26 c 128,-1,46
EndSplineSet
EndChar

StartChar: uniFEFB
Encoding: 65275 65275 849
Width: 70
VWidth: 129
GlyphClass: 3
LigCaretCntFixed: 1
Flags: W
LayerCount: 2
Fore
SplineSet
40 0 m 2,0,1
 30 0 l 2,2,3
 10 0 10 0 10 20 c 2,4,-1
 10 70 l 1,5,-1
 20 70 l 1,6,-1
 20 20 l 2,7,8
 20 10 20 10 30 10 c 2,9,-1
 40 10 l 2,10,11
 50 10 50 10 50 20 c 2,12,-1
 50 80 l 1,13,-1
 60 80 l 1,14,-1
 60 20 l 2,15,16
 60 0 60 0 40 0 c 2,0,1
EndSplineSet
Ligature2: "'rlig' Required Ligatures in Arabic lookup 7 subtable" uniFEDF uniFE8E
Substitution2: "'fina' Terminal Forms in Arabic lookup 6 subtable" uniFEFC
Substitution2: "'aalt' Access All Alternates in Arabic lookup 0 subtable" uniFEFC
Position2: "Single Positioning lookup 1 per glyph data 1" dx=0 dy=0 dh=-3 dv=0
LCarets2: 1 50
EndChar

StartChar: beh_yehHamzaabove-ar
Encoding: 65912 -1 868
Width: 20
VWidth: 129
GlyphClass: 3
LigCaretCntFixed: 1
Flags: W
LayerCount: 2
Fore
SplineSet
21 0 m 5,0,1
 0 0 0 0 0 21 c 5,2,-1
 10 21 l 5,3,4
 10 10 10 10 21 10 c 13,5,-1
 21 0 l 5,0,1
EndSplineSet
Ligature2: "'dlig' Discretionary Ligatures in Arabic lookup 8 subtable" uniFE91 uniFE8A
LCarets2: 1 626
EndChar

StartChar: uniFDFA
Encoding: 65018 65018 879
Width: 120
VWidth: 108
Flags: W
LayerCount: 2
Fore
SplineSet
23 81 m 1,0,-1
 22 78 l 1,1,2
 22 74 22 74 25 80 c 1,3,-1
 25 81 l 1,4,-1
 27 82 l 1,5,-1
 27 79 l 1,6,-1
 30 80 l 2,7,8
 30 81 30 81 29 82 c 1,9,-1
 31 83 l 1,10,11
 32 82 32 82 32 81 c 2,12,-1
 32 78.5 l 2,13,14
 32 76 32 76 28.5 76 c 2,15,-1
 26 76 l 1,16,17
 25 74 25 74 22.5 74 c 128,-1,18
 20 74 20 74 20 78 c 2,19,-1
 20 80 l 1,20,-1
 23 81 l 1,0,-1
88 68 m 1,21,-1
 88 72 l 1,22,-1
 106 77 l 1,23,-1
 106 74 l 1,24,-1
 88 68 l 1,21,-1
22 3 m 1,25,26
 14.25 -8.625 14.25 -8.625 8 7 c 1,27,28
 5.28571428571 1.57142857143 5.28571428571 1.57142857143 6.14285714286 -2.71428571429 c 2,29,-1
 7.5 -9.5 l 2,30,31
 8 -12 8 -12 9 -14 c 1,32,-1
 6 -15 l 1,33,34
 -0.2 16 -0.2 16 18 16 c 0,35,36
 19 16 19 16 19.5 15 c 2,37,-1
 22 10 l 2,38,39
 24.4 4 24.4 4 35 4 c 2,40,-1
 43.5 4 l 2,41,42
 50 4 50 4 50 10 c 2,43,-1
 50 22 l 1,44,-1
 36.25 22 l 2,45,46
 30 22 30 22 27 25 c 1,47,48
 25.5 22 25.5 22 19.75 22 c 128,-1,49
 14 22 14 22 14 26 c 1,50,51
 3 23.25 3 23.25 3 30.75 c 128,-1,52
 3 38.25 3 38.25 14 41 c 1,53,-1
 14 42 l 1,54,-1
 17 42 l 1,55,-1
 18 30 l 2,56,57
 18 26 18 26 22 26 c 128,-1,58
 26 26 26 26 26 34 c 1,59,-1
 30 34 l 1,60,-1
 29 28 l 2,61,62
 29 26 29 26 36 26 c 2,63,-1
 50 25 l 1,64,-1
 50 32 l 1,65,-1
 53 32 l 1,66,-1
 53 25 l 1,67,-1
 73.5 26 l 2,68,69
 80 26 80 26 80 31 c 2,70,-1
 79 45 l 1,71,72
 72 45 72 45 72 49 c 1,73,74
 69 46 69 46 66 46 c 2,75,-1
 64 46 l 1,76,-1
 64 44 l 2,77,78
 64 35 64 35 50 35 c 128,-1,79
 36 35 36 35 36 40 c 2,80,-1
 36 46 l 1,81,-1
 33 46 l 2,82,83
 28 46 28 46 28 49 c 1,84,85
 20.8571428571 38.2857142857 20.8571428571 38.2857142857 15 50 c 1,86,87
 3 47 3 47 3 55.5 c 128,-1,88
 3 64 3 64 14 64 c 1,89,-1
 14 68 l 1,90,-1
 17 68 l 1,91,-1
 18 54 l 2,92,93
 18 50 18 50 22 50 c 128,-1,94
 26 50 26 50 26 55 c 2,95,-1
 25 72 l 1,96,-1
 29 72 l 1,97,-1
 29 55 l 2,98,99
 29 50 29 50 33.5 50 c 128,-1,100
 38 50 38 50 38 51 c 2,101,-1
 38 55 l 1,102,-1
 37 76 l 1,103,-1
 40 76 l 1,104,-1
 41 55 l 1,105,-1
 41 51.5 l 1,106,107
 32 38 32 38 46.5 38 c 128,-1,108
 61 38 61 38 61 42.75 c 128,-1,109
 61 47.5 61 47.5 55 49 c 1,110,-1
 56 52 l 1,111,112
 60 50 60 50 62 50 c 2,113,-1
 66.5 50 l 2,114,115
 70.6666666667 50 70.6666666667 50 69 55 c 1,116,-1
 68 76 l 1,117,-1
 72 76 l 1,118,-1
 73 55 l 2,119,120
 73 49 73 49 79 49 c 1,121,-1
 79 70 l 1,122,-1
 82 70 l 1,123,-1
 82 49 l 1,124,125
 86.75 49 86.75 49 89 58 c 1,126,-1
 92 57 l 1,127,128
 89.6666666667 50 89.6666666667 50 94 50 c 1,129,130
 102 62 102 62 109 62 c 128,-1,131
 116 62 116 62 116 53.5 c 128,-1,132
 116 45 116 45 104.5 45 c 128,-1,133
 93 45 93 45 89 49 c 1,134,135
 87.5 46 87.5 46 82 46 c 1,136,-1
 83 31 l 2,137,138
 83 25 83 25 92.5 25 c 2,139,-1
 99 25 l 1,140,141
 101 26 101 26 100 26.75 c 128,-1,142
 99 27.5 99 27.5 99 33.75 c 0,143,144
 99 45.5 99 45.5 112 39 c 1,145,-1
 111 36 l 1,146,-1
 107.75 36 l 2,147,148
 94.5 36 94.5 36 100.75 31 c 0,149,150
 107.294117647 25.7647058824 107.294117647 25.7647058824 114 28 c 1,151,-1
 116 25 l 1,152,153
 94 14 94 14 82 26 c 1,154,155
 80.5 23 80.5 23 74 23 c 258,156,-1
 53 22 l 1,157,-1
 54 12 l 2,158,159
 54 4 54 4 58.5 4 c 2,160,-1
 65.5 4 l 2,161,162
 68 4 68 4 69 6 c 2,163,-1
 72 12 l 1,164,-1
 74 11 l 1,165,-1
 74 6 l 2,166,167
 74 4 74 4 77 4 c 2,168,-1
 80 4 l 2,169,170
 82 4 82 4 82 12 c 1,171,-1
 86 12 l 1,172,-1
 85 6 l 1,173,-1
 93 7 l 1,174,-1
 90 16 l 1,175,-1
 94 17 l 1,176,177
 102.5 0 102.5 0 93.75 0 c 0,178,179
 85.375 0 85.375 0 78.6875 0 c 128,-1,180
 72 0 72 0 72 3 c 1,181,182
 69 0 69 0 61.3333333333 0 c 128,-1,183
 53.6666666667 0 53.6666666667 0 52 5 c 1,184,185
 48.6666666667 1.73472347598e-18 48.6666666667 1.73472347598e-18 36.8333333333 8.67361737988e-19 c 128,-1,186
 25 0 25 0 22 3 c 1,25,26
52 76 m 1,187,-1
 52 50 l 1,188,-1
 49 50 l 1,189,-1
 48 76 l 1,190,-1
 52 76 l 1,187,-1
55 61 m 1,191,-1
 55 64 l 1,192,-1
 66 67 l 1,193,-1
 66 64 l 1,194,-1
 55 61 l 1,191,-1
14 61 m 1,195,196
 6 61 6 61 6 58 c 0,197,198
 6 54 6 54 14 54 c 1,199,-1
 14 61 l 1,195,196
98 49 m 1,200,-1
 106.75 49 l 2,201,202
 113 49 113 49 113 53.5 c 0,203,204
 113 65 113 65 106 58 c 128,-1,205
 99 51 99 51 98 49 c 1,200,-1
14 38 m 1,206,207
 6 38 6 38 6 34 c 128,-1,208
 6 30 6 30 10.5 30 c 2,209,-1
 14 30 l 1,210,-1
 14 38 l 1,206,207
60 30 m 1,211,-1
 60 33 l 1,212,-1
 74 36 l 1,213,-1
 74 34 l 1,214,-1
 60 30 l 1,211,-1
58 11 m 1,215,-1
 58 14 l 1,216,-1
 76 20 l 1,217,-1
 76 17 l 1,218,-1
 58 11 l 1,215,-1
38.5 10 m 1,219,220
 36 10 36 10 36 13 c 256,221,222
 36 14 36 14 37 14.5 c 2,223,-1
 38 15 l 1,224,-1
 38.5 10 l 1,219,220
32 10 m 1,225,-1
 32 15 l 1,226,-1
 32 10 l 1,225,-1
111 0 m 1,227,-1
 105 0 l 2,228,229
 101 0 101 0 101 7 c 128,-1,230
 101 14 101 14 107.5 14 c 128,-1,231
 114 14 114 14 114 2.5 c 128,-1,232
 114 -9 114 -9 101 -9 c 2,233,-1
 100 -9 l 1,234,-1
 100 -6 l 1,235,236
 109.5 -6 109.5 -6 111 0 c 1,227,-1
10 10 m 1,237,238
 14 4 14 4 17 4 c 128,-1,239
 20 4 20 4 20 5 c 2,240,-1
 17 13 l 1,241,-1
 10 10 l 1,237,238
110.5 7 m 128,-1,243
 111 11 111 11 107.5 11 c 128,-1,244
 104 11 104 11 104 7 c 128,-1,245
 104 3 104 3 107 3 c 128,-1,242
 110 3 110 3 110.5 7 c 128,-1,243
69 -6 m 1,246,247
 69 -9 69 -9 71.5 -9 c 128,-1,248
 74 -9 74 -9 74 -5 c 1,249,-1
 77 -6 l 1,250,251
 77 -12 77 -12 72.5 -12 c 128,-1,252
 68 -12 68 -12 68 -11 c 2,253,-1
 67 -10 l 1,254,255
 65 -12 65 -12 63 -12 c 2,256,-1
 34 -12 l 1,257,-1
 35 -8 l 1,258,-1
 62 -8 l 2,259,260
 66 -8 66 -8 67 -5 c 1,261,-1
 69 -6 l 1,246,247
EndSplineSet
LCarets2: 14 0 0 0 0 0 0 0 0 0 0 0 0 0 0
Ligature2: "'dlig' Discretionary Ligatures in Arabic lookup 8 subtable" uni0635 uni0644 uni0649 uni0627 uni0644 uni0644 uni0647 uni0639 uni0644 uni064A uni0647 uni0648 uni0633 uni0644 uni0645
EndChar

StartChar: uniFDFB
Encoding: 65019 65019 880
Width: 114
VWidth: 108
Flags: W
LayerCount: 2
Fore
SplineSet
46 0 m 1,0,-1
 43 78 l 1,1,-1
 48 78 l 1,2,-1
 50 0 l 1,3,-1
 46 0 l 1,0,-1
30 -3 m 1,4,5
 30 -21 30 -21 48 -21 c 0,6,7
 71 -21 71 -21 71 11 c 1,8,9
 65 11 65 11 62 14 c 1,10,11
 62 9 62 9 62 4 c 0,12,13
 62 -14 62 -14 48 -14 c 256,14,15
 36 -14 36 -14 36 -2 c 1,16,-1
 40 -2 l 1,17,18
 40 -10 40 -10 49 -10 c 128,-1,19
 58 -10 58 -10 58 6 c 2,20,-1
 56 78 l 1,21,-1
 60 78 l 1,22,-1
 62 22 l 2,23,24
 62 15 62 15 70 15 c 1,25,-1
 68 72 l 1,26,-1
 72 72 l 1,27,-1
 74 15 l 1,28,29
 78 15 78 15 94 19 c 1,30,-1
 86 20 l 2,31,32
 83.5 20 83.5 20 81 20 c 1,33,-1
 80 23 l 1,34,-1
 87.5 24 l 2,35,36
 90 24 90 24 93 24 c 128,-1,37
 96 24 96 24 98 22 c 1,38,-1
 101 23.5 l 2,39,40
 102 24 102 24 104 24 c 1,41,42
 92 30 92 30 87 30 c 2,43,-1
 79 30 l 1,44,-1
 78 33 l 1,45,-1
 86 34 l 1,46,-1
 108 26 l 1,47,-1
 111 26 l 1,48,-1
 111 22 l 1,49,50
 108 22 108 22 102 19 c 1,51,52
 105 16 105 16 110 16 c 2,53,-1
 112 16 l 1,54,-1
 112 12 l 1,55,56
 109 12 109 12 105.5 10 c 128,-1,57
 102 8 102 8 95.875 4.5 c 0,58,59
 84.2666666667 -2.13333333333 84.2666666667 -2.13333333333 74 3 c 1,60,-1
 74 -2.5 l 2,61,62
 74 -25 74 -25 53.2 -25 c 0,63,64
 26 -25 26 -25 26 -4 c 1,65,-1
 30 -3 l 1,4,5
38 11 m 2,66,67
 38 0 38 0 29 0 c 128,-1,68
 20 0 20 0 18 6 c 1,69,70
 4 2.5 4 2.5 4 11.45 c 128,-1,71
 4 20.4 4 20.4 17 23 c 1,72,-1
 17 27 l 1,73,-1
 21 27 l 1,74,-1
 22 10 l 2,75,76
 22 4 22 4 28.375 4 c 128,-1,77
 34.75 4 34.75 4 33 11 c 1,78,-1
 31 72 l 1,79,-1
 35 72 l 1,80,-1
 38 11 l 2,66,67
17 19 m 1,81,82
 8 19 8 19 8 12 c 256,83,84
 8 9 8 9 13.5 9 c 2,85,-1
 18 9 l 1,86,-1
 17 19 l 1,81,82
74 11 m 1,87,88
 74 -10.3333333333 74 -10.3333333333 88 1.83333333333 c 128,-1,89
 102 14 102 14 105 14 c 1,90,-1
 98 18 l 1,91,92
 84 11 84 11 74 11 c 1,87,88
85 -12 m 257,93,-1
 82.5 -6 l 1,94,-1
 85 -6 l 258,95,96
 87 -6 87 -6 87.5 -6 c 1,97,-1
 85 -12 l 257,93,-1
13.5 -12 m 1,98,-1
 11 -6 l 1,99,-1
 13.5 -6 l 2,100,101
 15 -6 15 -6 16 -6 c 1,102,-1
 13.5 -12 l 1,98,-1
EndSplineSet
Ligature2: "'dlig' Discretionary Ligatures in Arabic lookup 8 subtable" uni062C uni0644 uni062C uni0644 uni0627 uni0644 uni0647
EndChar

StartChar: allah-ar.pt1
Encoding: 66003 -1 881
Width: 139
VWidth: 108
Flags: W
LayerCount: 2
Fore
SplineSet
72 7 m 1,0,1
 68.5 0 68.5 0 53 -0 c 128,-1,2
 37.3333333333 0 37.3333333333 0 34 10 c 1,3,4
 16.2608695652 4.08695652174 16.2608695652 4.08695652174 9.63043478261 12.0434782609 c 0,5,6
 -11.4827586207 37.3793103448 -11.4827586207 37.3793103448 31 48 c 1,7,-1
 30 56 l 1,8,-1
 40 56 l 1,9,-1
 41 20 l 2,10,11
 41 8 41 8 53.5 8 c 128,-1,12
 66 8 66 8 66 22 c 2,13,-1
 64 62 l 1,14,-1
 73 62 l 1,15,-1
 74 22 l 2,16,17
 74 8 74 8 86 8 c 128,-1,18
 98 8 98 8 98 12.5 c 2,19,-1
 98 22 l 1,20,-1
 96 78 l 1,21,-1
 105 78 l 1,22,-1
 107 23 l 2,23,24
 107 0 107 0 86 -0 c 0,25,26
 76.6666666667 0 76.6666666667 0 72 7 c 1,0,1
124 0 m 1,27,-1
 122 78 l 1,28,-1
 130 78 l 1,29,-1
 132 0 l 1,30,-1
 124 0 l 1,27,-1
31 39 m 1,31,32
 1.85714285714 34.1428571429 1.85714285714 34.1428571429 14 22 c 0,33,34
 17 19 17 19 32 19 c 1,35,-1
 31 39 l 1,31,32
EndSplineSet
EndChar

StartChar: uni06E5
Encoding: 1765 1765 883
Width: 19
VWidth: 108
Flags: W
LayerCount: 2
Fore
SplineSet
14 10 m 1,0,1
 4 10 4 10 4 17 c 128,-1,2
 4 24 4 24 12 24 c 256,3,4
 19 24 19 24 19 12 c 128,-1,5
 19 0 19 0 5 0 c 2,6,-1
 4 0 l 1,7,-1
 3 4 l 1,8,9
 12.5 4 12.5 4 14 10 c 1,0,1
11 20 m 256,10,11
 5.5 20 5.5 20 8.5 14 c 0,12,13
 10 13 10 13 12 13 c 2,14,-1
 14 14 l 1,15,16
 14 20 14 20 11 20 c 256,10,11
EndSplineSet
EndChar

StartChar: uni25CC
Encoding: 9676 9676 884
Width: 71
VWidth: 108
Flags: W
LayerCount: 2
Fore
SplineSet
36 65 m 1,0,-1
 36.5 58 l 1,1,2
 32 58 32 58 32 62 c 256,3,4
 32 65 32 65 36 65 c 1,0,-1
26.5 62 m 1,5,-1
 24.5 56 l 1,6,7
 21 56 21 56 21 60 c 256,8,9
 21 65.6666666667 21 65.6666666667 26.5 62 c 1,5,-1
50 62 m 1,10,-1
 47.5 56 l 1,11,12
 44 56 44 56 44 60 c 256,13,14
 44 68 44 68 50 62 c 1,10,-1
60 53 m 256,15,16
 60 50 60 50 56.5 50 c 128,-1,17
 53 50 53 50 53 53 c 256,18,19
 53 56 53 56 56.5 56 c 128,-1,20
 60 56 60 56 60 53 c 256,15,16
15 56 m 128,-1,22
 18 56 18 56 18 53 c 256,23,24
 18 50 18 50 15 50 c 128,-1,25
 12 50 12 50 12 53 c 256,26,21
 12 56 12 56 15 56 c 128,-1,22
12 44 m 256,27,28
 12 40 12 40 9 40 c 128,-1,29
 6 40 6 40 6 44 c 256,30,31
 6 47 6 47 9 47 c 128,-1,32
 12 47 12 47 12 44 c 256,27,28
63 47 m 1,33,-1
 63.5 40 l 1,34,35
 60 40 60 40 60 44 c 256,36,37
 60 47 60 47 63 47 c 1,33,-1
4 30 m 1,38,-1
 6.5 36 l 1,39,40
 10 36 10 36 10 32 c 256,41,42
 10 24 10 24 4 30 c 1,38,-1
68 33 m 256,43,44
 68 29 68 29 65 29 c 128,-1,45
 62 29 62 29 62 33 c 256,46,47
 62 36 62 36 65 36 c 128,-1,48
 68 36 68 36 68 33 c 256,43,44
11 24 m 1,49,-1
 9 18 l 1,50,51
 6 18 6 18 6 22 c 256,52,53
 6 29 6 29 11 24 c 1,49,-1
65.5 24 m 2,54,-1
 63.5 18 l 1,55,56
 60 18 60 18 60 22 c 256,57,58
 60 25 60 25 62.5 25 c 128,-1,59
 65 25 65 25 65.5 24 c 2,54,-1
15 16 m 128,-1,61
 18 16 18 16 18 12 c 256,62,63
 18 9 18 9 15 9 c 128,-1,64
 12 9 12 9 12 12 c 256,65,60
 12 16 12 16 15 16 c 128,-1,61
60 12 m 256,66,67
 60 9 60 9 54 9 c 128,-1,68
 48 9 48 9 54 16 c 128,-1,69
 60 23 60 23 60 12 c 256,66,67
28 6 m 256,70,71
 28 2 28 2 24.5 2 c 128,-1,72
 21 2 21 2 21 6 c 256,73,74
 21 9 21 9 24.5 9 c 128,-1,75
 28 9 28 9 28 6 c 256,70,71
44 6 m 256,76,77
 44 9 44 9 47.5 9 c 128,-1,78
 51 9 51 9 51 6 c 256,79,80
 51 2 51 2 47.5 2 c 128,-1,81
 44 2 44 2 44 6 c 256,76,77
32 3 m 256,82,83
 32 14 32 14 38 7 c 128,-1,84
 44 0 44 0 38 0 c 128,-1,85
 32 0 32 0 32 3 c 256,82,83
EndSplineSet
EndChar

StartChar: zero
Encoding: 48 48 885
Width: 62
VWidth: 108
Flags: W
LayerCount: 2
Fore
SplineSet
57 40 m 128,-1,1
 57 0 57 0 31.5 0 c 128,-1,2
 6 0 6 0 6 40 c 128,-1,3
 6 80 6 80 31.5 80 c 128,-1,0
 57 80 57 80 57 40 c 128,-1,1
15 40 m 256,4,5
 15 10 15 10 31 10 c 256,6,7
 47 10 47 10 47 40 c 256,8,9
 47 70 47 70 31 70 c 260,10,11
 15 70 15 70 15 40 c 256,4,5
EndSplineSet
EndChar

StartChar: one
Encoding: 49 49 886
Width: 62
VWidth: 108
Flags: W
LayerCount: 2
Fore
SplineSet
40 0 m 1,0,-1
 30 0 l 1,1,-1
 30 65 l 5,2,-1
 16 53 l 1,3,-1
 10 61 l 1,4,-1
 30 78 l 1,5,-1
 40 78 l 1,6,-1
 40 0 l 1,0,-1
EndSplineSet
EndChar

StartChar: two
Encoding: 50 50 887
Width: 62
VWidth: 108
Flags: W
LayerCount: 2
Fore
SplineSet
30 80 m 0,0,1
 54 80 54 80 54 58.5 c 128,-1,2
 54 37 54 37 24 10 c 1,3,-1
 56 10 l 1,4,-1
 56 0 l 1,5,-1
 10 0 l 1,6,-1
 10 9 l 1,7,8
 44 40 44 40 44 55 c 256,9,10
 44 70 44 70 31 70 c 256,11,12
 22 70 22 70 16 62 c 1,13,-1
 10 70 l 1,14,15
 17 80 17 80 30 80 c 0,0,1
EndSplineSet
EndChar

StartChar: three
Encoding: 51 51 888
Width: 62
VWidth: 108
Flags: W
LayerCount: 2
Fore
SplineSet
54 62 m 128,-1,1
 54 44 54 44 41 40 c 1,2,3
 54 36 54 36 54 22 c 0,4,5
 54 -1 54 -1 25.5 -1 c 0,6,7
 17 -1 17 -1 7 3 c 1,8,-1
 10 12 l 1,9,10
 45 -2 45 -2 45 21.5 c 0,11,12
 45 35 45 35 17 35 c 5,13,-1
 17 45 l 5,14,15
 44 45 44 45 44 58 c 128,-1,16
 44 71 44 71 31.5 71 c 128,-1,17
 19 71 19 71 10 64 c 1,18,-1
 6 72 l 1,19,20
 17 80 17 80 35.5 80 c 128,-1,0
 54 80 54 80 54 62 c 128,-1,1
EndSplineSet
EndChar

StartChar: four
Encoding: 52 52 889
Width: 65
VWidth: 108
Flags: W
LayerCount: 2
Fore
SplineSet
60 20 m 1,0,-1
 50 20 l 1,1,-1
 50 0 l 1,2,-1
 40 0 l 1,3,-1
 40 20 l 1,4,-1
 5 20 l 1,5,-1
 5 30 l 1,6,-1
 40 80 l 1,7,-1
 50 80 l 1,8,-1
 50 30 l 1,9,-1
 60 30 l 1,10,-1
 60 20 l 1,0,-1
40 30 m 1,11,-1
 40 64 l 1,12,13
 17 30 l 1,14,-1
 40 30 l 1,11,-1
EndSplineSet
EndChar

StartChar: five
Encoding: 53 53 890
Width: 62
VWidth: 108
Flags: W
LayerCount: 2
Fore
SplineSet
10 10 m 1,0,1
 30 10 l 2,2,3
 46 10 46 10 46 25 c 132,-1,4
 46 40 46 40 30 40 c 2,5,-1
 10 40 l 1,6,-1
 10 80 l 1,7,-1
 50 80 l 1,8,-1
 50 70 l 1,9,-1
 20 70 l 1,10,-1
 20 50 l 1,11,-1
 30 50 l 2,12,13
 57 50 57 50 57 25 c 132,-1,14
 57 0 57 0 30 0 c 2,15,-1
 10 0 l 1,16,-1
 10 10 l 1,0,1
EndSplineSet
EndChar

StartChar: six
Encoding: 54 54 891
Width: 62
VWidth: 108
Flags: W
LayerCount: 2
Fore
SplineSet
37 80 m 2,0,-1
 50 80 l 1,1,-1
 50 70 l 1,2,3
 41 70 l 2,4,5
 22 70 22 70 22 47 c 5,6,7
 25 50 25 50 35 50 c 0,8,9
 62 50 62 50 62 25 c 128,-1,10
 62 0 62 0 36 0 c 0,11,12
 10 0 10 0 10 40 c 0,13,14
 10 80 10 80 37 80 c 2,0,-1
34.984375 10 m 128,-1,16
 50 10 50 10 50 25 c 128,-1,17
 50 40 50 40 35 40 c 128,-1,18
 20 40 20 40 19.984375 25 c 128,-1,19
 20 10 20 10 34.984375 10 c 128,-1,16
EndSplineSet
EndChar

StartChar: seven
Encoding: 55 55 892
Width: 62
VWidth: 108
Flags: W
LayerCount: 2
Fore
SplineSet
5 70 m 1,0,-1
 5 80 l 1,1,-1
 57 80 l 1,2,-1
 57 70 l 1,3,-1
 25 0 l 1,4,-1
 15 5 l 1,5,-1
 45 70 l 5,6,-1
 5 70 l 1,0,-1
EndSplineSet
EndChar

StartChar: eight
Encoding: 56 56 893
Width: 61
VWidth: 108
Flags: W
LayerCount: 2
Fore
SplineSet
30 80 m 128,-1,1
 53 80 53 80 53 63 c 132,-1,2
 53 46 53 46 39 40 c 1,3,4
 55 33 55 33 55 16.5 c 132,-1,5
 55 0 55 0 30 0 c 128,-1,6
 5 0 5 0 5 16 c 128,-1,7
 5 32 5 32 21 40 c 1,8,9
 7 47 7 47 7 63.5 c 128,-1,0
 7 80 7 80 30 80 c 128,-1,1
29.5 70 m 128,-1,11
 16 70 16 70 16 60.5 c 128,-1,12
 16 51 16 51 30 47 c 1,13,14
 43 51 43 51 43 60.5 c 128,-1,10
 43 70 43 70 29.5 70 c 128,-1,11
30 34 m 1,15,16
 15 28 15 28 15 19 c 128,-1,17
 15 10 15 10 30 10 c 128,-1,18
 45 10 45 10 45 18.5 c 128,-1,19
 45 27 45 27 30 34 c 1,15,16
EndSplineSet
EndChar

StartChar: nine
Encoding: 57 57 894
Width: 62
VWidth: 108
Flags: W
LayerCount: 2
Fore
SplineSet
31 0 m 6,0,-1
 20 0 l 1,1,-1
 20 10 l 1,2,3
 30 10 l 2,4,5
 49 10 49 10 49 33 c 1,6,7
 47 30 47 30 35 30 c 0,8,9
 10 30 10 30 10 55 c 128,-1,10
 10 80 10 80 36 80 c 0,11,12
 62 80 62 80 62 40 c 0,13,14
 62 0 62 0 31 0 c 6,0,-1
35 70 m 128,-1,16
 20 70 20 70 20 54.982421875 c 128,-1,17
 20 40 20 40 35 40 c 128,-1,18
 50 40 50 40 50 55.0185546875 c 128,-1,19
 50 70 50 70 35 70 c 128,-1,16
EndSplineSet
EndChar

StartChar: uni066B
Encoding: 1643 1643 895
Width: 26
VWidth: 108
Flags: W
LayerCount: 2
Fore
SplineSet
12 0 m 1,0,1
 7 0 7 0 7 7 c 128,-1,2
 7 14 7 14 14 14 c 256,3,4
 28 14 28 14 22.5 3 c 2,5,-1
 15.5 -11 l 2,6,7
 14 -14 14 -14 12 -17 c 1,8,-1
 6 -17 l 1,9,-1
 12 0 l 1,0,1
EndSplineSet
EndChar

StartChar: uni066C
Encoding: 1644 1644 896
Width: 26
VWidth: 108
Flags: W
LayerCount: 2
Fore
SplineSet
16 14 m 1,0,1
 21 14 21 14 21 7 c 128,-1,2
 21 0 21 0 13.5 0 c 0,3,4
 -0.5 0 -0.5 0 15 31 c 1,5,-1
 22 31 l 1,6,-1
 16 14 l 1,0,1
EndSplineSet
EndChar

StartChar: uni0660
Encoding: 1632 1632 897
Width: 32
VWidth: 108
Flags: W
LayerCount: 2
Fore
SplineSet
17 23 m 1,0,1
 12 28 l 2,2,3
 10 30 10 30 7 32 c 1,4,-1
 15 40 l 1,5,6
 25 30 l 1,7,-1
 17 23 l 1,0,1
EndSplineSet
EndChar

StartChar: uni0661
Encoding: 1633 1633 898
Width: 30
VWidth: 108
Flags: W
LayerCount: 2
Fore
SplineSet
15 -0 m 1,0,-1
 14 16.5 l 1,1,2
 14 52 14 52 6 72 c 1,3,-1
 14 74 l 1,4,5
 24 44.0000000002 24 44.0000000002 24 1 c 1,6,-1
 15 -0 l 1,0,-1
EndSplineSet
EndChar

StartChar: uni0662
Encoding: 1634 1634 899
Width: 52
VWidth: 108
Flags: W
LayerCount: 2
Fore
SplineSet
14 16.5 m 1,0,1
 14 52 14 52 6 72 c 1,2,-1
 14 74 l 1,3,4
 17 68 17 68 17 62 c 1,5,6
 42 52 42 52 42 74 c 1,7,-1
 50 72 l 1,8,9
 50 46.2 50 46.2 23.5 51.5 c 0,10,11
 21 52 21 52 19 52 c 1,12,13
 20 44 20 44 21 36.5 c 128,-1,14
 22 29 22 29 23 21.5 c 128,-1,15
 24 14 24 14 24 9 c 2,16,-1
 24 1 l 1,17,-1
 15 -0 l 1,18,-1
 14 16.5 l 1,0,1
EndSplineSet
EndChar

StartChar: uni0663
Encoding: 1635 1635 900
Width: 63
VWidth: 108
Flags: W
LayerCount: 2
Fore
SplineSet
56 74 m 1,0,1
 69.5 47 69.5 47 45 47 c 0,2,3
 38 47 38 47 36 51 c 1,4,5
 28.2 43.2 28.2 43.2 24.6 45.6 c 128,-1,6
 21 48 21 48 20 48 c 1,7,8
 24 16 24 16 24 8 c 2,9,-1
 24 1 l 1,10,-1
 15 -0 l 1,11,12
 14 16.5 l 1,13,14
 14 52 14 52 6 72 c 1,15,-1
 14 74 l 1,16,-1
 17 62 l 1,17,-1
 18 60 l 2,18,19
 19.6666666667 55 19.6666666667 55 25 55 c 128,-1,20
 30.3333333333 55 30.3333333333 55 33 71 c 1,21,-1
 41 70 l 1,22,-1
 39 60 l 2,23,24
 39 56 39 56 45.5 56 c 0,25,26
 57 56 57 56 49 72 c 1,27,-1
 56 74 l 1,0,1
EndSplineSet
EndChar

StartChar: uni0664
Encoding: 1636 1636 901
Width: 51
VWidth: 108
Flags: W
LayerCount: 2
Fore
SplineSet
34 36 m 1,0,1
 15 26.5 15 26.5 15 17.25 c 128,-1,2
 15 8 15 8 27.5 8 c 128,-1,3
 40 8 40 8 48 12 c 1,4,-1
 51 4 l 1,5,6
 43 0 43 0 24.5 0 c 128,-1,7
 6 0 6 0 6 13.5 c 128,-1,8
 6 27 6 27 18 36 c 1,9,10
 -14.1052631579 42.4210526316 -14.1052631579 42.4210526316 18 66.5 c 0,11,12
 24 71 24 71 33 74 c 1,13,-1
 36 66 l 1,14,15
 15 58.3636363636 15 58.3636363636 15 47.5818181818 c 128,-1,16
 15 36.8 15 36.8 33 44 c 1,17,-1
 34 36 l 1,0,1
EndSplineSet
EndChar

StartChar: uni0665
Encoding: 1637 1637 902
Width: 57
VWidth: 108
Flags: W
LayerCount: 2
Fore
SplineSet
29 56 m 256,0,1
 51 56 51 56 51 28 c 128,-1,2
 51 0 51 0 29 -0 c 256,3,4
 7 0 7 0 7 28 c 128,-1,5
 7 56 7 56 29 56 c 256,0,1
29 47 m 256,6,7
 16 47 16 47 16 27.5 c 128,-1,8
 16 8 16 8 29 8 c 256,9,10
 42 8 42 8 42 27.5 c 128,-1,11
 42 47 42 47 29 47 c 256,6,7
EndSplineSet
EndChar

StartChar: uni0666
Encoding: 1638 1638 903
Width: 54
VWidth: 108
Flags: W
LayerCount: 2
Fore
SplineSet
23.5 71 m 2,0,-1
 41 72 l 1,1,2
 41 58.5 41 58.5 42.5 45.75 c 2,3,-1
 45 24.5 l 1,4,-1
 48 0 l 1,5,-1
 40 -0 l 1,6,-1
 36 23.5 l 1,7,8
 33 49 33 49 33 63 c 1,9,10
 15.1428571429 59.4285714286 15.1428571429 59.4285714286 2 66 c 1,11,-1
 4 74 l 1,12,13
 10 71 10 71 23.5 71 c 2,0,-1
EndSplineSet
EndChar

StartChar: uni0667
Encoding: 1639 1639 904
Width: 62
VWidth: 108
Flags: W
LayerCount: 2
Fore
SplineSet
27 -1 m 1,0,1
 15.5 45 15.5 45 2 72 c 1,2,-1
 11 75 l 1,3,4
 15 66 15 66 18.5 56 c 128,-1,5
 22 46 22 46 25.5 36 c 128,-1,6
 29 26 29 26 31 17 c 1,7,8
 31.4285714286 19.1428571429 31.4285714286 19.1428571429 52 74 c 1,9,-1
 61 71 l 1,10,-1
 46 34.5 l 2,11,12
 36.5945945946 12.1621621622 36.5945945946 12.1621621622 35 1 c 1,13,-1
 27 -1 l 1,0,1
EndSplineSet
EndChar

StartChar: uni0668
Encoding: 1640 1640 905
Width: 62
VWidth: 108
Flags: W
LayerCount: 2
Fore
SplineSet
32 57 m 1,0,1
 21.5 21.9999999999 21.5 21.9999999999 10 -1 c 1,2,-1
 2 2 l 1,3,4
 16 30 16 30 28 72 c 1,5,-1
 36 74 l 1,6,7
 47.9999999998 26.0000000004 47.9999999998 26.0000000004 60 2 c 1,8,-1
 52 -1 l 1,9,10
 48 8 48 8 44.5 18 c 128,-1,11
 41 28 41 28 37.5 38 c 128,-1,12
 34 48 34 48 32 57 c 1,0,1
EndSplineSet
EndChar

StartChar: uni0669
Encoding: 1641 1641 906
Width: 53
VWidth: 108
Flags: W
LayerCount: 2
Fore
SplineSet
33 36 m 1,0,1
 3 26 3 26 3 50 c 128,-1,2
 3 74 3 74 23 74 c 0,3,4
 35.4285714286 74 35.4285714286 74 39.2142857143 47.5 c 2,5,-1
 44 14 l 2,6,7
 44 7 44 7 46 1 c 1,8,-1
 38 -0 l 1,9,10
 36.6666666667 6.66666666667 36.6666666667 6.66666666667 33 36 c 1,0,1
32 44 m 1,11,12
 29.9 65 29.9 65 20.95 65 c 128,-1,13
 12 65 12 65 12 54.5 c 128,-1,14
 12 44 12 44 23.5 44 c 2,15,-1
 32 44 l 1,11,12
EndSplineSet
EndChar

StartChar: uni06F4
Encoding: 1780 1780 911
Width: 53
VWidth: 108
Flags: W
LayerCount: 2
Fore
SplineSet
33 62 m 256,0,1
 33 54.4545454545 33 54.4545454545 40 55.7272727273 c 128,-1,2
 47 57 47 57 48 58 c 1,3,-1
 50 50 l 1,4,5
 40 46 40 46 32.5 46 c 2,6,-1
 20 46 l 1,7,8
 24 10 24 10 24 0 c 1,9,-1
 15 0 l 1,10,11
 15 36 15 36 6 72 c 1,12,-1
 14 74 l 1,13,14
 18 58 18 58 18 54 c 1,15,16
 22 53 22 53 28 53 c 1,17,18
 24 57 24 57 24 65.5 c 0,19,20
 24 80 24 80 45 73 c 1,21,-1
 44 65 l 1,22,-1
 39 66 l 1,23,24
 33 66 33 66 33 62 c 256,0,1
EndSplineSet
Substitution2: "'locl' Localized Forms in Arabic lookup 3 subtable" four-persian.urdu
Substitution2: "'aalt' Access All Alternates in Arabic lookup 0 subtable" four-persian.urdu
EndChar

StartChar: four-persian.urdu
Encoding: 66005 -1 912
Width: 55
VWidth: 108
Flags: W
LayerCount: 2
Fore
SplineSet
6 56 m 1,0,1
 6 74 6 74 19.25 74 c 128,-1,2
 32.5 74 32.5 74 39 61 c 1,3,4
 41.3333333333 70.3333333333 41.3333333333 70.3333333333 45 74 c 1,5,-1
 52 71 l 1,6,7
 46.8 63.2 46.8 63.2 42 44 c 1,8,-1
 36 43 l 1,9,10
 31.8 64 31.8 64 22.9 64 c 128,-1,11
 14 64 14 64 14 55 c 257,12,-1
 24 1 l 1,13,-1
 16 0 l 1,14,15
 6 56 l 1,0,1
EndSplineSet
EndChar

StartChar: uni06F5
Encoding: 1781 1781 913
Width: 59
VWidth: 108
Flags: W
LayerCount: 2
Fore
SplineSet
28 74 m 1,0,1
 52 47 52 47 52 23.5 c 128,-1,2
 52 0 52 0 41.5 0 c 128,-1,3
 31 0 31 0 29 4 c 1,4,5
 27 0 27 0 17 0 c 128,-1,6
 7 0 7 0 7 18.8333333333 c 128,-1,7
 7 37.6666666667 7 37.6666666667 26 63 c 1,8,9
 24 66 24 66 21 68 c 1,10,-1
 28 74 l 1,0,1
30 56 m 1,11,12
 15 37.2500000002 15 37.2500000002 15 22.6250000001 c 128,-1,13
 15 8 15 8 20.5 8 c 128,-1,14
 26 8 26 8 26 15 c 2,15,-1
 26 16 l 1,16,-1
 32 17 l 1,17,-1
 32 15 l 2,18,19
 32 8 32 8 37 8 c 256,20,21
 49.4 8 49.4 8 43.7 27 c 128,-1,22
 38 46 38 46 30 56 c 1,11,12
EndSplineSet
EndChar

StartChar: uni06F6
Encoding: 1782 1782 914
Width: 46
VWidth: 108
Flags: W
LayerCount: 2
Fore
SplineSet
23 34 m 1,0,1
 7 41.9999999999 7 41.9999999999 7 58 c 0,2,3
 7 82.3333333333 7 82.3333333333 38 72 c 1,4,-1
 36 64 l 1,5,6
 34 65 34 65 32 65 c 2,7,-1
 27 65 l 2,8,9
 7.33333333333 65 7.33333333333 65 18 49 c 0,10,11
 22.5714285714 42.1428571429 22.5714285714 42.1428571429 29 40 c 1,12,13
 34 44 34 44 39 47 c 1,14,-1
 43 40 l 1,15,16
 21.3414634145 26.4634146341 21.3414634145 26.4634146341 10 -0 c 1,17,-1
 3 3 l 1,18,19
 10.3333333333 21.3333333333 10.3333333333 21.3333333333 23 34 c 1,0,1
EndSplineSet
Substitution2: "'locl' Localized Forms in Arabic lookup 3 subtable" uni0666
Substitution2: "'aalt' Access All Alternates in Arabic lookup 0 subtable" uni0666
EndChar

StartChar: seven-persian.urdu
Encoding: 66006 -1 916
Width: 49
VWidth: 108
Flags: W
LayerCount: 2
Fore
SplineSet
28 8 m 1,0,-1
 46 9 l 1,1,-1
 46 1 l 1,2,-1
 28 0 l 2,3,4
 13 0 13 0 3 2 c 1,5,6
 3 32.6666666667 3 32.6666666667 34 74 c 1,7,-1
 41 70 l 1,8,9
 12 31.3333333333 12 31.3333333333 12 9 c 1,10,-1
 28 8 l 1,0,-1
EndSplineSet
EndChar

StartChar: two-persian.small01
Encoding: 66007 -1 919
Width: 23
VWidth: 108
Flags: W
LayerCount: 2
Fore
SplineSet
10 79 m 1,0,-1
 11 66 l 1,1,-1
 6 66 l 1,2,-1
 6 69.5 l 2,3,4
 6 72 6 72 5.5 75.5 c 128,-1,5
 5 79 5 79 4.5 82.5 c 128,-1,6
 4 86 4 86 3 89 c 1,7,-1
 8 90 l 1,8,9
 10 87 10 87 10 84 c 1,10,-1
 12 84 l 2,11,12
 15.6666666667 84 15.6666666667 84 18 91 c 1,13,-1
 22 89 l 1,14,15
 22 73 22 73 10 79 c 1,0,-1
EndSplineSet
EndChar

StartChar: three-persian.small01
Encoding: 66008 -1 920
Width: 28
VWidth: 108
Flags: W
LayerCount: 2
Fore
SplineSet
10 82 m 2,0,-1
 12.5 82 l 2,1,2
 14 82 14 82 14 90 c 1,3,-1
 18 90 l 1,4,-1
 18 84 l 2,5,6
 18 83 18 83 19 82.5 c 2,7,-1
 20 82 l 2,8,9
 21 82 21 82 21.5 82 c 128,-1,10
 22 82 22 82 22 83.5 c 2,11,-1
 22 87 l 2,12,13
 22 89 22 89 21 90 c 1,14,-1
 25 92 l 1,15,16
 32 78 32 78 21 78 c 2,17,-1
 18.5 78 l 2,18,19
 18 78 18 78 17.5 77.5 c 0,20,21
 14 74 14 74 10 78 c 1,22,-1
 11 66 l 1,23,-1
 6 66 l 1,24,-1
 6 69.5 l 2,25,26
 6 72 6 72 5.5 75.5 c 128,-1,27
 5 79 5 79 4.5 82.5 c 128,-1,28
 4 86 4 86 3 89 c 1,29,-1
 8 90 l 1,30,-1
 9 84 l 2,31,32
 9 82 9 82 10 82 c 2,0,-1
EndSplineSet
EndChar

StartChar: four-persian.small01
Encoding: 66009 -1 921
Width: 22
VWidth: 108
Flags: W
LayerCount: 2
Fore
SplineSet
2 84.5 m 1,0,1
 2 91 2 91 7.25 91 c 128,-1,2
 12.5 91 12.5 91 15 86 c 1,3,4
 15 89 15 89 18 92 c 1,5,-1
 22 90 l 1,6,7
 18 84 18 84 18 79 c 1,8,-1
 14 79 l 1,9,10
 14 85 14 85 11 85 c 128,-1,11
 8 85 8 85 8 84.5 c 2,12,-1
 8 83 l 1,13,-1
 9 76 l 2,14,15
 10 71 10 71 10 66 c 1,16,-1
 6 66 l 1,17,-1
 4 76 l 1,18,-1
 2 84.5 l 1,0,1
EndSplineSet
EndChar

StartChar: colon
Encoding: 58 58 922
Width: 29
VWidth: 108
Flags: W
LayerCount: 2
Fore
SplineSet
14 45 m 256,0,1
 8 45 8 45 8 52.5 c 128,-1,2
 8 60 8 60 14 60 c 256,3,4
 22 60 22 60 22 52.5 c 128,-1,5
 22 45 22 45 14 45 c 256,0,1
22 6 m 256,6,7
 22 -2 22 -2 14 -2 c 256,8,9
 8 -2 8 -2 8 6 c 256,10,11
 8 13 8 13 14 13 c 256,12,13
 22 13 22 13 22 6 c 256,6,7
EndSplineSet
EndChar

StartChar: comma
Encoding: 44 44 923
Width: 29
VWidth: 108
Flags: W
LayerCount: 2
Fore
SplineSet
4 -14 m 1,0,1
 7 -5 7 -5 10 13 c 1,2,-1
 20 13 l 1,3,-1
 21 12 l 1,4,-1
 12 -14 l 1,5,-1
 4 -14 l 1,0,1
EndSplineSet
EndChar

StartChar: exclam
Encoding: 33 33 925
Width: 29
VWidth: 108
Flags: W
LayerCount: 2
Fore
SplineSet
18 22 m 1,0,-1
 12 22 l 1,1,-1
 9 78 l 1,2,-1
 20 78 l 1,3,-1
 18 22 l 1,0,-1
22 6 m 256,4,5
 22 -2 22 -2 15 -2 c 128,-1,6
 8 -2 8 -2 8 6 c 256,7,8
 8 13 8 13 15 13 c 128,-1,9
 22 13 22 13 22 6 c 256,4,5
EndSplineSet
EndChar

StartChar: period
Encoding: 46 46 926
Width: 29
VWidth: 108
Flags: W
LayerCount: 2
Fore
SplineSet
22 6 m 256,0,1
 22 -2 22 -2 14 -2 c 256,2,3
 8 -2 8 -2 8 6 c 256,4,5
 8 13 8 13 14 13 c 256,6,7
 22 13 22 13 22 6 c 256,0,1
EndSplineSet
EndChar

StartChar: hyphen
Encoding: 45 45 928
Width: 34
VWidth: 108
Flags: W
LayerCount: 2
Fore
SplineSet
4 25 m 1,0,-1
 4 34 l 1,1,-1
 31 34 l 1,2,-1
 31 25 l 1,3,-1
 4 25 l 1,0,-1
EndSplineSet
EndChar

StartChar: uni2010
Encoding: 8208 8208 929
Width: 34
VWidth: 108
Flags: W
LayerCount: 2
Fore
SplineSet
4 25 m 1,0,-1
 4 34 l 1,1,-1
 31 34 l 1,2,-1
 31 25 l 1,3,-1
 4 25 l 1,0,-1
EndSplineSet
EndChar

StartChar: uni2011
Encoding: 8209 8209 930
Width: 34
VWidth: 108
Flags: W
LayerCount: 2
Fore
SplineSet
4 25 m 1,0,-1
 4 34 l 1,1,-1
 31 34 l 1,2,-1
 31 25 l 1,3,-1
 4 25 l 1,0,-1
EndSplineSet
EndChar

StartChar: guillemotleft
Encoding: 171 171 931
Width: 56
VWidth: 108
Flags: W
LayerCount: 2
Fore
SplineSet
10 25 m 2,0,1
 10 44 l 2,2,3
 10 60 10 60 27 60 c 5,4,-1
 27 52 l 5,5,6
 18 52 18 52 18 44 c 2,7,-1
 18 25 l 2,8,9
 18 17 18 17 27 17 c 1,10,-1
 27 9 l 1,11,12
 10 9 10 9 10 25 c 2,0,1
30 25 m 2,13,-1
 30 44 l 2,14,15
 30 60 30 60 47 60 c 5,16,-1
 47 52 l 5,17,18
 38 52 38 52 38 44 c 2,19,-1
 38 25 l 2,20,21
 38 17 38 17 47 17 c 1,22,-1
 47 9 l 1,23,24
 30 9 30 9 30 25 c 2,13,-1
EndSplineSet
EndChar

StartChar: guillemotright
Encoding: 187 187 932
Width: 55
VWidth: 108
Flags: W
LayerCount: 2
Fore
SplineSet
46 25 m 6,0,1
 46 44 l 6,2,3
 46 60 46 60 29 60 c 5,4,-1
 29 52 l 5,5,6
 38 52 38 52 38 44 c 6,7,-1
 38 25 l 6,8,9
 38 17 38 17 29 17 c 5,10,-1
 29 9 l 5,11,12
 46 9 46 9 46 25 c 6,0,1
26 25 m 6,13,-1
 26 44 l 6,14,15
 26 60 26 60 9 60 c 5,16,-1
 9 52 l 5,17,18
 18 52 18 52 18 44 c 6,19,-1
 18 25 l 6,20,21
 18 17 18 17 9 17 c 5,22,-1
 9 9 l 5,23,24
 26 9 26 9 26 25 c 6,13,-1
EndSplineSet
EndChar

StartChar: uni06DE
Encoding: 1758 1758 934
Width: 108
VWidth: 108
Flags: W
LayerCount: 2
Fore
SplineSet
19 -7 m 1,0,-1
 19 14 l 1,1,-1
 4 28 l 1,2,-1
 19 43 l 1,3,-1
 19 64 l 1,4,-1
 40 64 l 1,5,-1
 54 78 l 1,6,-1
 69 64 l 1,7,-1
 90 64 l 1,8,-1
 90 43 l 1,9,-1
 104 28 l 1,10,-1
 90 14 l 1,11,-1
 90 -7 l 1,12,-1
 69 -7 l 1,13,-1
 54 -22 l 1,14,-1
 40 -7 l 1,15,-1
 19 -7 l 1,0,-1
54 72 m 1,16,-1
 46 64 l 1,17,-1
 62 64 l 1,18,-1
 54 72 l 1,16,-1
24 59 m 1,19,-1
 24 48 l 1,20,-1
 35 59 l 1,21,-1
 24 59 l 1,19,-1
42 -2 m 1,22,-1
 67 -2 l 1,23,-1
 85 16 l 1,24,-1
 85 42 l 1,25,-1
 67 59 l 1,26,-1
 42 59 l 1,27,-1
 24 41 l 1,28,-1
 24 16 l 1,29,-1
 42 -2 l 1,22,-1
85 59 m 1,30,-1
 74 59 l 1,31,-1
 85 48 l 1,32,-1
 85 59 l 1,30,-1
65 29 m 256,33,34
 65 18 65 18 54 18 c 256,35,36
 44 18 44 18 44 29 c 256,37,38
 44 39 44 39 54 39 c 256,39,40
 65 39 65 39 65 29 c 256,33,34
11 29 m 1,41,-1
 19 21 l 1,42,-1
 19 36 l 1,43,-1
 11 29 l 1,41,-1
98 29 m 1,44,-1
 90 36 l 1,45,-1
 90 21 l 1,46,-1
 98 29 l 1,44,-1
54 35 m 256,47,48
 48 35 48 35 48 28.5 c 128,-1,49
 48 22 48 22 54 22 c 256,50,51
 61 22 61 22 61 28.5 c 128,-1,52
 61 35 61 35 54 35 c 256,47,48
24 -2 m 1,53,-1
 35 -2 l 1,54,-1
 24 9 l 1,55,-1
 24 -2 l 1,53,-1
85 -2 m 1,56,-1
 85 9 l 1,57,-1
 74 -2 l 1,58,-1
 85 -2 l 1,56,-1
54 -15 m 1,59,-1
 62 -7 l 1,60,-1
 46 -7 l 1,61,-1
 54 -15 l 1,59,-1
EndSplineSet
EndChar

StartChar: uni06D4
Encoding: 1748 1748 935
Width: 32
VWidth: 108
Flags: W
LayerCount: 2
Fore
SplineSet
30 8 m 1,0,-1
 30 0 l 1,1,-1
 4 0 l 1,2,-1
 6 8 l 1,3,-1
 30 8 l 1,0,-1
EndSplineSet
EndChar

StartChar: uni060C
Encoding: 1548 1548 936
Width: 35
VWidth: 108
Flags: W
LayerCount: 2
Fore
SplineSet
19 10 m 1,0,1
 24 7.5 24 7.5 24 3.75 c 128,-1,2
 24 0 24 0 17 0 c 0,3,4
 4 0 4 0 9.5 11 c 128,-1,5
 15 22 15 22 17 24 c 1,6,-1
 24 21 l 1,7,8
 22 18 22 18 20.5 14.5 c 2,9,-1
 19 10 l 1,0,1
EndSplineSet
EndChar

StartChar: uni061B
Encoding: 1563 1563 937
Width: 37
VWidth: 108
Flags: W
LayerCount: 2
Fore
SplineSet
26 54 m 1,0,1
 22.6666666667 44 22.6666666667 44 20 28 c 1,2,-1
 10 28 l 1,3,-1
 9 29 l 1,4,-1
 18 54 l 1,5,-1
 26 54 l 1,0,1
22 6 m 256,6,7
 22 -2 22 -2 14 -2 c 256,8,9
 8 -2 8 -2 8 6 c 256,10,11
 8 13 8 13 14 13 c 256,12,13
 22 13 22 13 22 6 c 256,6,7
EndSplineSet
EndChar

StartChar: uni061F
Encoding: 1567 1567 938
Width: 47
VWidth: 108
Flags: W
LayerCount: 2
Fore
SplineSet
23 22 m 1,0,-1
 23 24 l 2,1,2
 23 27 23 27 22.5 29.5 c 128,-1,3
 22 32 22 32 20 34 c 128,-1,4
 18 36 18 36 14 39 c 128,-1,5
 10 42 10 42 7 45 c 0,6,7
 1 51 1 51 1 60 c 128,-1,8
 1 69 1 69 7 74 c 128,-1,9
 13 79 13 79 23 79 c 0,10,11
 34 79 34 79 44 74 c 1,12,-1
 41 66 l 1,13,14
 37 68 37 68 33 69 c 0,15,16
 30 70 30 70 24 70 c 128,-1,17
 18 70 18 70 14 67.5 c 0,18,19
 10 66 10 66 10 60 c 128,-1,20
 10 54 10 54 14.5 49.5 c 0,21,22
 18 47 18 47 22 43 c 0,23,24
 26 40 26 40 27.5 37.5 c 0,25,26
 30 33.3333333333 30 33.3333333333 30 25 c 2,27,-1
 30 22 l 1,28,-1
 23 22 l 1,0,-1
26 13 m 0,29,30
 33 13 33 13 33 6 c 0,31,32
 33 2 33 2 31 0 c 128,-1,33
 29 -2 29 -2 26 -2 c 0,34,35
 20 -2 20 -2 20 6 c 0,36,37
 20 10 20 10 22 11.5 c 128,-1,38
 24 13 24 13 26 13 c 0,29,30
EndSplineSet
EndChar

StartChar: uni0600
Encoding: 1536 1536 939
Width: 124
VWidth: 108
Flags: W
LayerCount: 2
Fore
SplineSet
116 4 m 1,0,1
 98.6315789474 0.526315789474 98.6315789474 0.526315789474 108 -6.5 c 1,2,-1
 124 -7 l 5,3,-1
 123 -14 l 1,4,5
 119 -16 119 -16 112.5 -16 c 2,6,-1
 6 -16 l 1,7,-1
 4 -8 l 1,8,-1
 98 -8 l 1,9,10
 98 6.85714285714 98 6.85714285714 116 12 c 1,11,-1
 116 4 l 1,0,1
EndSplineSet
EndChar

StartChar: uni066D
Encoding: 1645 1645 940
Width: 54
VWidth: 108
Flags: W
LayerCount: 2
Fore
SplineSet
1 31 m 1,0,-1
 21 31 l 1,1,-1
 27 50 l 1,2,-1
 28 50 l 1,3,-1
 33 31 l 1,4,-1
 53 31 l 1,5,-1
 53 30 l 1,6,-1
 36 20 l 1,7,-1
 44 0 l 1,8,-1
 27 13 l 1,9,-1
 10 0 l 1,10,-1
 18 20 l 1,11,-1
 1 30 l 1,12,-1
 1 31 l 1,0,-1
EndSplineSet
EndChar

StartChar: uni0601
Encoding: 1537 1537 941
Width: 144
VWidth: 108
Flags: W
LayerCount: 2
Fore
SplineSet
136.5 -6 m 2,0,1
 144 -6 144 -6 144 -14.875 c 128,-1,2
 144 -23.75 144 -23.75 137 -29 c 1,3,-1
 133 -26 l 1,4,5
 145 -14 145 -14 136 -14 c 0,6,7
 103.5 -16 103.5 -16 68.625 -16 c 1,8,-1
 43 -15 l 1,9,10
 40.5 -20 40.5 -20 36 -20 c 1,11,-1
 25 -12 l 1,12,-1
 11.5 -26 l 1,13,14
 2 -26 2 -26 2 -20 c 2,15,-1
 2 -11 l 2,16,17
 2 -8 2 -8 4 -6 c 1,18,-1
 10 -6 l 1,19,-1
 8 -12 l 1,20,21
 8 -18 8 -18 11 -18 c 256,22,23
 13 -18 13 -18 14 -16 c 2,24,-1
 17 -10 l 2,25,26
 24.1428571429 4.28571428571 24.1428571429 4.28571428571 28.5714285714 -2.35714285714 c 2,27,-1
 34 -10.5 l 2,28,29
 40 -19.5 40 -19.5 40 -6 c 1,30,-1
 59.5 -7 l 1,31,-1
 93 -8 l 1,32,-1
 136.5 -6 l 2,0,1
EndSplineSet
EndChar

StartChar: uni0602
Encoding: 1538 1538 942
Width: 117
VWidth: 108
Flags: W
LayerCount: 2
Fore
SplineSet
28 -1 m 1,0,-1
 26 -8 l 1,1,-1
 118 -8 l 1,2,-1
 116 -16 l 1,3,-1
 22 -16 l 2,4,5
 2 -16 2 -16 2 -3 c 128,-1,6
 2 10 2 10 15 10 c 128,-1,7
 28 10 28 10 28 -1 c 1,0,-1
18 -8 m 1,8,9
 28 2 28 2 19 2 c 128,-1,10
 10 2 10 2 10 -3 c 128,-1,11
 10 -8 10 -8 18 -8 c 1,8,9
EndSplineSet
EndChar

StartChar: uni0603
Encoding: 1539 1539 943
Width: 142
VWidth: 108
Flags: W
LayerCount: 2
Fore
SplineSet
111 -8 m 1,0,1
 120.142857143 8 120.142857143 8 130.071428571 8 c 128,-1,2
 140 8 140 8 140 -4.5 c 128,-1,3
 140 -17 140 -17 123.5 -17 c 128,-1,4
 107 -17 107 -17 103 -13 c 1,5,6
 100 -16 100 -16 95 -16 c 2,7,-1
 4 -16 l 1,8,-1
 2 -8 l 1,9,-1
 95 -8 l 2,10,11
 98.4 -8 98.4 -8 102 1 c 1,12,-1
 109 0 l 1,13,-1
 108.5 -6 l 2,14,15
 109 -8 109 -8 111 -8 c 1,0,1
120 -8 m 2,16,17
 132 -8 132 -8 132 -4 c 0,18,19
 132 6 132 6 123 -3 c 2,20,-1
 118 -8 l 1,21,-1
 120 -8 l 2,16,17
EndSplineSet
EndChar

StartChar: uni060D
Encoding: 1549 1549 944
Width: 39
VWidth: 108
Flags: W
LayerCount: 2
Fore
SplineSet
31 12 m 1,0,1
 20 1 20 1 9 -21 c 1,2,-1
 3 -18 l 1,3,4
 14.2105263158 8.15789473684 14.2105263158 8.15789473684 26 17 c 1,5,-1
 31 12 l 1,0,1
EndSplineSet
EndChar

StartChar: uni060E
Encoding: 1550 1550 945
Width: 98
VWidth: 108
Flags: W
LayerCount: 2
Fore
SplineSet
23 36 m 256,0,1
 40 36 40 36 40 17 c 0,2,3
 40 11 40 11 38 7 c 1,4,-1
 48 7 l 2,5,6
 78 7 78 7 94 15 c 1,7,-1
 97 7 l 1,8,-1
 88 2.5 l 2,9,10
 79 -2 79 -2 40.5 -2 c 128,-1,11
 2 -2 2 -2 2 17 c 128,-1,12
 2 36 2 36 23 36 c 256,0,1
21 27 m 0,13,14
 1.2 27 1.2 27 8.8 17.5 c 128,-1,15
 16.4 8 16.4 8 29 8 c 1,16,17
 41.6666666667 27 41.6666666667 27 21 27 c 0,13,14
EndSplineSet
EndChar

StartChar: uni060F
Encoding: 1551 1551 946
Width: 56
VWidth: 108
Flags: W
LayerCount: 2
Fore
SplineSet
47 20 m 1,0,1
 10 12.6 10 12.6 10 -13 c 2,2,-1
 10 -18 l 1,3,4
 24.875 -1 24.875 -1 45.4375 -1 c 128,-1,5
 66 -1 66 -1 66 -22 c 128,-1,6
 66 -43 66 -43 42 -43 c 128,-1,7
 18 -43 18 -43 8 -33 c 1,8,9
 4 -38 4 -38 3 -44 c 1,10,-1
 -4 -40 l 1,11,12
 0 -33 0 -33 4 -26 c 1,13,14
 -7.1 -3.8 -7.1 -3.8 16 16 c 1,15,16
 4 20 4 20 4 37 c 0,17,18
 4 63 4 63 37 52 c 1,19,-1
 35 44 l 1,20,21
 13 49.5 13 49.5 13 34.5 c 0,22,23
 13 26.3333333334 13 26.3333333334 26 22 c 1,24,25
 34 26 34 26 44 28 c 1,26,-1
 47 20 l 1,0,1
14 -26 m 1,27,28
 19.3333333333 -34 19.3333333333 -34 38.1666666667 -34 c 128,-1,29
 57 -34 57 -34 57 -22 c 128,-1,30
 57 -10 57 -10 46 -10 c 0,31,32
 26 -10 26 -10 14 -26 c 1,27,28
EndSplineSet
EndChar

StartChar: uni06DD
Encoding: 1757 1757 948
Width: 148
VWidth: 108
Flags: W
LayerCount: 2
Fore
SplineSet
113 -24 m 1,0,1
 75.5 -52.125 75.5 -52.125 38 -24 c 1,2,3
 36 -26 36 -26 29 -25.5 c 0,4,5
 15.724137931 -24.5517241379 15.724137931 -24.5517241379 23 -10 c 1,6,7
 -5 27.3333333333 -5 27.3333333333 24 66 c 1,8,9
 22 68 22 68 22 74.5 c 128,-1,10
 22 81 22 81 33 81 c 0,11,12
 36 82 36 82 38 80 c 1,13,14
 77.2307692308 109.423076923 77.2307692308 109.423076923 112 79 c 1,15,16
 128 87 128 87 128 70.5 c 0,17,18
 128 67 128 67 126 65 c 1,19,20
 153.75 28 153.75 28 126 -9 c 1,21,22
 128 -11 128 -11 128 -18 c 128,-1,23
 128 -25 128 -25 121.5 -25.5 c 128,-1,24
 115 -26 115 -26 113 -24 c 1,0,1
108 75 m 1,25,26
 75.6417910448 95.223880597 75.6417910448 95.223880597 42 76 c 1,27,-1
 42 73 l 1,28,-1
 107 73 l 1,29,30
 107 74 107 74 108 75 c 1,25,26
117.5 77 m 128,-1,32
 111 77 111 77 111 70.5 c 128,-1,33
 111 64 111 64 117.5 64 c 128,-1,34
 124 64 124 64 124 70.5 c 128,-1,31
 124 77 124 77 117.5 77 c 128,-1,32
32.5 64 m 128,-1,36
 39 64 39 64 39 70.5 c 128,-1,37
 39 77 39 77 32.5 77 c 128,-1,38
 26 77 26 77 26 70.5 c 128,-1,35
 26 64 26 64 32.5 64 c 128,-1,36
108 -12 m 1,39,40
 113 3 113 3 122 -6 c 1,41,42
 144.333333333 29.7333333333 144.333333333 29.7333333333 122 61 c 1,43,44
 110.857142857 55.4285714286 110.857142857 55.4285714286 107 67 c 1,45,-1
 42 67 l 1,46,47
 37.25 52.75 37.25 52.75 28 62 c 1,48,49
 4.27272727273 30.3636363636 4.27272727273 30.3636363636 27 -6 c 1,50,51
 39 0 39 0 42 -12 c 1,52,-1
 108 -12 l 1,39,40
39 -14.5 m 128,-1,54
 39 -8 39 -8 32.5 -8 c 128,-1,55
 26 -8 26 -8 26 -14.5 c 128,-1,56
 26 -21 26 -21 32.5 -21 c 128,-1,53
 39 -21 39 -21 39 -14.5 c 128,-1,54
111 -14.5 m 128,-1,58
 111 -21 111 -21 117.5 -21 c 128,-1,59
 124 -21 124 -21 124 -14.5 c 128,-1,60
 124 -8 124 -8 117.5 -8 c 128,-1,57
 111 -8 111 -8 111 -14.5 c 128,-1,58
42 -19 m 1,61,62
 72 -41.5 72 -41.5 108 -19 c 1,63,-1
 108 -18 l 1,64,-1
 42 -18 l 1,65,-1
 42 -19 l 1,61,62
EndSplineSet
EndChar

StartChar: uniFD3E
Encoding: 64830 64830 949
Width: 46
VWidth: 108
Flags: W
LayerCount: 2
Fore
SplineSet
40 25 m 128,-1,1
 40 16 40 16 35.5 16 c 2,2,-1
 30 16 l 1,3,4
 30 15.5 30 15.5 30 13.25 c 128,-1,5
 30 11 30 11 27 8 c 1,6,7
 31.3225806452 -11.4516129032 31.3225806452 -11.4516129032 41 -25 c 1,8,-1
 32 -25 l 1,9,10
 23.1428571429 -16.1428571429 23.1428571429 -16.1428571429 18 7 c 1,11,12
 12 9 12 9 12 15 c 2,13,-1
 12 16 l 1,14,-1
 11 16 l 2,15,16
 2 16 2 16 2 25 c 128,-1,17
 2 34 2 34 7 34 c 2,18,-1
 13 34 l 1,19,20
 9 38 9 38 18 44 c 1,21,22
 23.1428571429 67.1428571429 23.1428571429 67.1428571429 32 76 c 1,23,-1
 41 76 l 1,24,25
 31.1818181818 62.9090909091 31.1818181818 62.9090909091 27 42 c 1,26,27
 30 40 30 40 30 37.25 c 2,28,-1
 30 34 l 1,29,30
 31 34 31 34 35.5 34 c 128,-1,0
 40 34 40 34 40 25 c 128,-1,1
26 32 m 1,31,32
 30.5 41 30.5 41 22 41 c 256,33,34
 16 41 16 41 16 35 c 2,35,-1
 16 33 l 1,36,37
 22 36 22 36 26 32 c 1,31,32
11 30 m 2,38,39
 6 30 6 30 6 25 c 256,40,41
 6 20 6 20 11 20 c 2,42,-1
 14 20 l 1,43,44
 9 25 9 25 14 30 c 1,45,-1
 11 30 l 2,38,39
21 19 m 256,46,47
 26 19 26 19 26 24.5 c 128,-1,48
 26 30 26 30 21 30 c 256,49,50
 16 30 16 30 16 25 c 256,51,52
 16 19 16 19 21 19 c 256,46,47
37 25 m 256,53,54
 37 30 37 30 33.5 30 c 2,55,-1
 28 30 l 1,56,57
 31.25 26.75 31.25 26.75 29 20 c 1,58,-1
 32 20 l 2,59,60
 37 20 37 20 37 25 c 256,53,54
22 9 m 256,61,62
 35 9 35 9 26 18 c 1,63,64
 22 14 22 14 19 15 c 128,-1,65
 16 16 16 16 16 12.5 c 128,-1,66
 16 9 16 9 22 9 c 256,61,62
EndSplineSet
EndChar

StartChar: uniFD3F
Encoding: 64831 64831 950
Width: 46
VWidth: 108
Flags: W
LayerCount: 2
Fore
SplineSet
44 25 m 128,-1,1
 44 16 44 16 39.5 16 c 2,2,-1
 34 16 l 1,3,4
 34 15.5 34 15.5 34 12.25 c 128,-1,5
 34 9 34 9 29 7 c 1,6,7
 24.65 -12.575 24.65 -12.575 14 -25 c 1,8,-1
 6 -25 l 1,9,10
 16.7234042553 -12.4893617021 16.7234042553 -12.4893617021 16.3617021276 -1.24468085105 c 128,-1,11
 16 10 16 10 16 15 c 2,12,-1
 16 16 l 1,13,-1
 15 16 l 2,14,15
 6 16 6 16 6 25 c 128,-1,16
 6 34 6 34 10.75 34 c 2,17,-1
 16 34 l 1,18,19
 16 34.5 16 34.5 16 36.25 c 128,-1,20
 16 38 16 38 20 42 c 1,21,22
 17 54 17 54 6 76 c 1,23,-1
 14 76 l 1,24,25
 27.1489361702 60.6595744681 27.1489361702 60.6595744681 29.0744680851 51.8297872341 c 2,26,-1
 34 36.25 l 1,27,-1
 34 34 l 1,28,29
 35 34 35 34 39.5 34 c 128,-1,0
 44 34 44 34 44 25 c 128,-1,1
25 41 m 256,30,31
 16.5 41 16.5 41 21 32 c 1,32,33
 24.6666666667 35.6666666667 24.6666666667 35.6666666667 27.8333333333 34.8333333333 c 128,-1,34
 31 34 31 34 31 37.5 c 128,-1,35
 31 41 31 41 25 41 c 256,30,31
15 30 m 2,36,37
 10 30 10 30 10 25 c 256,38,39
 10 20 10 20 15 20 c 2,40,-1
 18 20 l 1,41,42
 16 24 16 24 18 30 c 1,43,-1
 15 30 l 2,36,37
26 30 m 256,44,45
 20 30 20 30 20 24.5 c 128,-1,46
 20 19 20 19 26 19 c 256,47,48
 34 19 34 19 31 25 c 256,49,50
 31 30 31 30 26 30 c 256,44,45
41 25 m 256,51,52
 41 30 41 30 36 30 c 2,53,-1
 33 30 l 1,54,55
 35 26 35 26 33 20 c 1,56,-1
 36 20 l 2,57,58
 41 20 41 20 41 25 c 256,51,52
20 18 m 1,59,60
 19 17 19 17 19.5 13 c 128,-1,61
 20 9 20 9 25 9 c 256,62,63
 38 9 38 9 33 12.5 c 1,64,-1
 23 16.5 l 1,65,-1
 20 18 l 1,59,60
EndSplineSet
EndChar

StartChar: uni200E
Encoding: 8206 8206 953
Width: 0
VWidth: 108
Flags: W
LayerCount: 2
Fore
SplineSet
-2 -3 m 1,0,-1
 -2 70 l 1,1,-1
 16 70 l 1,2,-1
 9 77 l 1,3,-1
 12 79 l 1,4,-1
 24 68 l 1,5,-1
 12 56 l 1,6,-1
 9 58 l 1,7,-1
 16 66 l 1,8,-1
 2 66 l 1,9,-1
 2 -3 l 1,10,-1
 -2 -3 l 1,0,-1
EndSplineSet
EndChar

StartChar: uni200F
Encoding: 8207 8207 954
Width: 0
VWidth: 108
Flags: W
LayerCount: 2
Fore
SplineSet
-2 -3 m 1,0,-1
 -2 66 l 1,1,-1
 -17 66 l 1,2,-1
 -9 58 l 1,3,-1
 -12 56 l 1,4,-1
 -24 68 l 1,5,-1
 -12 79 l 1,6,-1
 -9 77 l 1,7,-1
 -17 70 l 1,8,-1
 2 70 l 1,9,-1
 2 -3 l 1,10,-1
 -2 -3 l 1,0,-1
EndSplineSet
EndChar

StartChar: uni200D
Encoding: 8205 8205 955
Width: 0
VWidth: 108
Flags: W
LayerCount: 2
Fore
SplineSet
-2 -3 m 1,0,-1
 -2 66 l 1,1,-1
 -10 58 l 1,2,-1
 -12 61 l 1,3,-1
 -3 70 l 1,4,-1
 -11 78 l 1,5,-1
 -8 81 l 1,6,-1
 0 73 l 1,7,-1
 8 82 l 1,8,-1
 11 79 l 1,9,-1
 3 70 l 1,10,-1
 13 60 l 1,11,-1
 10 58 l 1,12,-1
 2 65 l 1,13,-1
 2 -3 l 1,14,-1
 -2 -3 l 1,0,-1
EndSplineSet
EndChar

StartChar: uni200C
Encoding: 8204 8204 956
Width: 0
VWidth: 108
Flags: W
LayerCount: 2
Fore
SplineSet
-2 -3 m 1,0,-1
 -2 70 l 1,1,-1
 2 70 l 1,2,-1
 2 -3 l 1,3,-1
 -2 -3 l 1,0,-1
EndSplineSet
EndChar

StartChar: uni0608
Encoding: 1544 1544 957
Width: 100
VWidth: 108
GlyphClass: 2
Flags: W
AnchorPoint: "Anchor-1" 75 36 basechar 0
AnchorPoint: "Anchor-0" 48 -30 basechar 0
LayerCount: 2
Fore
SplineSet
64.5 -28 m 4,0,1
 15 -28 15 -28 16 -4 c 0,2,3
 16 -1 16 -1 18 7 c 1,4,-1
 2 1 l 1,5,-1
 3 10 l 1,6,-1
 22 18 l 1,7,-1
 30 14 l 1,8,9
 16 -17 16 -17 49.5 -18.5 c 128,-1,10
 83 -20 83 -20 83 -0 c 1,11,-1
 75 -0 l 2,12,13
 56 0 56 0 56 12.5 c 0,14,15
 56 36 56 36 74 36 c 128,-1,16
 92 36 92 36 92 8 c 1,17,-1
 102 8 l 2,18,19
 106 8 106 8 106 4 c 256,20,21
 106 0 106 0 101 -0 c 2,22,-1
 92 -0 l 1,23,-1
 88 -11 l 1,24,25
 85 -28 85 -28 64.5 -28 c 4,0,1
65 14.5 m 0,26,27
 65 8 65 8 79 8 c 2,28,-1
 84 8 l 1,29,30
 84 27 84 27 74.5 27 c 128,-1,31
 65 27 65 27 65 14.5 c 0,26,27
EndSplineSet
EndChar

StartChar: uniFDFC
Encoding: 65020 65020 959
Width: 130
VWidth: 108
Flags: W
LayerCount: 2
Fore
SplineSet
110 49 m 1,0,1
 105.4 67.4 105.4 67.4 88 50 c 1,2,-1
 88 22 l 2,3,4
 88 8 88 8 102.5 8 c 128,-1,5
 117 8 117 8 117 13.5 c 128,-1,6
 117 19 117 19 110 40 c 1,7,-1
 120 44 l 1,8,9
 131 0 131 0 101 -0 c 0,10,11
 80 0 80 0 80 18 c 2,12,-1
 79 42 l 1,13,14
 78 41 78 41 77 40 c 2,15,-1
 71 34.5 l 2,16,17
 70 33 70 33 68 32 c 1,18,-1
 68 22 l 2,19,20
 68 -20 68 -20 35.5 -20 c 128,-1,21
 3 -20 3 -20 3 3 c 0,22,23
 3 11.75 3 11.75 10 24 c 1,24,-1
 17 21 l 1,25,26
 3.8 -12 3.8 -12 31.9 -12 c 128,-1,27
 60 -12 60 -12 60 21 c 2,28,-1
 60 24 l 1,29,30
 22 -1.33333333333 22 -1.33333333333 22 28.5 c 0,31,32
 22 40 22 40 34 52 c 1,33,-1
 41 47 l 1,34,35
 32 38 32 38 32 30 c 0,36,37
 32 13.4 32 13.4 59 35 c 1,38,-1
 58 78 l 1,39,-1
 67 78 l 1,40,-1
 68 43 l 1,41,-1
 69.5 44.5 l 1,42,-1
 70 46 l 1,43,-1
 78 53 l 1,44,-1
 77 78 l 1,45,-1
 86 78 l 1,46,-1
 87 60 l 1,47,48
 98.6 71.6 98.6 71.6 107.3 65.8 c 128,-1,49
 116 60 116 60 117 52 c 1,50,-1
 110 49 l 1,0,1
106 -14.5 m 128,-1,52
 106 -20 106 -20 100.5 -20 c 128,-1,53
 95 -20 95 -20 95 -14.5 c 128,-1,54
 95 -9 95 -9 100.5 -9 c 128,-1,51
 106 -9 106 -9 106 -14.5 c 128,-1,52
120 -14.5 m 128,-1,56
 120 -20 120 -20 114.5 -20 c 128,-1,57
 109 -20 109 -20 109 -14.5 c 128,-1,58
 109 -9 109 -9 114.5 -9 c 128,-1,55
 120 -9 120 -9 120 -14.5 c 128,-1,56
EndSplineSet
EndChar

StartChar: uni06E9
Encoding: 1769 1769 960
Width: 66
VWidth: 108
Flags: W
LayerCount: 2
Fore
SplineSet
53 22 m 2,0,1
 53 11 53 11 59 9 c 1,2,-1
 59 0 l 1,3,-1
 7 0 l 1,4,-1
 7 8 l 1,5,6
 14 11.5 14 11.5 14 22 c 2,7,-1
 14 42 l 1,8,9
 -13.8048780488 53.1219512195 -13.8048780488 53.1219512195 14 70.5 c 0,10,11
 22.7058823529 75.9411764706 22.7058823529 75.9411764706 33 78 c 1,12,13
 62 72.2 62 72.2 62 58.9 c 128,-1,14
 62 45.6 62 45.6 53 42 c 1,15,-1
 53 22 l 2,0,1
33 70 m 1,16,17
 13 65 13 65 13 56 c 256,18,19
 13 49.5 13 49.5 20 46 c 1,20,-1
 20 22 l 2,21,22
 20 11 20 11 16 7 c 1,23,-1
 50 7 l 1,24,25
 46 9.66666666667 46 9.66666666667 46 22 c 2,26,-1
 46 46 l 1,27,28
 60.275862069 55.5172413793 60.275862069 55.5172413793 51.4990421456 61.7863984675 c 128,-1,29
 42.7222222222 68.0555555556 42.7222222222 68.0555555556 33 70 c 1,16,17
EndSplineSet
EndChar

StartChar: uni066A
Encoding: 1642 1642 962
Width: 51
VWidth: 108
Flags: W
LayerCount: 2
Fore
SplineSet
12 -3 m 1,0,-1
 6 0 l 1,1,-1
 40 75 l 1,2,-1
 47 72 l 1,3,-1
 12 -3 l 1,0,-1
17 58 m 1,4,-1
 8 66 l 1,5,-1
 16 74 l 1,6,-1
 25 66 l 1,7,-1
 17 58 l 1,4,-1
38 -1 m 1,8,9
 36 2 36 2 34 4 c 128,-1,10
 32 6 32 6 30 8 c 1,11,-1
 37 16 l 1,12,13
 41.5 11.5 41.5 11.5 46 7 c 1,14,-1
 38 -1 l 1,8,9
EndSplineSet
EndChar

StartChar: uni0609
Encoding: 1545 1545 965
Width: 70
VWidth: 108
Flags: W
LayerCount: 2
Fore
SplineSet
12 -3 m 1,0,-1
 6 0 l 1,1,-1
 40 75 l 1,2,-1
 47 72 l 1,3,-1
 12 -3 l 1,0,-1
17 58 m 1,4,-1
 8 66 l 1,5,-1
 16 74 l 1,6,-1
 25 66 l 1,7,-1
 17 58 l 1,4,-1
38 -1 m 1,8,9
 36 2 36 2 34 4 c 128,-1,10
 32 6 32 6 30 8 c 1,11,-1
 37 16 l 1,12,13
 41.5 11.5 41.5 11.5 46 7 c 1,14,-1
 38 -1 l 1,8,9
58 -1 m 1,15,16
 56 2 56 2 50 8 c 1,17,-1
 57 16 l 1,18,19
 61.5 11.5 61.5 11.5 66 7 c 1,20,-1
 58 -1 l 1,15,16
EndSplineSet
EndChar

StartChar: uni060A
Encoding: 1546 1546 966
Width: 90
VWidth: 108
Flags: W
LayerCount: 2
Fore
SplineSet
12 -3 m 1,0,-1
 6 0 l 1,1,-1
 40 75 l 1,2,-1
 47 72 l 1,3,-1
 12 -3 l 1,0,-1
17 58 m 1,4,-1
 8 66 l 1,5,-1
 16 74 l 1,6,-1
 25 66 l 1,7,-1
 17 58 l 1,4,-1
38 -1 m 1,8,9
 36 2 36 2 34 4 c 128,-1,10
 32 6 32 6 30 8 c 1,11,-1
 37 16 l 1,12,13
 41.5 11.5 41.5 11.5 46 7 c 1,14,-1
 38 -1 l 1,8,9
58 -1 m 1,15,16
 56 2 56 2 50 8 c 1,17,-1
 57 16 l 1,18,19
 61.5 11.5 61.5 11.5 66 7 c 1,20,-1
 58 -1 l 1,15,16
78 -1 m 1,21,22
 76 2 76 2 70 8 c 1,23,-1
 77 16 l 1,24,25
 81.5 11.5 81.5 11.5 86 7 c 1,26,-1
 78 -1 l 1,21,22
EndSplineSet
EndChar

StartChar: fourthroot-ar.pt
Encoding: 66010 -1 967
Width: 22
VWidth: 108
Flags: W
LayerCount: 2
Fore
SplineSet
8 82 m 256,0,1
 8 79 8 79 12 81 c 1,2,-1
 13 76 l 1,3,4
 10 74 10 74 9 73 c 2,5,-1
 8 72 l 1,6,7
 8 70 8 70 12 70 c 2,8,-1
 18 71 l 1,9,-1
 18 67 l 1,10,-1
 15 65.5 l 2,11,12
 2 59 2 59 2 66.5 c 128,-1,13
 2 74 2 74 6 78 c 1,14,15
 -2.13333333333 86.1333333333 -2.13333333333 86.1333333333 14 92 c 1,16,-1
 14 86 l 1,17,18
 8 86 8 86 8 82 c 256,0,1
EndSplineSet
EndChar

StartChar: cuberoot_fourthroot-ar.pt
Encoding: 66011 -1 968
Width: 67
VWidth: 108
Flags: W
LayerCount: 2
Fore
SplineSet
66 50 m 1,0,-1
 66 42 l 1,1,-1
 51 42 l 1,2,-1
 30 0 l 1,3,-1
 1 75 l 1,4,-1
 10 75 l 1,5,-1
 31 20 l 1,6,-1
 46 50 l 1,7,-1
 66 50 l 1,0,-1
EndSplineSet
Ligature2: "'dlig' Discretionary Ligatures in Arabic lookup 8 subtable" uni0606 uni0607
EndChar

StartChar: uniFDFD
Encoding: 65021 65021 969
Width: 206
VWidth: 108
Flags: W
LayerCount: 2
Fore
SplineSet
68 66 m 2,0,1
 68 62 68 62 65.5 62 c 2,2,-1
 63 62 l 1,3,4
 62 60 62 60 59.5 60 c 128,-1,5
 57 60 57 60 57 64 c 2,6,-1
 57 66 l 1,7,-1
 59 67 l 1,8,9
 59 65.5 59 65.5 59 63.75 c 128,-1,10
 59 62 59 62 60 63 c 2,11,-1
 61 63.5 l 2,12,13
 62 64 62 64 62 66 c 2,14,-1
 62 67 l 1,15,-1
 64 68 l 1,16,-1
 64 66 l 2,17,18
 64 64 64 64 65.5 64 c 128,-1,19
 67 64 67 64 66 66 c 1,20,-1
 66 68 l 1,21,-1
 68 69 l 1,22,-1
 68 66 l 2,0,1
52 41 m 2,23,24
 52 36 52 36 57 36 c 128,-1,25
 62 36 62 36 62 38 c 2,26,-1
 62 59 l 1,27,-1
 65 59 l 1,28,-1
 66 42 l 2,29,30
 66 36 66 36 70 36 c 128,-1,31
 74 36 74 36 74 42 c 2,32,-1
 74 64 l 1,33,-1
 77 64 l 1,34,-1
 78 42 l 2,35,36
 78 33 78 33 71 33 c 128,-1,37
 64 33 64 33 64 36 c 1,38,39
 62.5 33 62.5 33 56.25 33 c 128,-1,40
 50 33 50 33 50 38 c 1,41,42
 38 35 38 35 38 42.4 c 128,-1,43
 38 49.8 38 49.8 49 52 c 1,44,-1
 49 55 l 1,45,-1
 52 55 l 1,46,-1
 52 41 l 2,23,24
84 34 m 1,47,-1
 84 64 l 1,48,-1
 87 64 l 1,49,-1
 88 34 l 1,50,-1
 84 34 l 1,47,-1
134 56 m 128,-1,52
 134 50 134 50 128.5 50 c 128,-1,53
 123 50 123 50 123 56 c 128,-1,54
 123 62 123 62 128.5 62 c 128,-1,51
 134 62 134 62 134 56 c 128,-1,52
128.5 59 m 1,55,-1
 128 53 l 1,56,-1
 128.5 59 l 1,55,-1
174 36 m 0,57,58
 168 36 168 36 168 40 c 1,59,60
 162.571428571 29.1428571429 162.571428571 29.1428571429 156 39 c 1,61,62
 150.75 28.5 150.75 28.5 145 40 c 1,63,64
 144.666666667 39.3333333333 144.666666667 39.3333333333 136.333333333 37.6666666667 c 0,65,66
 118 34 118 34 115 35 c 0,67,68
 100.666666667 39.7777777778 100.666666667 39.7777777778 99.3333333333 39.8888888889 c 128,-1,69
 98 40 98 40 98 39 c 2,70,-1
 98 31.5 l 1,71,-1
 100 21 l 1,72,-1
 97 20 l 1,73,74
 87.4827586207 43.7931034483 87.4827586207 43.7931034483 97.7413793103 47.8965517241 c 128,-1,75
 108 52 108 52 109 52 c 2,76,-1
 118.5 40 l 1,77,78
 128.25 40 128.25 40 136.125 40 c 128,-1,79
 144 40 144 40 144 48 c 1,80,-1
 148 47 l 1,81,-1
 147 42 l 2,82,83
 147 40 147 40 151.5 40 c 128,-1,84
 156 40 156 40 156 48 c 1,85,-1
 159 48 l 1,86,-1
 158 42 l 2,87,88
 158 40 158 40 162 40 c 128,-1,89
 166 40 166 40 166 43.75 c 2,90,-1
 166 51 l 1,91,-1
 168 51 l 1,92,93
 168 40 168 40 173.5 40 c 0,94,95
 180.666666667 40 180.666666667 40 178 48 c 1,96,-1
 182 49 l 1,97,-1
 182 44 l 2,98,99
 182 37 182 37 174 36 c 0,57,58
49 48 m 1,100,101
 33.5 48 33.5 48 38.75 44.5 c 0,102,103
 47 39 47 39 49 41 c 1,104,-1
 49 48 l 1,100,101
108 48 m 1,105,-1
 102 45 l 1,106,107
 108 36 108 36 112 40 c 1,108,109
 110 44 110 44 108 48 c 1,105,-1
188 36 m 1,110,-1
 197 42 l 1,111,112
 201 42 201 42 201 37.5 c 128,-1,113
 201 33 201 33 195 33 c 2,114,-1
 188 33 l 1,115,-1
 188 36 l 1,110,-1
192 35 m 1,116,-1
 195.5 35 l 1,117,-1
 197.5 39 l 1,118,-1
 197 39 l 2,119,120
 194 39 194 39 192 35 c 1,116,-1
20 22 m 1,121,-1
 20 26 l 1,122,-1
 38 33 l 1,123,-1
 38 30 l 1,124,-1
 20 22 l 1,121,-1
178 32 m 1,125,-1
 178 26 l 1,126,-1
 178 32 l 1,125,-1
151 26 m 1,127,-1
 146 28 l 1,128,129
 144 27 144 27 143 26 c 1,130,-1
 142 28 l 1,131,132
 148 34 148 34 154 28 c 1,133,134
 150 20 150 20 142 20 c 1,135,-1
 142 23 l 1,136,137
 149.5 23 149.5 23 151 26 c 1,127,-1
79 9 m 2,138,139
 79 -5 79 -5 67 1 c 1,140,141
 67 -9 67 -9 54 -9 c 1,142,-1
 54 -6 l 1,143,144
 66.5 -6 66.5 -6 64 4 c 2,145,-1
 62 14 l 1,146,-1
 65 14 l 1,147,-1
 67 6.5 l 2,148,149
 67 3 67 3 71.5 3 c 128,-1,150
 76 3 76 3 76 9 c 2,151,-1
 74 30 l 1,152,-1
 78 30 l 1,153,-1
 79 9 l 2,138,139
85 0 m 1,154,-1
 84 30 l 1,155,-1
 88 30 l 1,156,-1
 89 0 l 1,157,-1
 85 0 l 1,154,-1
39 19 m 1,158,-1
 39 22 l 1,159,-1
 56 30 l 1,160,-1
 56 26 l 1,161,-1
 39 19 l 1,158,-1
198 0 m 1,162,-1
 198 29 l 1,163,-1
 201 29 l 1,164,-1
 202 0 l 1,165,-1
 198 0 l 1,162,-1
166 -6 m 1,166,167
 184 -6 184 -6 174 14 c 1,168,-1
 178 14 l 1,169,170
 179 12 179 12 179 10 c 2,171,-1
 179 7 l 2,172,173
 179 3 179 3 183.5 3 c 128,-1,174
 188 3 188 3 188 9 c 2,175,-1
 188 29 l 1,176,-1
 191 29 l 1,177,-1
 192 9 l 2,178,179
 192 0 192 0 184 -0 c 2,180,-1
 181.5 0 l 2,181,182
 180 0 180 0 180 1 c 1,183,184
 180 -9 180 -9 167 -9 c 1,185,-1
 166 -6 l 1,166,167
124 19 m 1,186,-1
 124 28 l 1,187,-1
 126 28 l 1,188,-1
 126 19 l 1,189,-1
 124 19 l 1,186,-1
102 14 m 1,190,-1
 107 14.5 l 1,191,192
 107 10.5 107 10.5 104.5 11.25 c 128,-1,193
 102 12 102 12 102 14 c 1,190,-1
32 16 m 1,194,195
 32 -5.33333333333 32 -5.33333333333 52 8 c 1,196,197
 49 11 49 11 45.5 11 c 2,198,-1
 40 11 l 1,199,-1
 39 14 l 1,200,201
 41 15 41 15 44.5 15 c 1,202,-1
 58 10 l 1,203,-1
 59 6 l 1,204,-1
 38 -0 l 1,205,206
 32 -0 32 -0 28 0 c 128,-1,207
 24 0 24 0 22 -0.5 c 0,208,209
 12.347826087 -2.91304347826 12.347826087 -2.91304347826 7 6 c 1,210,211
 6 4 6 4 6 2 c 2,212,-1
 6 -5.5 l 1,213,-1
 8 -16 l 1,214,-1
 5 -16 l 1,215,216
 -7.4 15 -7.4 15 17 15 c 0,217,218
 18 15 18 15 18.5 14 c 2,219,-1
 21 9 l 2,220,221
 23 3 23 3 26.5 3 c 128,-1,222
 30 3 30 3 30 7 c 2,223,-1
 28 15 l 1,224,-1
 32 16 l 1,194,195
153.5 15 m 1,225,-1
 168 10 l 1,226,-1
 169 10 l 1,227,-1
 169 6 l 1,228,229
 166 6 166 6 164 5 c 128,-1,230
 162 4 162 4 160 3 c 128,-1,231
 158 2 158 2 155 1 c 0,232,233
 147.2 -1.6 147.2 -1.6 143.6 -1.3 c 0,234,235
 133.454545455 -0.454545454545 133.454545455 -0.454545454545 129 4 c 1,236,237
 126.333333333 3.46944695195e-18 126.333333333 3.46944695195e-18 123.5 0 c 2,238,-1
 121 0 l 2,239,240
 120 0 120 0 119 1 c 1,241,242
 119 -11 119 -11 106 -11 c 0,243,244
 84.6666666667 -11 84.6666666667 -11 96 6 c 1,245,-1
 99 4 l 1,246,247
 93 -8 93 -8 104 -8 c 0,248,249
 119.333333333 -8 119.333333333 -8 113 11 c 1,250,-1
 116 12 l 1,251,-1
 117.5 9 l 2,252,253
 120.5 3 120.5 3 123.5 3 c 1,254,-1
 136.5 15 l 1,255,256
 144 15 144 15 144.5 9 c 0,257,258
 145.181818182 0.818181818182 145.181818182 0.818181818182 155 4.5 c 1,259,-1
 162 8 l 1,260,261
 158 11 158 11 154.5 11 c 2,262,-1
 149 11 l 1,263,-1
 148 14 l 1,264,265
 150 15 150 15 153.5 15 c 1,225,-1
136 12 m 1,266,267
 132.666666667 12 132.666666667 12 132.833333333 8 c 0,268,269
 133.183673469 -0.408163265306 133.183673469 -0.408163265306 140 3 c 1,270,271
 139 5 139 5 138 7 c 128,-1,272
 137 9 137 9 136 12 c 1,266,267
19 4 m 1,273,-1
 16 12 l 1,274,275
 10 12 10 12 10 8 c 0,276,277
 15.5 -3 15.5 -3 19 4 c 1,273,-1
31 -5 m 1,278,-1
 31 -9 l 1,279,-1
 31 -5 l 1,278,-1
36 -5 m 1,280,-1
 36 -9 l 1,281,282
 28 -9 28 -9 35 -5.5 c 2,283,-1
 36 -5 l 1,280,-1
32 -18 m 1,284,-1
 32 -11 l 1,285,-1
 35 -11 l 1,286,-1
 35 -18 l 1,287,-1
 32 -18 l 1,284,-1
EndSplineSet
EndChar

StartChar: uni0605
Encoding: 1541 1541 971
Width: 133
VWidth: 108
Flags: W
LayerCount: 2
Fore
SplineSet
130 70 m 1,0,1
 102 62 102 62 75 62 c 1,2,-1
 19.5 70 l 2,3,4
 15 70 15 70 10 60 c 1,5,-1
 3 62 l 1,6,7
 9.79999999998 79 9.79999999998 79 18.5 79 c 1,8,-1
 78 71 l 1,9,10
 104.105263158 69.3684210526 104.105263158 69.3684210526 127 77 c 1,11,-1
 130 70 l 1,0,1
EndSplineSet
EndChar

StartChar: uni0604
Encoding: 1540 1540 972
Width: 229
VWidth: 108
Flags: W
LayerCount: 2
Fore
SplineSet
205.5 8 m 0,0,1
 225 8 225 8 209 40 c 1,2,-1
 218 44 l 1,3,4
 220 40 220 40 221 36 c 128,-1,5
 222 32 222 32 223 28 c 0,6,7
 230 0 230 0 205 -0 c 0,8,9
 192.5 0 192.5 0 189 7 c 1,10,11
 180.176470588 -10.6470588235 180.176470588 -10.6470588235 169.588235294 -1.82352941176 c 128,-1,12
 159 7 159 7 155.5 9.5 c 0,13,14
 135 24.1428571429 135 24.1428571429 135 8.90476190476 c 128,-1,15
 135 -6.33333333333 135 -6.33333333333 146 -10 c 1,16,-1
 142 -17 l 1,17,18
 140 -16 140 -16 138 -15 c 128,-1,19
 136 -14 136 -14 133.571428572 -12.8571428572 c 0,20,21
 127.5 -10 127.5 -10 93 -10 c 2,22,-1
 76 -10 l 2,23,24
 31.5 -10 31.5 -10 7 -17 c 1,25,-1
 4 -10 l 1,26,27
 60.0000000001 5.99999999999 60.0000000001 5.99999999999 130 -4 c 1,28,29
 116 24 116 24 143.5 24 c 1,30,-1
 176 8 l 1,31,32
 186.7 8 186.7 8 189 31 c 1,33,-1
 197 29 l 1,34,-1
 195 14 l 2,35,36
 195 8 195 8 205.5 8 c 0,0,1
EndSplineSet
EndChar

StartChar: uni0612
Encoding: 1554 1554 975
Width: 0
VWidth: 108
GlyphClass: 4
Flags: W
AnchorPoint: "Anchor-5" 18 88 basemark 0
AnchorPoint: "Anchor-5" 16 50 mark 0
AnchorPoint: "Anchor-3" 16 50 mark 0
AnchorPoint: "Anchor-1" 16 50 mark 0
LayerCount: 2
Fore
SplineSet
15 71 m 1,0,1
 32.5 71 32.5 71 24 88 c 1,2,-1
 30 90 l 1,3,4
 38 66 38 66 18 66 c 0,5,6
 17 66 17 66 16 66 c 2,7,-1
 15 71 l 1,0,1
20 80 m 1,8,9
 6 80 6 80 6 66 c 1,10,-1
 1 66 l 1,11,12
 1 77 1 77 13 83 c 1,13,-1
 3 82 l 1,14,-1
 2 88 l 1,15,-1
 8.75 88 l 1,16,-1
 20 86 l 1,17,-1
 20 80 l 1,8,9
EndSplineSet
EndChar

StartChar: uni0613
Encoding: 1555 1555 976
Width: 0
VWidth: 108
GlyphClass: 4
Flags: W
AnchorPoint: "Anchor-5" 24 92 basemark 0
AnchorPoint: "Anchor-5" 22 50 mark 0
AnchorPoint: "Anchor-3" 22 50 mark 0
AnchorPoint: "Anchor-1" 22 50 mark 0
LayerCount: 2
Fore
SplineSet
12 94 m 256,0,1
 15 94 15 94 15 90.5 c 0,2,3
 15 82 15 82 11.5 85 c 0,4,5
 1 94 1 94 12 94 c 256,0,1
28 70 m 1,6,7
 39 70 39 70 39 77.5 c 128,-1,8
 39 85 39 85 36 88 c 1,9,-1
 42 90 l 1,10,11
 50.3333333333 65 50.3333333333 65 30 65 c 0,12,13
 29 65 29 65 28 65 c 1,14,-1
 28 70 l 1,6,7
4 62 m 1,15,-1
 6 73 l 1,16,-1
 4 83 l 1,17,-1
 9 84 l 1,18,19
 10 82 10 82 10 81 c 128,-1,20
 10 80 10 80 10 79 c 128,-1,21
 10 78 10 78 16.5 83.5 c 0,22,23
 35 99.1538461538 35 99.1538461538 35 81 c 0,24,25
 35 71 35 71 20 71 c 1,26,-1
 11 72 l 1,27,-1
 10 64 l 1,28,-1
 4 62 l 1,15,-1
24 81.5 m 128,-1,30
 19 76 19 76 20 76 c 0,31,32
 29 76 29 76 29 81.5 c 128,-1,29
 29 87 29 87 24 81.5 c 128,-1,30
EndSplineSet
EndChar

StartChar: uni0610
Encoding: 1552 1552 978
Width: 0
VWidth: 108
GlyphClass: 4
Flags: W
AnchorPoint: "Anchor-5" 19 88 basemark 0
AnchorPoint: "Anchor-5" 20 50 mark 0
AnchorPoint: "Anchor-3" 20 50 mark 0
AnchorPoint: "Anchor-1" 20 50 mark 0
LayerCount: 2
Fore
SplineSet
19 71 m 1,0,-1
 10 72 l 1,1,-1
 10 67.5 l 2,2,3
 10 65 10 65 9 64 c 2,4,-1
 4 62 l 1,5,-1
 4 67.5 l 2,6,7
 4 81 4 81 3 83 c 1,8,-1
 8 84 l 1,9,-1
 9.5 81 l 1,10,-1
 11 78 l 1,11,12
 34 101 34 101 34 81 c 0,13,14
 34 71 34 71 19 71 c 1,0,-1
17 76 m 1,15,-1
 23.5 76 l 2,16,17
 29 76 29 76 29 79.5 c 0,18,19
 29 87.8 29 87.8 23.5 82.9 c 128,-1,20
 18 78 18 78 17 76 c 1,15,-1
EndSplineSet
EndChar

StartChar: uni0611
Encoding: 1553 1553 979
Width: 0
VWidth: 108
GlyphClass: 4
Flags: W
AnchorPoint: "Anchor-5" 17 89 basemark 0
AnchorPoint: "Anchor-5" 18 50 mark 0
AnchorPoint: "Anchor-3" 18 50 mark 0
AnchorPoint: "Anchor-1" 18 50 mark 0
LayerCount: 2
Fore
SplineSet
4 62 m 1,0,-1
 5 73.5 l 2,1,2
 5 77 5 77 3 83 c 1,3,-1
 8 84 l 1,4,-1
 10 81 l 1,5,-1
 10 80 l 1,6,7
 11.5 77 11.5 77 15.5 77 c 2,8,-1
 18 77 l 1,9,-1
 17 78 l 2,10,11
 16 79 16 79 16 84 c 0,12,13
 16 92.6666666667 16 92.6666666667 30 88 c 1,14,-1
 29 84 l 1,15,16
 18.3333333333 89.3333333333 18.3333333333 89.3333333333 20.1666666667 83.6666666667 c 1,17,-1
 26 77 l 1,18,19
 29 77 29 77 32 80 c 1,20,-1
 32 74 l 1,21,22
 26 71 26 71 18 71 c 2,23,-1
 10 72 l 1,24,25
 10 70 10 70 10 68 c 128,-1,26
 10 66 10 66 9 64 c 1,27,-1
 4 62 l 1,0,-1
EndSplineSet
EndChar

StartChar: uni0614
Encoding: 1556 1556 980
Width: 0
VWidth: 108
GlyphClass: 4
Flags: W
AnchorPoint: "Anchor-5" 24 77 basemark 0
AnchorPoint: "Anchor-5" 24 51 mark 0
AnchorPoint: "Anchor-3" 24 51 mark 0
AnchorPoint: "Anchor-1" 24 51 mark 0
LayerCount: 2
Fore
SplineSet
35 78 m 1,0,1
 35 72 35 72 38.5 72 c 1,2,-1
 43 79 l 1,3,-1
 48 77 l 1,4,5
 46 67 46 67 39 67 c 128,-1,6
 32 67 32 67 32 70 c 1,7,8
 30.5 67 30.5 67 24 67 c 2,9,-1
 2 67 l 1,10,-1
 3 73 l 1,11,-1
 24 73 l 2,12,13
 30 73 30 73 30 79 c 1,14,-1
 35 78 l 1,0,1
EndSplineSet
EndChar

StartChar: uni0615
Encoding: 1557 1557 981
Width: 0
VWidth: 108
GlyphClass: 4
Flags: W
AnchorPoint: "Anchor-5" 15 90 basemark 0
AnchorPoint: "Anchor-5" 14 50 mark 0
AnchorPoint: "Anchor-3" 14 50 mark 0
AnchorPoint: "Anchor-1" 14 50 mark 0
LayerCount: 2
Fore
SplineSet
12 80 m 1,0,1
 28 88 28 88 28 73 c 0,2,3
 28 64 28 64 14 64 c 1,4,-1
 2 65 l 1,5,-1
 2 70 l 1,6,7
 3 70 3 70 4 70 c 0,8,9
 6 73 6 73 7 75 c 1,10,-1
 7 91 l 1,11,-1
 12 91 l 1,12,-1
 12 80 l 1,0,1
14 70 m 2,13,14
 22 70 22 70 22 73.5 c 0,15,16
 22 83 22 83 16 77.5 c 128,-1,17
 10 72 10 72 10 70 c 1,18,-1
 14 70 l 2,13,14
EndSplineSet
EndChar

StartChar: uni0616
Encoding: 1558 1558 983
Width: 0
VWidth: 108
GlyphClass: 4
Flags: W
AnchorPoint: "Anchor-5" 23 101 basemark 0
AnchorPoint: "Anchor-5" 22 50 mark 0
AnchorPoint: "Anchor-3" 22 50 mark 0
AnchorPoint: "Anchor-1" 22 50 mark 0
LayerCount: 2
Fore
SplineSet
21 80.5 m 1,0,-1
 6.5 74 l 1,1,-1
 6 72 l 1,2,3
 6 63.8181818182 6 63.8181818182 23 66.9090909091 c 128,-1,4
 40 70 40 70 42 71 c 1,5,-1
 41 65 l 1,6,7
 37 63 37 63 18.5 63 c 128,-1,8
 0 63 0 63 0 69.8333333333 c 128,-1,9
 0 76.6666666667 0 76.6666666667 8 78.8333333333 c 128,-1,10
 16 81 16 81 16 84 c 2,11,-1
 15 101 l 1,12,-1
 20 101 l 1,13,-1
 21 84 l 1,14,-1
 21 80.5 l 1,0,-1
26 75 m 1,15,-1
 25 101 l 1,16,-1
 30 101 l 1,17,-1
 31 75 l 1,18,-1
 26 75 l 1,15,-1
EndSplineSet
EndChar

StartChar: uni0617
Encoding: 1559 1559 984
Width: 0
VWidth: 108
GlyphClass: 4
Flags: W
AnchorPoint: "Anchor-5" 9 98 basemark 0
AnchorPoint: "Anchor-5" 10 50 mark 0
AnchorPoint: "Anchor-3" 10 50 mark 0
AnchorPoint: "Anchor-1" 10 50 mark 0
LayerCount: 2
Fore
SplineSet
12 91 m 256,0,1
 8 91 8 91 8 94 c 256,2,3
 8 98 8 98 12 98 c 256,4,5
 15 98 15 98 15 94 c 256,6,7
 15 91 15 91 12 91 c 256,0,1
2 70 m 1,8,9
 16 70 16 70 10 88 c 1,10,-1
 16 90 l 1,11,12
 24.6666666667 64 24.6666666667 64 4 64 c 2,13,-1
 3 64 l 2,14,15
 2 64 2 64 2 65 c 2,16,-1
 2 70 l 1,8,9
EndSplineSet
EndChar

StartChar: uni0618
Encoding: 1560 1560 985
Width: 0
VWidth: 108
GlyphClass: 4
Flags: W
AnchorPoint: "Anchor-5" 13 74 basemark 0
AnchorPoint: "Anchor-5" 14 50 mark 0
AnchorPoint: "Anchor-3" 14 50 mark 0
AnchorPoint: "Anchor-1" 14 50 mark 0
LayerCount: 2
Fore
SplineSet
4 63 m 1,0,-1
 4 69 l 1,1,-1
 22 74 l 1,2,-1
 22 68 l 1,3,-1
 4 63 l 1,0,-1
EndSplineSet
EndChar

StartChar: uni0619
Encoding: 1561 1561 986
Width: 0
VWidth: 108
GlyphClass: 4
Flags: W
AnchorPoint: "Anchor-5" 13 87 basemark 0
AnchorPoint: "Anchor-5" 12 50 mark 0
AnchorPoint: "Anchor-3" 12 50 mark 0
AnchorPoint: "Anchor-1" 12 50 mark 0
LayerCount: 2
Fore
SplineSet
13 88 m 256,0,1
 21 88 21 88 21 80 c 0,2,3
 21 68.25 21 68.25 4 64 c 1,4,-1
 3 69 l 1,5,6
 6 70 6 70 8 70 c 1,7,8
 4 72 4 72 4 80 c 128,-1,9
 4 88 4 88 13 88 c 256,0,1
13 82 m 256,10,11
 10 82 10 82 10 78 c 256,12,13
 10 74 10 74 14 74 c 1,14,15
 22 82 22 82 13 82 c 256,10,11
EndSplineSet
EndChar

StartChar: uniFBB2
Encoding: 64434 64434 988
Width: 0
VWidth: 108
GlyphClass: 4
Flags: W
LayerCount: 2
Fore
SplineSet
8 75 m 132,-1,1
 8 82 8 82 15 82 c 132,-1,2
 22 82 22 82 22 75 c 132,-1,3
 22 68 22 68 15 68 c 132,-1,0
 8 68 8 68 8 75 c 132,-1,1
EndSplineSet
EndChar

StartChar: uniFBB3
Encoding: 64435 64435 989
Width: 16
VWidth: 108
GlyphClass: 4
Flags: W
LayerCount: 2
Fore
SplineSet
8 -15 m 132,-1,1
 8 -8 8 -8 15 -8 c 132,-1,2
 22 -8 22 -8 22 -15 c 132,-1,3
 22 -22 22 -22 15 -22 c 132,-1,0
 8 -22 8 -22 8 -15 c 132,-1,1
EndSplineSet
EndChar

StartChar: uniFBBD
Encoding: 64445 64445 990
Width: 0
VWidth: 108
GlyphClass: 4
Flags: W
AnchorPoint: "Anchor-5" 8 86 basemark 0
AnchorPoint: "Anchor-5" 8 50 mark 0
AnchorPoint: "Anchor-3" 8 50 mark 0
AnchorPoint: "Anchor-1" 8 50 mark 0
LayerCount: 2
Fore
SplineSet
14 81 m 256,0,1
 14 76 14 76 8 76 c 256,2,3
 3 76 3 76 3 81 c 256,4,5
 3 86 3 86 8 86 c 256,6,7
 14 86 14 86 14 81 c 256,0,1
14 67 m 256,8,9
 14 62 14 62 8 62 c 256,10,11
 3 62 3 62 3 67 c 256,12,13
 3 72 3 72 8 72 c 256,14,15
 14 72 14 72 14 67 c 256,8,9
EndSplineSet
EndChar

StartChar: uniFBBE
Encoding: 64446 64446 991
Width: 0
VWidth: 108
GlyphClass: 4
Flags: W
AnchorPoint: "Anchor-4" 8 -34 basemark 0
AnchorPoint: "Anchor-4" 8 0 mark 0
AnchorPoint: "Anchor-2" 8 0 mark 0
AnchorPoint: "Anchor-0" 8 0 mark 0
LayerCount: 2
Fore
SplineSet
14 -15 m 256,0,1
 14 -20 14 -20 8 -20 c 256,2,3
 3 -20 3 -20 3 -15 c 256,4,5
 3 -10 3 -10 8 -10 c 256,6,7
 14 -10 14 -10 14 -15 c 256,0,1
14 -29 m 256,8,9
 14 -34 14 -34 8 -34 c 256,10,11
 3 -34 3 -34 3 -29 c 256,12,13
 3 -24 3 -24 8 -24 c 256,14,15
 14 -24 14 -24 14 -29 c 256,8,9
EndSplineSet
EndChar

StartChar: uniFBB4
Encoding: 64436 64436 992
Width: 0
VWidth: 108
GlyphClass: 4
Flags: W
LayerCount: 2
Fore
SplineSet
18 75 m 128,-1,1
 18 82 18 82 25 82 c 128,-1,2
 32 82 32 82 32 75 c 128,-1,3
 32 68 32 68 25 68 c 128,-1,0
 18 68 18 68 18 75 c 128,-1,1
-2 75 m 128,-1,5
 -2 82 -2 82 5 82 c 128,-1,6
 12 82 12 82 12 75 c 128,-1,7
 12 68 12 68 5 68 c 128,-1,4
 -2 68 -2 68 -2 75 c 128,-1,5
EndSplineSet
EndChar

StartChar: uniFBB5
Encoding: 64437 64437 993
Width: 0
VWidth: 108
GlyphClass: 4
Flags: W
LayerCount: 2
Fore
SplineSet
18 -25 m 132,-1,1
 18 -18 18 -18 25 -18 c 132,-1,2
 32 -18 32 -18 32 -25 c 132,-1,3
 32 -32 32 -32 25 -32 c 132,-1,0
 18 -32 18 -32 18 -25 c 132,-1,1
-2 -25 m 132,-1,5
 -2 -18 -2 -18 5 -18 c 132,-1,6
 12 -18 12 -18 12 -25 c 132,-1,7
 12 -32 12 -32 5 -32 c 132,-1,4
 -2 -32 -2 -32 -2 -25 c 132,-1,5
EndSplineSet
EndChar

StartChar: uniFBB8
Encoding: 64440 64440 994
Width: 0
VWidth: 108
GlyphClass: 4
Flags: W
AnchorPoint: "Anchor-5" 16 84 basemark 0
AnchorPoint: "Anchor-5" 16 50 mark 0
AnchorPoint: "Anchor-3" 16 50 mark 0
AnchorPoint: "Anchor-1" 16 50 mark 0
LayerCount: 2
Fore
SplineSet
14 79 m 256,0,1
 14 74 14 74 8 74 c 256,2,3
 3 74 3 74 3 79 c 256,4,5
 3 84 3 84 8 84 c 256,6,7
 14 84 14 84 14 79 c 256,0,1
28 79 m 256,8,9
 28 74 28 74 23 74 c 256,10,11
 18 74 18 74 18 79 c 256,12,13
 18 84 18 84 23 84 c 256,14,15
 28 84 28 84 28 79 c 256,8,9
21 67 m 256,16,17
 21 62 21 62 16 62 c 256,18,19
 10 62 10 62 10 67 c 256,20,21
 10 72 10 72 16 72 c 256,22,23
 21 72 21 72 21 67 c 256,16,17
EndSplineSet
EndChar

StartChar: uniFBB9
Encoding: 64441 64441 995
Width: 0
VWidth: 108
GlyphClass: 4
Flags: W
LayerCount: 2
Fore
SplineSet
8 -15 m 132,-1,1
 8 -8 8 -8 15 -8 c 132,-1,2
 22 -8 22 -8 22 -15 c 132,-1,3
 22 -22 22 -22 15 -22 c 132,-1,0
 8 -22 8 -22 8 -15 c 132,-1,1
18 -32 m 132,-1,5
 18 -25 18 -25 25 -25 c 132,-1,6
 32 -25 32 -25 32 -32 c 132,-1,7
 32 -39 32 -39 25 -39 c 132,-1,4
 18 -39 18 -39 18 -32 c 132,-1,5
-2 -32 m 132,-1,9
 -2 -25 -2 -25 5 -25 c 132,-1,10
 12 -25 12 -25 12 -32 c 132,-1,11
 12 -39 12 -39 5 -39 c 132,-1,8
 -2 -39 -2 -39 -2 -32 c 132,-1,9
EndSplineSet
EndChar

StartChar: uniFBB6
Encoding: 64438 64438 996
Width: 0
VWidth: 108
GlyphClass: 4
Flags: W
LayerCount: 2
Fore
SplineSet
8 92 m 132,-1,1
 8 99 8 99 15 99 c 132,-1,2
 22 99 22 99 22 92 c 132,-1,3
 22 85 22 85 15 85 c 132,-1,0
 8 85 8 85 8 92 c 132,-1,1
18 75 m 132,-1,5
 18 82 18 82 25 82 c 132,-1,6
 32 82 32 82 32 75 c 132,-1,7
 32 68 32 68 25 68 c 132,-1,4
 18 68 18 68 18 75 c 132,-1,5
-2 75 m 132,-1,9
 -2 82 -2 82 5 82 c 132,-1,10
 12 82 12 82 12 75 c 132,-1,11
 12 68 12 68 5 68 c 132,-1,8
 -2 68 -2 68 -2 75 c 132,-1,9
EndSplineSet
EndChar

StartChar: uniFBB7
Encoding: 64439 64439 997
Width: 0
VWidth: 108
GlyphClass: 4
Flags: W
AnchorPoint: "Anchor-4" 16 -34 mark 0
AnchorPoint: "Anchor-2" 16 -34 mark 0
AnchorPoint: "Anchor-0" 16 -34 mark 0
LayerCount: 2
Fore
SplineSet
8 -32 m 132,-1,1
 8 -25 8 -25 15 -25 c 132,-1,2
 22 -25 22 -25 22 -32 c 132,-1,3
 22 -39 22 -39 15 -39 c 132,-1,0
 8 -39 8 -39 8 -32 c 132,-1,1
18 -15 m 128,-1,5
 18 -8 18 -8 25 -8 c 128,-1,6
 32 -8 32 -8 32 -15 c 128,-1,7
 32 -22 32 -22 25 -22 c 128,-1,4
 18 -22 18 -22 18 -15 c 128,-1,5
-2 -15 m 128,-1,9
 -2 -8 -2 -8 5 -8 c 128,-1,10
 12 -8 12 -8 12 -15 c 128,-1,11
 12 -22 12 -22 5 -22 c 128,-1,8
 -2 -22 -2 -22 -2 -15 c 128,-1,9
EndSplineSet
EndChar

StartChar: uniFBBA
Encoding: 64442 64442 998
Width: 0
VWidth: 108
GlyphClass: 4
Flags: W
AnchorPoint: "Anchor-5" 16 86 basemark 0
AnchorPoint: "Anchor-5" 16 50 mark 0
AnchorPoint: "Anchor-3" 16 50 mark 0
AnchorPoint: "Anchor-1" 16 50 mark 0
LayerCount: 2
Fore
SplineSet
14 80 m 256,0,1
 14 75 14 75 8.5 75 c 128,-1,2
 3 75 3 75 3 80 c 256,3,4
 3 86 3 86 8 86 c 256,5,6
 14 86 14 86 14 80 c 256,0,1
28 80 m 256,7,8
 28 75 28 75 23 75 c 128,-1,9
 18 75 18 75 18 80 c 256,10,11
 18 86 18 86 23 86 c 128,-1,12
 28 86 28 86 28 80 c 256,7,8
14 67 m 256,13,14
 14 62 14 62 8.5 62 c 128,-1,15
 3 62 3 62 3 67 c 256,16,17
 3 72 3 72 8 72 c 256,18,19
 14 72 14 72 14 67 c 256,13,14
28 67 m 256,20,21
 28 62 28 62 23 62 c 128,-1,22
 18 62 18 62 18 67 c 256,23,24
 18 72 18 72 23 72 c 128,-1,25
 28 72 28 72 28 67 c 256,20,21
EndSplineSet
EndChar

StartChar: uniFBBB
Encoding: 64443 64443 999
Width: 0
VWidth: 108
GlyphClass: 4
Flags: W
AnchorPoint: "Anchor-4" 16 -35 basemark 0
AnchorPoint: "Anchor-4" 15 0 mark 0
AnchorPoint: "Anchor-2" 15 0 mark 0
AnchorPoint: "Anchor-0" 15 0 mark 0
LayerCount: 2
Fore
SplineSet
28 -15 m 256,0,1
 28 -20 28 -20 23 -20 c 256,2,3
 18 -20 18 -20 18 -15 c 256,4,5
 18 -10 18 -10 23 -10 c 256,6,7
 28 -10 28 -10 28 -15 c 256,0,1
14 -15 m 256,8,9
 14 -20 14 -20 8 -20 c 256,10,11
 3 -20 3 -20 3 -15 c 256,12,13
 3 -10 3 -10 8 -10 c 256,14,15
 14 -10 14 -10 14 -15 c 256,8,9
28 -29 m 256,16,17
 28 -34 28 -34 23 -34 c 256,18,19
 18 -34 18 -34 18 -29 c 256,20,21
 18 -23 18 -23 23 -23 c 256,22,23
 28 -23 28 -23 28 -29 c 256,16,17
14 -29 m 256,24,25
 14 -34 14 -34 8 -34 c 256,26,27
 3 -34 3 -34 3 -29 c 256,28,29
 3 -23 3 -23 8 -23 c 256,30,31
 14 -23 14 -23 14 -29 c 256,24,25
EndSplineSet
EndChar

StartChar: uni065F
Encoding: 1631 1631 1000
Width: 0
VWidth: 108
GlyphClass: 4
Flags: W
AnchorPoint: "Anchor-4" 18 -32 basemark 0
AnchorPoint: "Anchor-4" 21 0 mark 0
AnchorPoint: "Anchor-2" 21 0 mark 0
AnchorPoint: "Anchor-0" 21 0 mark 0
LayerCount: 2
Fore
SplineSet
16 -32 m 1,0,-1
 7.5 -30 l 2,1,2
 6 -30 6 -30 4 -32 c 1,3,-1
 0 -30 l 1,4,5
 2 -24 2 -24 8.5 -24 c 1,6,7
 16 -26 l 2,8,9
 17 -26 17 -26 18 -26 c 1,10,11
 16 -24 16 -24 14 -22 c 128,-1,12
 12 -20 12 -20 12 -13.5 c 0,13,14
 12 -2.66666666667 12 -2.66666666667 28 -8 c 1,15,-1
 28 -14 l 1,16,-1
 23 -13 l 1,17,18
 17 -13 17 -13 17.5 -17 c 0,19,20
 18.125 -22 18.125 -22 32 -22 c 1,21,-1
 33 -27 l 1,22,-1
 16 -32 l 1,0,-1
EndSplineSet
EndChar

StartChar: uniFBBF
Encoding: 64447 64447 1001
Width: 0
VWidth: 108
GlyphClass: 4
Flags: W
AnchorPoint: "Anchor-5" 13 86 basemark 0
AnchorPoint: "Anchor-5" 12 50 mark 0
AnchorPoint: "Anchor-3" 12 50 mark 0
AnchorPoint: "Anchor-1" 12 50 mark 0
LayerCount: 2
Fore
SplineSet
22 76 m 256,0,1
 22 66 22 66 12.5 66 c 128,-1,2
 3 66 3 66 3 76.5 c 128,-1,3
 3 87 3 87 13 87 c 256,4,5
 22 87 22 87 22 76 c 256,0,1
8 76 m 256,6,7
 8 72 8 72 13 72 c 256,8,9
 17 72 17 72 17 76 c 256,10,11
 17 81 17 81 12.5 81 c 128,-1,12
 8 81 8 81 8 76 c 256,6,7
EndSplineSet
EndChar

StartChar: uni0670
Encoding: 1648 1648 1002
Width: 0
VWidth: 108
GlyphClass: 4
Flags: W
AnchorPoint: "Anchor-5" 8 84 basemark 0
AnchorPoint: "Anchor-5" 8 50 mark 0
AnchorPoint: "Anchor-3" 8 50 mark 0
AnchorPoint: "Anchor-1" 8 50 mark 0
LayerCount: 2
Fore
SplineSet
6 66 m 1,0,-1
 5 84 l 1,1,-1
 11 84 l 1,2,-1
 12 66 l 1,3,-1
 6 66 l 1,0,-1
EndSplineSet
EndChar

StartChar: uni0654
Encoding: 1620 1620 1004
Width: 21
VWidth: 108
GlyphClass: 4
Flags: W
LayerCount: 2
Fore
SplineSet
27 76 m 5,0,-1
 27 70 l 5,1,-1
 0 70 l 5,2,-1
 0 76 l 5,3,-1
 27 76 l 5,0,-1
8 76 m 22,4,5
 6 76 6 76 6 81 c 260,6,7
 6 92 6 92 17 92 c 260,8,9
 24 92 24 92 27 86 c 5,10,-1
 23 83 l 5,11,12
 21 87 21 87 16 87 c 4,13,14
 11 87 11 87 11 81.5 c 132,-1,15
 11 76 11 76 17 76 c 5,16,-1
 8 76 l 22,4,5
EndSplineSet
EndChar

StartChar: uni064C
Encoding: 1612 1612 1014
Width: 0
VWidth: 108
GlyphClass: 4
Flags: W
AnchorPoint: "Anchor-5" 20 88 basemark 0
AnchorPoint: "Anchor-5" 21 50 mark 0
AnchorPoint: "Anchor-3" 21 50 mark 0
AnchorPoint: "Anchor-1" 21 50 mark 0
LayerCount: 2
Fore
SplineSet
26 91 m 256,0,1
 34 91 34 91 34 83 c 0,2,3
 34 66.0833333333 34 66.0833333333 9 64 c 1,4,-1
 8 70 l 1,5,6
 14 76 14 76 10 76 c 128,-1,7
 6 76 6 76 5 75.5 c 2,8,-1
 4 74 l 1,9,-1
 1 78 l 1,10,11
 3 82 3 82 9 82 c 128,-1,12
 15 82 15 82 15 77 c 128,-1,13
 15 72 15 72 13 70 c 1,14,15
 18 71 18 71 22 73 c 1,16,17
 4 91 4 91 26 91 c 256,0,1
28 84.5 m 1,18,-1
 22 82 l 1,19,20
 22 76 22 76 26 76 c 1,21,22
 30.6 80.6 30.6 80.6 28 84.5 c 1,18,-1
EndSplineSet
EndChar

StartChar: uni064E
Encoding: 1614 1614 1016
Width: 0
VWidth: 108
GlyphClass: 4
Flags: W
AnchorPoint: "Anchor-5" 17 69 basemark 0
AnchorPoint: "Anchor-5" 18 50 mark 0
AnchorPoint: "Anchor-3" 18 50 mark 0
AnchorPoint: "Anchor-1" 18 50 mark 0
LayerCount: 2
Fore
SplineSet
4 66 m 1,0,-1
 4 72 l 1,1,-1
 29 79 l 1,2,-1
 29 72 l 1,3,-1
 4 66 l 1,0,-1
EndSplineSet
Substitution2: "'medi' Medial Forms in Arabic lookup 5 subtable" uniFE77
Substitution2: "'aalt' Access All Alternates in Arabic lookup 0 subtable" uniFE77
EndChar

StartChar: uni064F
Encoding: 1615 1615 1017
Width: 0
VWidth: 108
GlyphClass: 4
Flags: W
AnchorPoint: "Anchor-5" 20 89 basemark 0
AnchorPoint: "Anchor-5" 19 50 mark 0
AnchorPoint: "Anchor-3" 19 50 mark 0
AnchorPoint: "Anchor-1" 19 50 mark 0
LayerCount: 2
Fore
SplineSet
16 72 m 1,0,1
 10 76 10 76 10 83 c 128,-1,2
 10 90 10 90 20 90 c 256,3,4
 28 90 28 90 28 81.5 c 0,5,6
 28 63 28 63 3 63 c 1,7,-1
 2 68 l 1,8,9
 12 68 12 68 16 72 c 1,0,1
20 74 m 1,10,11
 30 84 30 84 23 84 c 128,-1,12
 16 84 16 84 16 81.5 c 0,13,14
 16 78 16 78 20 74 c 1,10,11
EndSplineSet
Substitution2: "'medi' Medial Forms in Arabic lookup 5 subtable" uniFE79
Substitution2: "'aalt' Access All Alternates in Arabic lookup 0 subtable" uniFE79
EndChar

StartChar: uni0651
Encoding: 1617 1617 1019
Width: 0
VWidth: 108
GlyphClass: 4
Flags: W
AnchorPoint: "Anchor-5" 17 72 basemark 0
AnchorPoint: "Anchor-5" 18 50 mark 0
AnchorPoint: "Anchor-3" 18 50 mark 0
AnchorPoint: "Anchor-1" 18 50 mark 0
LayerCount: 2
Fore
SplineSet
23 74 m 256,0,1
 26 74 26 74 26 78 c 256,2,3
 26 80 26 80 26 82 c 128,-1,4
 26 84 26 84 25 85 c 1,5,-1
 30 87 l 1,6,7
 39.5 68 39.5 68 24 68 c 0,8,9
 20 68 20 68 18 70 c 1,10,11
 15 64 15 64 9 64 c 128,-1,12
 3 64 3 64 3 72 c 2,13,-1
 3 75.5 l 1,14,15
 4 77 4 77 4 79 c 1,16,-1
 9 80 l 1,17,18
 6.5 70 6.5 70 10.75 70 c 128,-1,19
 15 70 15 70 15 79 c 2,20,-1
 15 82 l 1,21,-1
 20 84 l 1,22,-1
 20 77 l 2,23,24
 20 74 20 74 23 74 c 256,0,1
EndSplineSet
Substitution2: "'medi' Medial Forms in Arabic lookup 5 subtable" uniFE7D
Substitution2: "'aalt' Access All Alternates in Arabic lookup 0 subtable" uniFE7D
EndChar

StartChar: uni0652
Encoding: 1618 1618 1025
Width: 0
VWidth: 108
GlyphClass: 4
Flags: W
AnchorPoint: "Anchor-5" 13 87 basemark 0
AnchorPoint: "Anchor-5" 14 50 mark 0
AnchorPoint: "Anchor-3" 14 50 mark 0
AnchorPoint: "Anchor-1" 14 50 mark 0
LayerCount: 2
Fore
SplineSet
22 77 m 256,0,1
 22 67 22 67 12.5 67 c 128,-1,2
 3 67 3 67 3 77.5 c 128,-1,3
 3 88 3 88 12.5 88 c 128,-1,4
 22 88 22 88 22 77 c 256,0,1
8 77.5 m 128,-1,6
 8 73 8 73 13 73 c 256,7,8
 17 73 17 73 17 77.5 c 128,-1,9
 17 82 17 82 12.5 82 c 128,-1,5
 8 82 8 82 8 77.5 c 128,-1,6
EndSplineSet
Substitution2: "'medi' Medial Forms in Arabic lookup 5 subtable" uniFE7F
Substitution2: "'aalt' Access All Alternates in Arabic lookup 0 subtable" uniFE7F
EndChar

StartChar: uni0653
Encoding: 1619 1619 1026
Width: 0
VWidth: 108
GlyphClass: 4
Flags: W
LayerCount: 2
Fore
SplineSet
-0.5 67.5 m 132,-1,1
 -6 73 -6 73 -12 66 c 5,2,-1
 -15 71 l 5,3,4
 -6 80 -6 80 0 74.5 c 4,5,6
 6 69 6 69 12 75 c 5,7,-1
 15 70 l 5,8,0
 5 62 5 62 -0.5 67.5 c 132,-1,1
EndSplineSet
EndChar

StartChar: uni0658
Encoding: 1624 1624 1027
Width: 0
VWidth: 108
GlyphClass: 4
Flags: W
AnchorPoint: "Anchor-5" 12 78 basemark 0
AnchorPoint: "Anchor-5" 12 50 mark 0
AnchorPoint: "Anchor-3" 12 50 mark 0
AnchorPoint: "Anchor-1" 12 50 mark 0
LayerCount: 2
Fore
SplineSet
22 80 m 1,0,1
 22 64 22 64 14 64 c 0,2,3
 -2 64 -2 64 2 80 c 1,4,-1
 8 78 l 1,5,6
 6.4 70 6.4 70 11.7 70 c 128,-1,7
 17 70 17 70 17 80 c 1,8,-1
 22 80 l 1,0,1
EndSplineSet
EndChar

StartChar: uni0659
Encoding: 1625 1625 1029
Width: 0
VWidth: 108
GlyphClass: 4
Flags: W
AnchorPoint: "Anchor-5" 15 72 basemark 0
AnchorPoint: "Anchor-5" 15 50 mark 0
AnchorPoint: "Anchor-3" 15 50 mark 0
AnchorPoint: "Anchor-1" 15 50 mark 0
LayerCount: 2
Fore
SplineSet
3 69 m 1,0,-1
 3 74 l 1,1,-1
 28 74 l 1,2,-1
 28 69 l 1,3,-1
 3 69 l 1,0,-1
EndSplineSet
EndChar

StartChar: uni065A
Encoding: 1626 1626 1030
Width: 0
VWidth: 108
GlyphClass: 4
Flags: W
AnchorPoint: "Anchor-5" 13 82 basemark 0
AnchorPoint: "Anchor-5" 12 47 mark 0
AnchorPoint: "Anchor-3" 12 47 mark 0
AnchorPoint: "Anchor-1" 12 47 mark 0
LayerCount: 2
Fore
SplineSet
25 81 m 1,0,-1
 16 62 l 1,1,-1
 10 61 l 1,2,-1
 7 67 l 1,3,-1
 0 80 l 1,4,-1
 5 83 l 1,5,-1
 10 73 l 2,6,7
 12 70 12 70 13 68 c 1,8,9
 17 80 17 80 20 83 c 1,10,-1
 25 81 l 1,0,-1
EndSplineSet
EndChar

StartChar: uni065B
Encoding: 1627 1627 1031
Width: 0
VWidth: 108
GlyphClass: 4
Flags: W
AnchorPoint: "Anchor-5" 13 82 basemark 0
AnchorPoint: "Anchor-5" 12 47 mark 0
AnchorPoint: "Anchor-3" 12 47 mark 0
AnchorPoint: "Anchor-1" 12 47 mark 0
LayerCount: 2
Fore
SplineSet
0 62 m 1,0,1
 0 64 0 64 9 82 c 1,2,-1
 15 82 l 1,3,4
 23 66 23 66 25 64 c 1,5,-1
 20 61 l 1,6,7
 15.5 65.5 15.5 65.5 12 76 c 1,8,9
 6.66666666667 60 6.66666666667 60 5 60 c 2,10,-1
 0 62 l 1,0,1
EndSplineSet
EndChar

StartChar: uni065C
Encoding: 1628 1628 1032
Width: 0
VWidth: 108
GlyphClass: 4
Flags: W
AnchorPoint: "Anchor-4" 9 -25 basemark 0
AnchorPoint: "Anchor-4" 9 0 mark 0
AnchorPoint: "Anchor-2" 9 0 mark 0
AnchorPoint: "Anchor-0" 9 0 mark 0
LayerCount: 2
Fore
SplineSet
16 -17 m 256,0,1
 16 -24 16 -24 9 -24 c 256,2,3
 2 -24 2 -24 2 -17 c 256,4,5
 2 -10 2 -10 9 -10 c 256,6,7
 16 -10 16 -10 16 -17 c 256,0,1
EndSplineSet
EndChar

StartChar: uni065E
Encoding: 1630 1630 1034
Width: 0
VWidth: 108
GlyphClass: 4
Flags: W
AnchorPoint: "Anchor-5" 17 88 basemark 0
AnchorPoint: "Anchor-5" 16 50 mark 0
AnchorPoint: "Anchor-3" 16 50 mark 0
AnchorPoint: "Anchor-1" 16 50 mark 0
LayerCount: 2
Fore
SplineSet
4 64 m 1,0,-1
 4 71 l 1,1,-1
 29 89 l 1,2,-1
 29 82 l 1,3,-1
 4 64 l 1,0,-1
16 85 m 256,4,5
 16 81 16 81 11 81 c 256,6,7
 7 81 7 81 7 85 c 128,-1,8
 7 89 7 89 11 89 c 256,9,10
 16 89 16 89 16 85 c 256,4,5
18 68 m 256,11,12
 18 72 18 72 23 72 c 256,13,14
 27 72 27 72 27 68 c 256,15,16
 27 64 27 64 23 64 c 256,17,18
 18 64 18 64 18 68 c 256,11,12
EndSplineSet
EndChar

StartChar: uni06D6
Encoding: 1750 1750 1035
Width: 0
VWidth: 108
GlyphClass: 4
Flags: W
AnchorPoint: "Anchor-5" 25 89 basemark 0
AnchorPoint: "Anchor-5" 22 50 mark 0
AnchorPoint: "Anchor-3" 22 50 mark 0
AnchorPoint: "Anchor-1" 22 50 mark 0
LayerCount: 2
Fore
SplineSet
47 77.5 m 128,-1,1
 47 70 47 70 37 70 c 2,2,-1
 31.5 70 l 2,3,4
 29 70 29 70 27 70.5 c 128,-1,5
 25 71 25 71 24.5 70.5 c 128,-1,6
 24 70 24 70 22 70 c 128,-1,7
 20 70 20 70 19 71 c 128,-1,8
 18 72 18 72 16 71 c 128,-1,9
 14 70 14 70 12.5 70 c 128,-1,10
 11 70 11 70 9.5 70 c 128,-1,11
 8 70 8 70 8 69 c 2,12,-1
 9 68.5 l 2,13,14
 10 68 10 68 13.5 68 c 2,15,-1
 21 68 l 1,16,-1
 21 64 l 1,17,-1
 13 63 l 1,18,19
 3 63 3 63 2 69 c 0,20,21
 2 76 2 76 11.5 76 c 2,22,-1
 13.5 76 l 2,23,24
 14 76 14 76 14 78 c 2,25,-1
 14 92 l 1,26,-1
 19 92 l 1,27,-1
 20 78 l 2,28,29
 20 76 20 76 20.5 76 c 2,30,-1
 22 76 l 2,31,32
 22.5 76 22.5 76 25 81 c 1,33,-1
 29 81 l 1,34,35
 26.5 76 26.5 76 30 76 c 1,36,37
 34.5 85 34.5 85 40.75 85 c 128,-1,0
 47 85 47 85 47 77.5 c 128,-1,1
35 75 m 1,38,39
 42 75 42 75 42 79 c 0,40,41
 42 89 42 89 35 75 c 1,38,39
EndSplineSet
EndChar

StartChar: uni06D7
Encoding: 1751 1751 1036
Width: 0
VWidth: 108
GlyphClass: 4
Flags: W
AnchorPoint: "Anchor-5" 20 92 basemark 0
AnchorPoint: "Anchor-5" 20 50 mark 0
AnchorPoint: "Anchor-3" 20 50 mark 0
AnchorPoint: "Anchor-1" 20 50 mark 0
LayerCount: 2
Fore
SplineSet
25 96 m 257,0,-1
 25 91 l 257,1,2
 24 91 24 91 24 95 c 1,3,-1
 25 96 l 257,0,-1
30 96 m 257,4,5
 33 96 33 96 33 93.5 c 1,6,-1
 28 93 l 257,7,8
 28 94 28 94 29 95 c 2,9,-1
 30 96 l 257,4,5
21 64 m 1,10,-1
 13 63 l 1,11,12
 3 63 3 63 2 69 c 0,13,14
 2 76 2 76 11.5 76 c 2,15,-1
 13.5 76 l 2,16,17
 14 76 14 76 14 78 c 2,18,-1
 14 92 l 1,19,-1
 19 92 l 1,20,-1
 20 78 l 2,21,22
 20 76 20 76 21.75 76 c 2,23,-1
 26.5 76 l 2,24,25
 28 76 28 76 29 78 c 1,26,-1
 26.5 78 l 2,27,28
 22 78 22 78 22 84 c 128,-1,29
 22 90 22 90 28 90 c 128,-1,30
 34 90 34 90 34 80 c 128,-1,31
 34 70 34 70 27 70 c 128,-1,32
 20 70 20 70 19 71 c 128,-1,33
 18 72 18 72 16 71 c 128,-1,34
 14 70 14 70 12.5 70 c 128,-1,35
 11 70 11 70 9.5 70 c 128,-1,36
 8 70 8 70 8 69 c 2,37,-1
 9 68.5 l 2,38,39
 10 68 10 68 13.5 68 c 2,40,-1
 21 68 l 1,41,-1
 21 64 l 1,10,-1
27 84.5 m 2,42,43
 22 82 22 82 28 82 c 2,44,-1
 29 82 l 1,45,46
 29 84 29 84 28.5 84.5 c 2,47,-1
 28 85 l 1,48,-1
 27 84.5 l 2,42,43
EndSplineSet
EndChar

StartChar: uni06D8
Encoding: 1752 1752 1037
Width: 0
VWidth: 108
GlyphClass: 4
Flags: W
AnchorPoint: "Anchor-5" 22 87 basemark 0
AnchorPoint: "Anchor-5" 22 50 mark 0
AnchorPoint: "Anchor-3" 22 50 mark 0
AnchorPoint: "Anchor-1" 22 50 mark 0
LayerCount: 2
Fore
SplineSet
6 74 m 1,0,-1
 27 88 l 257,1,2
 34 88 34 88 34 79 c 256,3,4
 34 65 34 65 19 74 c 1,5,6
 14 69 14 69 7 69 c 1,7,-1
 6 74 l 1,0,-1
27 76 m 1,8,-1
 27 82 l 257,9,10
 26 82 26 82 25 81 c 2,11,-1
 22 78 l 1,12,-1
 25 76.5 l 2,13,14
 26 76 26 76 27 76 c 1,8,-1
EndSplineSet
EndChar

StartChar: uni06E2
Encoding: 1762 1762 1038
Width: 0
VWidth: 108
GlyphClass: 4
Flags: W
AnchorPoint: "Anchor-5" 14 89 basemark 0
AnchorPoint: "Anchor-5" 11 50 mark 0
AnchorPoint: "Anchor-3" 11 50 mark 0
AnchorPoint: "Anchor-1" 11 50 mark 0
LayerCount: 2
Fore
SplineSet
9 71 m 2,0,-1
 10 63 l 1,1,-1
 6 62 l 1,2,3
 -0 80 -0 80 16 80 c 1,4,5
 16 88 16 88 9 81 c 1,6,-1
 5 84 l 1,7,8
 8 90 8 90 15 90 c 0,9,10
 28 90 28 90 21 76 c 2,11,-1
 20 74 l 1,12,13
 9 78.4 9 78.4 9 71 c 2,0,-1
EndSplineSet
EndChar

StartChar: uni06D9
Encoding: 1753 1753 1039
Width: 0
VWidth: 108
GlyphClass: 4
Flags: W
AnchorPoint: "Anchor-5" 10 89 basemark 0
AnchorPoint: "Anchor-5" 11 50 mark 0
AnchorPoint: "Anchor-3" 11 50 mark 0
AnchorPoint: "Anchor-1" 11 50 mark 0
LayerCount: 2
Fore
SplineSet
2 71 m 1,0,1
 15 71 15 71 15 74 c 2,2,-1
 14 90 l 1,3,-1
 20 90 l 1,4,-1
 20 74 l 2,5,6
 20 64.2 20 64.2 2 66 c 1,7,-1
 2 71 l 1,0,1
7 73 m 1,8,-1
 2 87 l 1,9,-1
 8 88 l 1,10,-1
 12 75 l 1,11,-1
 7 73 l 1,8,-1
EndSplineSet
EndChar

StartChar: uni06DA
Encoding: 1754 1754 1040
Width: 0
VWidth: 108
GlyphClass: 4
Flags: W
AnchorPoint: "Anchor-5" 16 94 basemark 0
AnchorPoint: "Anchor-5" 18 50 mark 0
AnchorPoint: "Anchor-3" 18 50 mark 0
AnchorPoint: "Anchor-1" 18 50 mark 0
LayerCount: 2
Fore
SplineSet
17.5 70 m 1,0,-1
 27 72 l 1,1,-1
 28 66 l 1,2,3
 4 54 4 54 4 76 c 0,4,5
 4 86 4 86 16 90 c 1,6,7
 5 90 l 1,8,-1
 5 95 l 1,9,10
 8 96 8 96 10.5 96 c 2,11,-1
 27 92 l 1,12,-1
 28 88 l 1,13,14
 9 88 9 88 9 79 c 128,-1,15
 9 70 9 70 17.5 70 c 1,0,-1
22 77 m 128,-1,17
 22 74 22 74 18.5 74 c 128,-1,18
 15 74 15 74 15 78.1666666667 c 128,-1,19
 15 82.3333333333 15 82.3333333333 18.5 81.1666666667 c 128,-1,16
 22 80 22 80 22 77 c 128,-1,17
EndSplineSet
EndChar

StartChar: uni06DB
Encoding: 1755 1755 1041
Width: 0
VWidth: 108
GlyphClass: 4
Flags: W
AnchorPoint: "Anchor-5" 14 86 basemark 0
AnchorPoint: "Anchor-5" 14 50 mark 0
AnchorPoint: "Anchor-3" 14 50 mark 0
AnchorPoint: "Anchor-1" 14 50 mark 0
LayerCount: 2
Fore
SplineSet
14 86 m 256,0,1
 18 86 18 86 18 81 c 128,-1,2
 18 76 18 76 13 76 c 128,-1,3
 8 76 8 76 8 81 c 128,-1,4
 8 86 8 86 14 86 c 256,0,1
25 70 m 256,5,6
 25 65 25 65 20 65 c 128,-1,7
 15 65 15 65 15 70 c 256,8,9
 15 75 15 75 20 75 c 128,-1,10
 25 75 25 75 25 70 c 256,5,6
12 70 m 256,11,12
 12 65 12 65 7 65 c 128,-1,13
 2 65 2 65 2 70 c 256,14,15
 2 75 2 75 7 75 c 128,-1,16
 12 75 12 75 12 70 c 256,11,12
EndSplineSet
EndChar

StartChar: uni06DC
Encoding: 1756 1756 1042
Width: 0
VWidth: 108
GlyphClass: 4
Flags: W
AnchorPoint: "Anchor-5" 25 86 basemark 0
AnchorPoint: "Anchor-5" 25 50 mark 0
AnchorPoint: "Anchor-3" 25 50 mark 0
AnchorPoint: "Anchor-1" 25 50 mark 0
LayerCount: 2
Fore
SplineSet
25 81 m 2,0,1
 25 78 25 78 27.5 78 c 128,-1,2
 30 78 30 78 30 86 c 1,3,-1
 35 86 l 1,4,-1
 34 80 l 2,5,6
 34 79 34 79 35 78.5 c 2,7,-1
 36 78 l 1,8,9
 42 78 42 78 38.5 85 c 2,10,-1
 37 88 l 1,11,-1
 42 90 l 1,12,13
 47.6666666667 73 47.6666666667 73 40.8333333333 73 c 128,-1,14
 34 73 34 73 32.5 73.5 c 2,15,-1
 28 73 l 1,16,17
 27 74 27 74 25 74 c 1,18,19
 25 64 25 64 13.5 64 c 0,20,21
 -5 64 -5 64 4 82 c 1,22,-1
 9 80 l 1,23,-1
 7 74 l 1,24,25
 7 69 7 69 13.5 69 c 128,-1,26
 20 69 20 69 20 76 c 1,27,-1
 18 85 l 1,28,-1
 24 86 l 1,29,-1
 25 81 l 2,0,1
EndSplineSet
EndChar

StartChar: uni06DF
Encoding: 1759 1759 1043
Width: 0
VWidth: 108
GlyphClass: 4
Flags: W
AnchorPoint: "Anchor-5" 12 86 basemark 0
AnchorPoint: "Anchor-5" 12 50 mark 0
AnchorPoint: "Anchor-3" 12 50 mark 0
AnchorPoint: "Anchor-1" 12 50 mark 0
LayerCount: 2
Fore
SplineSet
22 75.5 m 256,0,1
 22 65 22 65 12 65 c 256,2,3
 2 65 2 65 2 75 c 256,4,5
 2 86 2 86 12 86 c 256,6,7
 22 86 22 86 22 75.5 c 256,0,1
7 75 m 256,8,9
 7 70 7 70 12 70 c 256,10,11
 17 70 17 70 17 75 c 256,12,13
 17 80 17 80 12 80 c 256,14,15
 7 80 7 80 7 75 c 256,8,9
EndSplineSet
EndChar

StartChar: uni06E0
Encoding: 1760 1760 1044
Width: 0
VWidth: 108
GlyphClass: 4
Flags: W
AnchorPoint: "Anchor-5" 12 90 basemark 0
AnchorPoint: "Anchor-5" 12 50 mark 0
AnchorPoint: "Anchor-3" 12 50 mark 0
AnchorPoint: "Anchor-1" 12 50 mark 0
LayerCount: 2
Fore
SplineSet
23 77 m 128,-1,1
 23 64 23 64 12.5 64 c 128,-1,2
 2 64 2 64 2 77 c 128,-1,3
 2 90 2 90 12.5 90 c 128,-1,0
 23 90 23 90 23 77 c 128,-1,1
12 69 m 256,4,5
 17 69 17 69 17 77 c 256,6,7
 17 84 17 84 12.5 84 c 128,-1,8
 8 84 8 84 8 80 c 2,9,-1
 8 73.5 l 2,10,11
 8 69 8 69 12 69 c 256,4,5
EndSplineSet
EndChar

StartChar: uni06E1
Encoding: 1761 1761 1045
Width: 0
VWidth: 108
GlyphClass: 4
Flags: W
AnchorPoint: "Anchor-5" 16 88 basemark 0
AnchorPoint: "Anchor-5" 17 50 mark 0
AnchorPoint: "Anchor-3" 17 50 mark 0
AnchorPoint: "Anchor-1" 17 50 mark 0
LayerCount: 2
Fore
SplineSet
5 84 m 1,0,1
 12.3333333333 98.6666666667 12.3333333333 98.6666666667 29 82 c 1,2,3
 24.6666666667 69 24.6666666667 69 6 69 c 1,4,-1
 5 74 l 1,5,6
 17.3333333333 74 17.3333333333 74 22 81 c 1,7,8
 14.4 84.8 14.4 84.8 8 80 c 1,9,-1
 5 84 l 1,0,1
EndSplineSet
EndChar

StartChar: uni06E4
Encoding: 1764 1764 1047
Width: 0
VWidth: 108
GlyphClass: 4
Flags: W
AnchorPoint: "Anchor-5" 22 76 basemark 0
AnchorPoint: "Anchor-5" 18 50 mark 0
AnchorPoint: "Anchor-3" 18 50 mark 0
AnchorPoint: "Anchor-1" 18 50 mark 0
LayerCount: 2
Fore
SplineSet
0 70 m 1,0,1
 6 79 6 79 14 77 c 2,2,-1
 26 74 l 2,3,4
 34.8 71.8 34.8 71.8 39 76 c 1,5,-1
 42 71 l 1,6,7
 38 67 38 67 32 67 c 257,8,-1
 12 71 l 2,9,10
 8 71 8 71 4 67 c 1,11,-1
 0 70 l 1,0,1
EndSplineSet
EndChar

StartChar: uni06E7
Encoding: 1767 1767 1048
Width: 0
VWidth: 108
GlyphClass: 4
Flags: W
AnchorPoint: "Anchor-5" 21 85 basemark 0
AnchorPoint: "Anchor-5" 20 50 mark 0
AnchorPoint: "Anchor-3" 20 50 mark 0
AnchorPoint: "Anchor-1" 20 50 mark 0
LayerCount: 2
Fore
SplineSet
14 81 m 1,0,-1
 8 73 l 257,1,2
 8 71 8 71 19 71 c 2,3,-1
 32 72 l 1,4,-1
 36 72 l 1,5,-1
 36 67 l 1,6,-1
 18 65 l 1,7,8
 -7 65 -7 65 -0.5 71.5 c 2,9,10
 8 80 l 1,11,-1
 9.5 83 l 2,12,13
 13 90 13 90 17.5 85.5 c 128,-1,14
 22 81 22 81 23 77 c 1,15,-1
 18 75 l 1,16,17
 16 79 16 79 14 81 c 1,0,-1
EndSplineSet
EndChar

StartChar: uni06E8
Encoding: 1768 1768 1049
Width: 0
VWidth: 108
GlyphClass: 4
Flags: W
AnchorPoint: "Anchor-5" 14 94 basemark 0
AnchorPoint: "Anchor-5" 15 50 mark 0
AnchorPoint: "Anchor-3" 15 50 mark 0
AnchorPoint: "Anchor-1" 15 50 mark 0
LayerCount: 2
Fore
SplineSet
18 90 m 256,0,1
 18 87 18 87 14.5 87 c 0,2,3
 6 87 6 87 9 90.5 c 0,4,5
 18 101 18 101 18 90 c 256,0,1
24 87 m 1,6,7
 35.5 64 35.5 64 14.5 64 c 0,8,9
 -4 64 -4 64 5 82 c 1,10,-1
 10 80 l 1,11,-1
 9 74 l 2,12,13
 9 70 9 70 14 70 c 256,14,15
 25.6 70 25.6 70 20 84 c 1,16,-1
 24 87 l 1,6,7
EndSplineSet
EndChar

StartChar: uni06EB
Encoding: 1771 1771 1051
Width: 0
VWidth: 108
GlyphClass: 4
Flags: W
AnchorPoint: "Anchor-5" 14 89 basemark 0
AnchorPoint: "Anchor-5" 14 50 mark 0
AnchorPoint: "Anchor-3" 14 50 mark 0
AnchorPoint: "Anchor-1" 14 50 mark 0
LayerCount: 2
Fore
SplineSet
14 64 m 1,0,-1
 2 76 l 1,1,-1
 14 89 l 1,2,-1
 26 76 l 1,3,-1
 14 64 l 1,0,-1
14 72 m 1,4,-1
 18 76 l 1,5,-1
 14 81 l 1,6,-1
 10 76 l 1,7,-1
 14 72 l 1,4,-1
EndSplineSet
EndChar

StartChar: uni06EC
Encoding: 1772 1772 1052
Width: 0
VWidth: 108
GlyphClass: 4
Flags: W
AnchorPoint: "Anchor-5" 9 83 basemark 0
AnchorPoint: "Anchor-5" 9 50 mark 0
AnchorPoint: "Anchor-3" 9 50 mark 0
AnchorPoint: "Anchor-1" 9 50 mark 0
LayerCount: 2
Fore
SplineSet
16 75 m 256,0,1
 16 68 16 68 9 68 c 256,2,3
 2 68 2 68 2 75 c 256,4,5
 2 82 2 82 9 82 c 256,6,7
 16 82 16 82 16 75 c 256,0,1
EndSplineSet
EndChar

StartChar: uni08E4
Encoding: 2276 2276 1054
Width: 0
VWidth: 108
GlyphClass: 4
Flags: W
AnchorPoint: "Anchor-5" 17 78 basemark 0
AnchorPoint: "Anchor-5" 20 50 mark 0
AnchorPoint: "Anchor-3" 20 50 mark 0
AnchorPoint: "Anchor-1" 20 50 mark 0
LayerCount: 2
Fore
SplineSet
7 55 m 1,0,1
 -6.01514803844 74 -6.01514803844 74 27 74 c 260,2,-1
 24 80 l 1,3,-1
 28 83 l 1,4,5
 37.5179822444 69.0328130128 37.5179822444 69.0328130128 31.5 68.5 c 0,6,7
 29 68 29 68 13 66 c 0,8,9
 6 65 6 65 9 61 c 2,10,-1
 12 57 l 1,11,-1
 7 55 l 1,0,1
EndSplineSet
EndChar

StartChar: uni08E5
Encoding: 2277 2277 1055
Width: 0
VWidth: 108
GlyphClass: 4
Flags: W
AnchorPoint: "Anchor-5" 20 86 basemark 0
AnchorPoint: "Anchor-5" 20 50 mark 0
AnchorPoint: "Anchor-3" 20 50 mark 0
AnchorPoint: "Anchor-1" 20 50 mark 0
LayerCount: 2
Fore
SplineSet
26 88 m 256,0,1
 34 88 34 88 34 80.5 c 128,-1,2
 34 73 34 73 31 69.5 c 0,3,4
 26.6666666667 64.4444444444 26.6666666667 64.4444444444 12 62 c 1,5,-1
 9 63 l 1,6,7
 6 69 6 69 6 79 c 1,8,-1
 11 79 l 1,9,10
 11 73 11 73 13 67 c 1,11,12
 18 68 18 68 22 70 c 1,13,14
 4 88 4 88 26 88 c 256,0,1
26 72 m 1,15,16
 36 82 36 82 29 82 c 128,-1,17
 22 82 22 82 22 78 c 128,-1,18
 22 74 22 74 26 72 c 1,15,16
EndSplineSet
EndChar

StartChar: uni08EA
Encoding: 2282 2282 1060
Width: 0
VWidth: 108
GlyphClass: 4
Flags: W
AnchorPoint: "Anchor-5" 7 85 basemark 0
AnchorPoint: "Anchor-5" 7 50 mark 0
AnchorPoint: "Anchor-3" 7 50 mark 0
AnchorPoint: "Anchor-1" 7 50 mark 0
LayerCount: 2
Fore
SplineSet
12 80 m 256,0,1
 12 75 12 75 7 75 c 256,2,3
 2 75 2 75 2 80 c 256,4,5
 2 85 2 85 7 85 c 256,6,7
 12 85 12 85 12 80 c 256,0,1
EndSplineSet
EndChar

StartChar: uni08EB
Encoding: 2283 2283 1061
Width: 0
VWidth: 108
GlyphClass: 4
Flags: W
AnchorPoint: "Anchor-5" 13 85 basemark 0
AnchorPoint: "Anchor-5" 12 50 mark 0
AnchorPoint: "Anchor-3" 12 50 mark 0
AnchorPoint: "Anchor-1" 12 50 mark 0
LayerCount: 2
Fore
SplineSet
12 80 m 256,0,1
 12 75 12 75 7 75 c 256,2,3
 2 75 2 75 2 80 c 256,4,5
 2 85 2 85 7 85 c 256,6,7
 12 85 12 85 12 80 c 256,0,1
24 80 m 256,8,9
 24 75 24 75 19 75 c 256,10,11
 14 75 14 75 14 80 c 256,12,13
 14 85 14 85 19 85 c 256,14,15
 24 85 24 85 24 80 c 256,8,9
EndSplineSet
EndChar

StartChar: uni08EC
Encoding: 2284 2284 1062
Width: 0
VWidth: 108
GlyphClass: 4
Flags: W
AnchorPoint: "Anchor-5" 14 89 basemark 0
AnchorPoint: "Anchor-5" 14 50 mark 0
AnchorPoint: "Anchor-3" 14 50 mark 0
AnchorPoint: "Anchor-1" 14 50 mark 0
LayerCount: 2
Fore
SplineSet
21 78 m 1,0,1
 15 72 15 72 8 72 c 128,-1,2
 1 72 1 72 1 81 c 0,3,4
 1 98.6666666667 1 98.6666666667 20 86 c 1,5,6
 22 88 22 88 24 90 c 1,7,-1
 28 88 l 1,8,9
 26 85 26 85 27 82.5 c 128,-1,10
 28 80 28 80 30 78 c 1,11,-1
 26 74 l 1,12,13
 23 76 23 76 21 78 c 1,0,1
16 81 m 1,14,15
 12 84 12 84 7.5 84 c 128,-1,16
 3 84 3 84 5.5 81 c 0,17,18
 8.58823529412 77.2941176471 8.58823529412 77.2941176471 16 81 c 1,14,15
EndSplineSet
EndChar

StartChar: uni08ED
Encoding: 2285 2285 1063
Width: 0
VWidth: 108
GlyphClass: 4
Flags: W
AnchorPoint: "Anchor-4" 7 -20 basemark 0
AnchorPoint: "Anchor-4" 7 0 mark 0
AnchorPoint: "Anchor-2" 7 0 mark 0
AnchorPoint: "Anchor-0" 7 0 mark 0
LayerCount: 2
Fore
SplineSet
7 -11 m 256,0,1
 11 -11 11 -11 11 -16 c 256,2,3
 11 -20 11 -20 7 -20 c 256,4,5
 2 -20 2 -20 2 -16 c 256,6,7
 2 -11 2 -11 7 -11 c 256,0,1
EndSplineSet
EndChar

StartChar: uni08EE
Encoding: 2286 2286 1064
Width: 0
VWidth: 108
GlyphClass: 4
Flags: W
AnchorPoint: "Anchor-4" 12 -20 basemark 0
AnchorPoint: "Anchor-4" 12 0 mark 0
AnchorPoint: "Anchor-2" 12 0 mark 0
AnchorPoint: "Anchor-0" 12 0 mark 0
LayerCount: 2
Fore
SplineSet
7 -11 m 256,0,1
 11 -11 11 -11 11 -16 c 256,2,3
 11 -20 11 -20 7 -20 c 256,4,5
 2 -20 2 -20 2 -16 c 256,6,7
 2 -11 2 -11 7 -11 c 256,0,1
22 -16 m 256,8,9
 22 -20 22 -20 17 -20 c 256,10,11
 13 -20 13 -20 13 -16 c 256,12,13
 13 -11 13 -11 17 -11 c 256,14,15
 22 -11 22 -11 22 -16 c 256,8,9
EndSplineSet
EndChar

StartChar: uni08F3
Encoding: 2291 2291 1069
Width: 0
VWidth: 108
GlyphClass: 4
Flags: W
AnchorPoint: "Anchor-5" 12 90 basemark 0
AnchorPoint: "Anchor-5" 11 50 mark 0
AnchorPoint: "Anchor-3" 11 50 mark 0
AnchorPoint: "Anchor-1" 11 50 mark 0
LayerCount: 2
Fore
SplineSet
3 81 m 256,0,1
 3 91 3 91 12 91 c 256,2,3
 20 91 20 91 20 78 c 128,-1,4
 20 65 20 65 5 65 c 2,5,-1
 4 65 l 1,6,-1
 3 70 l 1,7,8
 11 70 11 70 13 74 c 1,9,-1
 9.5 74 l 2,10,11
 3 74 3 74 3 81 c 256,0,1
14 80 m 2,12,13
 14 85 14 85 11 85 c 128,-1,14
 8 85 8 85 8 82 c 128,-1,15
 8 79 8 79 11.5 79 c 2,16,-1
 14 79 l 1,17,-1
 14 80 l 2,12,13
EndSplineSet
EndChar

StartChar: uni08F4
Encoding: 2292 2292 1070
Width: 0
VWidth: 108
GlyphClass: 4
Flags: W
AnchorPoint: "Anchor-5" 13 87 basemark 0
AnchorPoint: "Anchor-5" 12 50 mark 0
AnchorPoint: "Anchor-3" 12 50 mark 0
AnchorPoint: "Anchor-1" 12 50 mark 0
LayerCount: 2
Fore
SplineSet
22 79 m 1,0,-1
 22 72.5 l 2,1,2
 22 67 22 67 13 67 c 256,3,4
 6 67 6 67 4 73 c 1,5,-1
 0 72 l 1,6,-1
 0 76 l 1,7,-1
 3 76 l 1,8,-1
 3 77 l 2,9,10
 3 88 3 88 12.5 88 c 256,11,12
 18 88 18 88 22 82 c 1,13,-1
 25 83 l 1,14,-1
 25 80 l 1,15,-1
 22 79 l 1,0,-1
16 81 m 1,16,17
 13.4 83.6 13.4 83.6 10.7 81.8 c 128,-1,18
 8 80 8 80 8 78 c 1,19,-1
 16 81 l 1,16,17
9 74 m 1,20,21
 11.0909090909 69.8181818182 11.0909090909 69.8181818182 14.5454545455 72.4090909091 c 128,-1,22
 18 75 18 75 18 77 c 1,23,-1
 9 74 l 1,20,21
EndSplineSet
EndChar

StartChar: uni08F7
Encoding: 2295 2295 1073
Width: 0
VWidth: 108
GlyphClass: 4
Flags: W
AnchorPoint: "Anchor-5" 12 83 basemark 0
AnchorPoint: "Anchor-5" 12 50 mark 0
AnchorPoint: "Anchor-3" 12 50 mark 0
AnchorPoint: "Anchor-1" 12 50 mark 0
LayerCount: 2
Fore
SplineSet
2 76 m 1,0,1
 11 80.5 11 80.5 20 85 c 1,2,-1
 23 80 l 1,3,-1
 9 72 l 1,4,5
 12 71 12 71 15 69.5 c 2,6,-1
 20 67 l 2,7,8
 22 66 22 66 24 66 c 1,9,-1
 22 60 l 1,10,-1
 13 65 l 1,11,-1
 3 70 l 1,12,-1
 2 76 l 1,0,1
EndSplineSet
EndChar

StartChar: uni08F8
Encoding: 2296 2296 1074
Width: 0
VWidth: 108
GlyphClass: 4
Flags: W
AnchorPoint: "Anchor-5" 14 83 basemark 0
AnchorPoint: "Anchor-5" 14 50 mark 0
AnchorPoint: "Anchor-3" 14 50 mark 0
AnchorPoint: "Anchor-1" 14 50 mark 0
LayerCount: 2
Fore
SplineSet
24 70 m 1,0,-1
 6 60 l 1,1,-1
 3 66 l 1,2,3
 9 66 9 66 18 72 c 1,4,-1
 13 74.5 l 1,5,-1
 4 80 l 1,6,-1
 6 85 l 1,7,8
 15 80.5 15 80.5 24 76 c 1,9,-1
 24 70 l 1,0,-1
EndSplineSet
EndChar

StartChar: uni08FF
Encoding: 2303 2303 1081
Width: 0
VWidth: 108
GlyphClass: 4
Flags: W
AnchorPoint: "Anchor-5" 12 90 basemark 0
AnchorPoint: "Anchor-5" 12 50 mark 0
AnchorPoint: "Anchor-3" 12 50 mark 0
AnchorPoint: "Anchor-1" 12 50 mark 0
LayerCount: 2
Fore
SplineSet
14 78 m 1,0,-1
 8.25 78 l 2,1,2
 4 78 4 78 4 84 c 128,-1,3
 4 90 4 90 12 90 c 0,4,5
 28 90 28 90 21.2941176471 78.2647058824 c 128,-1,6
 14.5882352941 66.5294117647 14.5882352941 66.5294117647 7 64 c 1,7,-1
 5 69 l 1,8,9
 14 72 14 72 14 78 c 1,0,-1
EndSplineSet
EndChar

StartChar: uni08D4
Encoding: 2260 2260 1082
Width: 0
VWidth: 108
GlyphClass: 4
Flags: W
AnchorPoint: "Anchor-5" 34 98 basemark 0
AnchorPoint: "Anchor-5" 33 50 mark 0
AnchorPoint: "Anchor-3" 33 50 mark 0
AnchorPoint: "Anchor-1" 33 50 mark 0
LayerCount: 2
Fore
SplineSet
4 88 m 0,0,1
 4 93 4 93 12 93 c 0,2,3
 29 93 29 93 18 82 c 1,4,5
 21.5 82 21.5 82 23.75 82 c 128,-1,6
 26 82 26 82 26 84 c 128,-1,7
 26 86 26 86 26 88 c 128,-1,8
 26 90 26 90 25 92 c 1,9,-1
 30 94 l 1,10,11
 39 76 39 76 22 76 c 2,12,-1
 18.5 76 l 2,13,14
 17 76 17 76 16 76.5 c 2,15,-1
 13 78 l 1,16,17
 3 68 3 68 10 68 c 128,-1,18
 17 68 17 68 21 69 c 1,19,-1
 23 65 l 1,20,21
 2 52.4 2 52.4 2 70.5 c 0,22,23
 2 74 2 74 5 78.5 c 0,24,25
 7.66666666667 82.5 7.66666666667 82.5 4 88 c 0,0,1
30 66 m 1,26,27
 38 68 38 68 38 72 c 2,28,-1
 38 78 l 1,29,30
 37 80 37 80 36 82 c 1,31,-1
 41 84 l 1,32,33
 42 82 42 82 42.5 80 c 2,34,-1
 43 78 l 1,35,-1
 50 76 l 1,36,-1
 50 92 l 1,37,-1
 55 92 l 1,38,-1
 56 79 l 2,39,40
 56 70 56 70 50.5 70 c 128,-1,41
 45 70 45 70 43.5 69.5 c 2,42,-1
 32 62 l 1,43,-1
 30 66 l 1,26,27
64 92 m 1,44,-1
 64 70 l 1,45,-1
 59 70 l 1,46,-1
 58 92 l 1,47,-1
 64 92 l 1,44,-1
14 84 m 1,48,49
 27 97 27 97 9 88 c 1,50,-1
 14 84 l 1,48,49
29 70 m 256,51,52
 29 68 29 68 26 68 c 256,53,54
 25 68 25 68 24.5 69 c 2,55,-1
 24 70 l 258,56,57
 24 71 24 71 25 72 c 2,58,-1
 26 73 l 257,59,60
 29 73 29 73 29 70 c 256,51,52
EndSplineSet
EndChar

StartChar: uni08D5
Encoding: 2261 2261 1083
Width: 51
VWidth: 108
GlyphClass: 2
Flags: W
AnchorPoint: "Anchor-5" 25 86 basemark 0
AnchorPoint: "Anchor-5" 25 50 mark 0
AnchorPoint: "Anchor-4" 23 -43 basemark 0
AnchorPoint: "Anchor-3" 25 50 mark 0
AnchorPoint: "Anchor-1" 25 50 mark 0
LayerCount: 2
Fore
SplineSet
25 74 m 1,0,1
 25 64 25 64 13.5 64 c 0,2,3
 -4.5 64 -4.5 64 4 81 c 1,4,-1
 9 80 l 1,5,-1
 7 73.5 l 1,6,7
 7 69 7 69 13.5 69 c 128,-1,8
 20 69 20 69 20 76 c 1,9,-1
 18 85 l 1,10,-1
 24 86 l 1,11,-1
 24 82 l 2,12,13
 24 81 24 81 24 80.5 c 128,-1,14
 24 80 24 80 26 79 c 1,15,16
 33.3333333333 90 33.3333333333 90 41 90 c 256,17,18
 50 90 50 90 50 81 c 0,19,20
 50 65.6666666667 50 65.6666666667 38 69.3333333333 c 128,-1,21
 26 73 26 73 25 74 c 1,0,1
44 81.5 m 128,-1,23
 44 85 44 85 40.5 85 c 0,24,25
 39 85 39 85 32 78 c 1,26,-1
 34 78 l 2,27,22
 44 78 44 78 44 81.5 c 128,-1,23
EndSplineSet
EndChar

StartChar: uni08D6
Encoding: 2262 2262 1084
Width: 26
VWidth: 108
GlyphClass: 2
Flags: W
AnchorPoint: "Anchor-5" 16 90 basemark 0
AnchorPoint: "Anchor-5" 14 50 mark 0
AnchorPoint: "Anchor-3" 14 50 mark 0
AnchorPoint: "Anchor-1" 14 50 mark 0
LayerCount: 2
Fore
SplineSet
9 69 m 256,0,1
 9 59 9 59 23 66 c 1,2,-1
 24 60 l 1,3,-1
 15.5 59 l 1,4,5
 3 59 3 59 3 69 c 0,6,7
 4 74 4 74 8 78 c 1,8,9
 5 80 5 80 5 85 c 0,10,11
 5 94.5 5 94.5 16 89 c 1,12,-1
 15 84 l 1,13,14
 8 84 8 84 9.5 82 c 0,15,16
 11.2 79.7333333333 11.2 79.7333333333 18 82 c 1,17,-1
 19 77 l 1,18,19
 9 74.5 9 74.5 9 69 c 256,0,1
EndSplineSet
EndChar

StartChar: uni08D7
Encoding: 2263 2263 1085
Width: 32
VWidth: 108
GlyphClass: 2
Flags: W
AnchorPoint: "Anchor-5" 15 90 basemark 0
AnchorPoint: "Anchor-5" 15 50 mark 0
AnchorPoint: "Anchor-3" 15 50 mark 0
AnchorPoint: "Anchor-1" 15 50 mark 0
LayerCount: 2
Fore
SplineSet
17 88 m 1,0,-1
 22 88 l 1,1,-1
 17 88 l 1,0,-1
28 88 m 1,2,-1
 23 88 l 1,3,-1
 28 88 l 1,2,-1
29 74 m 1,4,-1
 28 68 l 1,5,6
 24 62 24 62 14 62 c 128,-1,7
 4 62 4 62 4 71 c 2,8,-1
 4 74 l 2,9,10
 4 76 4 76 6 78 c 1,11,-1
 10 76 l 1,12,-1
 9 71 l 1,13,14
 9 65.5 9 65.5 16.5 66.75 c 128,-1,15
 24 68 24 68 24 70 c 1,16,17
 23 70 23 70 19.5 70 c 128,-1,18
 16 70 16 70 15.5 77 c 128,-1,19
 15 84 15 84 22 84 c 128,-1,20
 29 84 29 84 29 74 c 1,4,-1
22 80 m 1,21,-1
 22 74 l 1,22,-1
 22 80 l 1,21,-1
EndSplineSet
EndChar

StartChar: uni08D8
Encoding: 2264 2264 1086
Width: 33
VWidth: 108
GlyphClass: 2
Flags: W
AnchorPoint: "Anchor-5" 16 106 basemark 0
AnchorPoint: "Anchor-5" 18 50 mark 0
AnchorPoint: "Anchor-3" 18 50 mark 0
AnchorPoint: "Anchor-1" 18 50 mark 0
LayerCount: 2
Fore
SplineSet
20 102 m 256,0,1
 20 98 20 98 16.5 98 c 0,2,3
 7 98 7 98 10.5 102 c 0,4,5
 20 112.857142857 20 112.857142857 20 102 c 256,0,1
26 99 m 1,6,7
 37.5 76 37.5 76 16.5 76 c 0,8,9
 -2 76 -2 76 7 94 c 1,10,-1
 12 92 l 1,11,-1
 10 86.5 l 1,12,13
 10 82 10 82 16 82 c 256,14,15
 27.6 82 27.6 82 22 96 c 1,16,-1
 26 99 l 1,6,7
4 63 m 1,17,-1
 4 68 l 1,18,-1
 29 76 l 1,19,-1
 29 70 l 1,20,-1
 4 63 l 1,17,-1
EndSplineSet
EndChar

StartChar: uni08DA
Encoding: 2266 2266 1088
Width: 71
VWidth: 108
GlyphClass: 2
Flags: W
AnchorPoint: "Anchor-5" 36 98 basemark 0
AnchorPoint: "Anchor-5" 36 50 mark 0
AnchorPoint: "Anchor-3" 36 50 mark 0
AnchorPoint: "Anchor-1" 36 50 mark 0
LayerCount: 2
Fore
SplineSet
30 92 m 1,0,-1
 30 98 l 1,1,-1
 33 98 l 1,2,-1
 34 92 l 1,3,-1
 30 92 l 1,0,-1
50 95 m 257,4,-1
 45 94.5 l 1,5,6
 50 95 l 257,4,-1
25 90 m 1,7,-1
 25 95 l 1,8,-1
 27 92 l 257,9,10
 27 90 27 90 25 90 c 1,7,-1
66 70 m 1,11,-1
 65 92 l 1,12,-1
 70 92 l 1,13,-1
 71 70 l 1,14,-1
 66 70 l 1,11,-1
62 78 m 2,15,16
 62 70 62 70 56 70 c 0,17,18
 49.5 70 49.5 70 44.75 70 c 0,19,20
 38.375 70 38.375 70 31.6875 70 c 128,-1,21
 25 70 25 70 24.5 70 c 0,22,23
 21 70 21 70 15.5 70 c 128,-1,24
 10 70 10 70 10 73.5 c 1,25,-1
 7 75 l 1,26,-1
 7 74 l 2,27,28
 7 73 7 73 8 72 c 1,29,-1
 2 70 l 1,30,-1
 1 77 l 1,31,32
 1 87 1 87 11.5 83.5 c 0,33,34
 13 84 13 84 13 82 c 0,35,36
 19.125 63.625 19.125 63.625 23 83 c 1,37,-1
 28 82 l 1,38,39
 26.5 76 26.5 76 30.75 76 c 128,-1,40
 35 76 35 76 35 80 c 2,41,-1
 35 92 l 1,42,-1
 40 92 l 1,43,-1
 40 80 l 2,44,45
 40 76 40 76 43 76 c 128,-1,46
 46 76 46 76 46 79 c 2,47,-1
 45 84 l 1,48,-1
 50 86 l 1,49,50
 50 76 50 76 52.5 76 c 2,51,-1
 54 76 l 2,52,53
 57 76 57 76 57 80 c 2,54,-1
 56 92 l 1,55,-1
 61 92 l 1,56,-1
 62 78 l 2,15,16
52 90 m 257,57,-1
 48 90 l 1,58,59
 48 98 48 98 51.5 91 c 2,60,-1
 52 90 l 257,57,-1
47 90 m 257,61,-1
 42 90 l 1,62,63
 42 92 42 92 44 92 c 128,-1,64
 46 92 46 92 46.5 91 c 2,65,-1
 47 90 l 257,61,-1
7 90 m 1,66,67
 11 86 11 86 8 86 c 2,68,-1
 4 86 l 2,69,70
 -3 86 -3 86 4 89.5 c 1,71,-1
 6 90 l 1,72,-1
 7 90 l 1,66,67
10 90 m 2,73,74
 11 90 11 90 13.5 88 c 128,-1,75
 16 86 16 86 12 86 c 0,76,77
 2 86 2 86 9 89.5 c 2,78,-1
 10 90 l 2,73,74
24 88 m 257,79,-1
 20 87.5 l 1,80,81
 20 88 20 88 21 89 c 2,82,-1
 22 90 l 2,83,84
 23 90 23 90 23.5 89 c 2,85,-1
 24 88 l 257,79,-1
30 88 m 257,86,87
 30 84.5454545455 30 84.5454545455 23.5 87.5 c 0,88,89
 18 90 18 90 23.5 90 c 128,-1,90
 29 90 29 90 29.5 89 c 2,91,-1
 30 88 l 257,86,87
EndSplineSet
EndChar

StartChar: uni08DB
Encoding: 2267 2267 1089
Width: 96
VWidth: 108
GlyphClass: 2
Flags: W
AnchorPoint: "Anchor-5" 49 98 basemark 0
AnchorPoint: "Anchor-5" 49 50 mark 0
AnchorPoint: "Anchor-3" 49 50 mark 0
AnchorPoint: "Anchor-1" 49 50 mark 0
LayerCount: 2
Fore
SplineSet
10 94 m 1,0,-1
 10 89 l 1,1,2
 10 94 l 1,0,-1
5 94 m 1,3,-1
 5 89 l 1,4,-1
 5 94 l 1,3,-1
90 70 m 1,5,-1
 89 92 l 1,6,-1
 94 92 l 1,7,-1
 95 70 l 1,8,-1
 90 70 l 1,5,-1
81 70 m 1,9,-1
 74.75 71 l 1,10,11
 68.8571428571 66.2857142857 68.8571428571 66.2857142857 66 72 c 1,12,13
 63 66 63 66 59.5 68 c 128,-1,14
 56 70 56 70 55 70 c 2,15,-1
 52 70 l 2,16,17
 45 70 45 70 45 74 c 1,18,19
 34.5 63.5 34.5 63.5 26 72 c 1,20,21
 24 69 24 69 16 70 c 1,22,-1
 16 76 l 1,23,-1
 22 76 l 2,24,25
 24 76 24 76 24 78.5 c 2,26,-1
 22 87 l 1,27,-1
 27 88 l 1,28,-1
 30 77 l 2,29,30
 30 75 30 75 34.5 75 c 128,-1,31
 39 75 39 75 42 78 c 1,32,33
 40 80 40 80 36 79 c 1,34,-1
 33 79 l 1,35,-1
 32 84 l 1,36,-1
 36.5 84 l 1,37,-1
 48 80 l 1,38,-1
 49 80 l 1,39,-1
 50 77 l 1,40,41
 48 76 48 76 47 76 c 1,42,43
 48 75 48 75 49 75 c 128,-1,44
 50 75 50 75 53 75 c 128,-1,45
 56 75 56 75 56 82 c 1,46,-1
 60 81 l 1,47,48
 60 79 60 79 60 77 c 128,-1,49
 60 75 60 75 62 75 c 128,-1,50
 64 75 64 75 64 82 c 1,51,-1
 69 82 l 1,52,-1
 68 77 l 1,53,-1
 72 78 l 1,54,55
 72 81 72 81 72 84 c 1,56,-1
 76 84 l 1,57,58
 76 75 76 75 79 75 c 128,-1,59
 82 75 82 75 82 76 c 2,60,-1
 82 92 l 1,61,-1
 87 92 l 1,62,-1
 88 77 l 2,63,64
 88 70 88 70 81 70 c 1,9,-1
6 88 m 1,65,66
 14 82 14 82 14 76 c 128,-1,67
 14 70 14 70 7.5 70 c 0,68,69
 -8 70 -8 70 5 83 c 1,70,-1
 4 84 l 1,71,-1
 6 88 l 1,65,66
6 77 m 1,72,-1
 10 77 l 1,73,-1
 8 81 l 1,74,75
 6 79 6 79 6 77 c 1,72,-1
41.5 68 m 1,76,-1
 40 65 l 1,77,-1
 39.5 68 l 1,78,79
 40.5 68 40.5 68 41.5 68 c 1,76,-1
EndSplineSet
EndChar

StartChar: uni08DC
Encoding: 2268 2268 1090
Width: 101
VWidth: 108
GlyphClass: 2
Flags: W
AnchorPoint: "Anchor-5" 50 98 basemark 0
AnchorPoint: "Anchor-5" 50 50 mark 0
AnchorPoint: "Anchor-3" 50 50 mark 0
AnchorPoint: "Anchor-1" 50 50 mark 0
LayerCount: 2
Fore
SplineSet
33 92 m 257,0,1
 33 91 33 91 28 91 c 5,2,-1
 31 94 l 2,3,4
 32.5 93 l 2,5,-1
 33 92 l 257,0,1
30 71 m 1,6,-1
 16 70 l 1,7,8
 -2 70 -2 70 1.5 80.5 c 0,9,10
 2 82 2 82 2 84 c 1,11,-1
 7 83 l 1,12,-1
 6 79 l 2,13,14
 6 75 6 75 15.5 75 c 2,15,-1
 22.5 75 l 1,16,17
 24 76 24 76 26 76 c 1,18,19
 25 77 25 77 24 78 c 0,20,21
 14 88 14 88 31.5 88 c 0,22,23
 38 88 38 88 38 82 c 128,-1,24
 38 76 38 76 35 76 c 1,25,-1
 39 76 l 2,26,27
 41.5 76 41.5 76 43 82 c 1,28,-1
 48 82 l 1,29,30
 45 76 45 76 48 76 c 1,31,32
 49 78 49 78 51.5 80 c 128,-1,33
 54 82 54 82 56.5 84 c 0,34,35
 71 95.6 71 95.6 71 79.5 c 0,36,37
 71 77 71 77 70 76 c 1,38,39
 72.5 76 72.5 76 75 76 c 1,40,-1
 75.5 78 l 2,41,42
 76 80 76 80 76 83 c 1,43,-1
 82 82 l 1,44,45
 80 76 80 76 81.5 76 c 2,46,-1
 84 76 l 2,47,48
 87 76 87 76 87 80 c 2,49,-1
 86 92 l 1,50,-1
 92 92 l 1,51,-1
 92 78 l 2,52,53
 92 70 92 70 85 70 c 0,54,55
 78.5 70 78.5 70 72 70 c 1,56,-1
 66 72 l 1,57,58
 64 71 64 71 61 70 c 1,59,-1
 56 70 l 2,60,61
 46 70 46 70 45 73 c 1,62,63
 43.5 70 43.5 70 40 70 c 2,64,-1
 30 71 l 1,6,-1
96 70 m 1,65,-1
 95 92 l 1,66,-1
 100 92 l 1,67,-1
 101 70 l 1,68,-1
 96 70 l 1,65,-1
81 90 m 257,69,70
 81 88 81 88 77.5 89.5 c 0,71,72
 72 92 72 92 78 92 c 0,73,74
 80 92 80 92 80.5 91 c 2,75,-1
 81 90 l 257,69,70
32 81 m 2,76,-1
 32 82.5 l 2,77,78
 27 81 l 1,79,-1
 27 81 l 2,80,81
 27 80 27 80 30 77 c 1,82,83
 32 78 32 78 32 81 c 2,76,-1
54 75 m 1,84,-1
 60 75 l 2,85,86
 65 75 65 75 65 79 c 0,87,88
 62.6666666667 83.6666666667 62.6666666667 83.6666666667 54 75 c 1,84,-1
EndSplineSet
EndChar

StartChar: uni08DD
Encoding: 2269 2269 1091
Width: 74
VWidth: 108
GlyphClass: 2
Flags: W
AnchorPoint: "Anchor-5" 38 100 basemark 0
AnchorPoint: "Anchor-5" 38 50 mark 0
AnchorPoint: "Anchor-3" 38 50 mark 0
AnchorPoint: "Anchor-1" 38 50 mark 0
LayerCount: 2
Fore
SplineSet
71 87 m 1,0,1
 79.5 70 79.5 70 70.75 70 c 128,-1,2
 62 70 62 70 60.5 70 c 2,3,-1
 57 70 l 2,4,5
 55 70 55 70 54 70 c 0,6,7
 51 70 51 70 47.5 70 c 128,-1,8
 44 70 44 70 41 73 c 1,9,10
 37.8571428571 66.7142857143 37.8571428571 66.7142857143 31.4285714286 68.3571428571 c 128,-1,11
 25 70 25 70 24.5 70 c 0,12,13
 21 70 21 70 15.5 70 c 128,-1,14
 10 70 10 70 10 73.5 c 0,15,16
 10 79 10 79 8.5 77 c 0,17,18
 8 76.3333333333 8 76.3333333333 8 72 c 1,19,-1
 2 71 l 1,20,-1
 1 77 l 1,21,22
 1 84 1 84 7.5 84 c 0,23,24
 16 84 16 84 16 80 c 128,-1,25
 16 76 16 76 18.625 76 c 128,-1,26
 21.25 76 21.25 76 23 83 c 1,27,-1
 28 82 l 1,28,29
 26.5 76 26.5 76 31.5 76 c 2,30,-1
 36 76 l 2,31,32
 37 76 37 76 32 86 c 2,33,-1
 31 88 l 1,34,-1
 31 89.5 l 1,35,-1
 32 91 l 2,36,37
 32 92 32 92 34 93 c 128,-1,38
 36 94 36 94 38 95 c 128,-1,39
 40 96 40 96 42 97 c 128,-1,40
 44 98 44 98 45 98 c 2,41,-1
 47 93 l 1,42,43
 40 90 40 90 37 88 c 1,44,-1
 46 76 l 1,45,-1
 48 76 l 2,46,47
 50 76 50 76 50 82 c 1,48,-1
 56 82 l 1,49,-1
 55 77 l 2,50,51
 55 75 55 75 57 76 c 1,52,-1
 58.5 76 l 1,53,-1
 60 83 l 1,54,-1
 65 82 l 2,55,56
 65 81 65 81 64.5 79.5 c 2,57,-1
 64 78 l 1,58,-1
 64 76.5 l 1,59,-1
 68 78.5 l 1,60,61
 68 81 68 81 66 85 c 1,62,-1
 71 87 l 1,0,1
7 88 m 257,63,-1
 2 88 l 1,64,-1
 7 88 l 257,63,-1
10 90 m 1,65,-1
 10 86 l 1,66,-1
 10 90 l 1,65,-1
22 90 m 1,67,-1
 22 86 l 1,68,-1
 22 90 l 1,67,-1
27 90 m 1,69,-1
 27 86 l 1,70,-1
 27 90 l 1,69,-1
EndSplineSet
EndChar

StartChar: uni08DE
Encoding: 2270 2270 1092
Width: 54
VWidth: 108
GlyphClass: 2
Flags: W
AnchorPoint: "Anchor-5" 30 98 basemark 0
AnchorPoint: "Anchor-5" 30 50 mark 0
AnchorPoint: "Anchor-3" 30 50 mark 0
AnchorPoint: "Anchor-1" 30 50 mark 0
LayerCount: 2
Fore
SplineSet
41 96 m 1,0,-1
 46 96 l 257,1,-1
 41 96 l 1,0,-1
52 96 m 257,2,-1
 47 96 l 1,3,-1
 52 96 l 257,2,-1
33 92 m 257,4,5
 33 89 33 89 30.5 89 c 1,6,-1
 31 94 l 258,7,8
 32 94 32 94 32.5 93 c 2,9,-1
 33 92 l 257,4,5
48 78 m 1,10,-1
 43 78 l 2,11,12
 39 78 39 78 39 85 c 128,-1,13
 39 92 39 92 46.5 92 c 128,-1,14
 54 92 54 92 54 81 c 128,-1,15
 54 70 54 70 42 70 c 2,16,-1
 39 70 l 1,17,-1
 30 71 l 1,18,-1
 26.5 70.5 l 2,19,20
 -3.25 66.25 -3.25 66.25 1.5 80.5 c 0,21,22
 2 82 2 82 2 84 c 1,23,-1
 7 83 l 1,24,-1
 6 79 l 2,25,26
 6 75 6 75 15 75 c 2,27,-1
 22 75 l 1,28,29
 24 76 24 76 26 76 c 1,30,31
 25 77 25 77 24 78 c 0,32,33
 14 88 14 88 31.5 88 c 0,34,35
 38 88 38 88 38 82 c 128,-1,36
 38 76 38 76 35 76 c 1,37,38
 40.5 76 40.5 76 44.25 76 c 128,-1,39
 48 76 48 76 48 78 c 1,10,-1
48 83 m 1,40,-1
 45 86 l 1,41,42
 41 82 41 82 47 82 c 2,43,-1
 48 82 l 1,44,-1
 48 83 l 1,40,-1
32 81 m 2,45,-1
 32 82.5 l 2,46,47
 32 89 32 89 28.5 82 c 1,48,-1
 28 80 l 2,49,50
 28 78 28 78 30 77 c 1,51,52
 32 78 32 78 32 81 c 2,45,-1
EndSplineSet
EndChar

StartChar: uni08DF
Encoding: 2271 2271 1093
Width: 69
VWidth: 108
GlyphClass: 2
Flags: W
AnchorPoint: "Anchor-5" 35 99 basemark 0
AnchorPoint: "Anchor-5" 34 50 mark 0
AnchorPoint: "Anchor-3" 34 50 mark 0
AnchorPoint: "Anchor-1" 34 50 mark 0
LayerCount: 2
Fore
SplineSet
42 98 m 1,0,-1
 42 94 l 1,1,2
 42 98 l 1,0,-1
48 98 m 1,3,-1
 48 94 l 1,4,-1
 48 98 l 1,3,-1
28 95 m 1,5,-1
 28 91 l 1,6,-1
 28 95 l 1,5,-1
45 92 m 128,-1,8
 52 92 52 92 52 81 c 128,-1,9
 52 70 52 70 41 70 c 2,10,-1
 38 70 l 2,11,12
 28.5 70 28.5 70 19.25 70 c 128,-1,13
 10 70 10 70 10 73.5 c 0,14,15
 10 79 10 79 8.5 77 c 0,16,17
 6.14285714286 73.8571428571 6.14285714286 73.8571428571 8 72 c 1,18,-1
 2 71 l 1,19,-1
 1 77 l 1,20,21
 1 84 1 84 7 84 c 128,-1,22
 13 84 13 84 14 80 c 128,-1,23
 15 76 15 76 18 76 c 128,-1,24
 21 76 21 76 24 76 c 1,25,-1
 21.5 78.5 l 2,26,27
 11 89 11 89 23 89 c 128,-1,28
 35 89 35 89 35 83.5 c 128,-1,29
 35 78 35 78 32 76 c 1,30,31
 38 76 38 76 42 76.5 c 128,-1,32
 46 77 46 77 47 78 c 1,33,-1
 44 78 l 2,34,35
 38 78 38 78 38 85 c 128,-1,7
 38 92 38 92 45 92 c 128,-1,8
8 88 m 257,36,-1
 3 88.5 l 2,37,38
 3 89 3 89 4 89.5 c 2,39,-1
 6 90 l 2,40,41
 8 90 8 90 8 88 c 257,36,-1
13 88 m 257,42,-1
 8 88 l 1,43,44
 8 89 8 89 9 89.5 c 2,45,-1
 10 90 l 1,46,47
 13 90 13 90 13 88 c 257,42,-1
45 87 m 257,48,-1
 45 82 l 1,49,50
 46 82 46 82 47 82 c 1,51,-1
 47 83 l 2,52,53
 47 87 47 87 45 87 c 257,48,-1
54 77 m 128,-1,55
 54 84 54 84 61.5 84 c 128,-1,56
 69 84 69 84 69 73 c 128,-1,57
 69 62 69 62 55 62 c 2,58,-1
 54 62 l 1,59,-1
 54 66 l 1,60,61
 61 66 61 66 63 70 c 1,62,-1
 60 70 l 2,63,54
 54 70 54 70 54 77 c 128,-1,55
30 82 m 257,64,-1
 26 82 l 1,65,-1
 26 80.5 l 1,66,-1
 28 78 l 1,67,68
 30 80 30 80 30 82 c 257,64,-1
60 76 m 257,69,-1
 60 74.5 l 2,70,71
 60 74 60 74 62 74 c 2,72,-1
 64 74 l 1,73,74
 64 76 64 76 64 77.5 c 1,75,-1
 60 76 l 257,69,-1
EndSplineSet
EndChar

StartChar: uni08E0
Encoding: 2272 2272 1094
Width: 42
VWidth: 108
GlyphClass: 2
Flags: W
AnchorPoint: "Anchor-5" 22 86 basemark 0
AnchorPoint: "Anchor-5" 22 50 mark 0
AnchorPoint: "Anchor-3" 22 50 mark 0
AnchorPoint: "Anchor-1" 22 50 mark 0
LayerCount: 2
Fore
SplineSet
2 79 m 128,-1,1
 2 88 2 88 10.5 88 c 128,-1,2
 19 88 19 88 19 83.5 c 2,3,-1
 19 78 l 1,4,5
 18 77 18 77 18 76 c 1,6,7
 30 76 30 76 42 76 c 1,8,-1
 42 70 l 1,9,-1
 20 70 l 2,10,0
 2 70 2 70 2 79 c 128,-1,1
13 76 m 1,11,-1
 14 79 l 1,12,-1
 8 80 l 257,13,14
 8 77.6666666667 8 77.6666666667 13 76 c 1,11,-1
EndSplineSet
EndChar

StartChar: uni08E1
Encoding: 2273 2273 1095
Width: 46
VWidth: 108
GlyphClass: 2
Flags: W
AnchorPoint: "Anchor-5" 23 86 basemark 0
AnchorPoint: "Anchor-5" 23 50 mark 0
AnchorPoint: "Anchor-3" 23 50 mark 0
AnchorPoint: "Anchor-1" 23 50 mark 0
LayerCount: 2
Fore
SplineSet
30 70 m 2,0,1
 24 70 24 70 24 73 c 1,2,3
 22.5 70 22.5 70 19 70 c 2,4,-1
 1 70 l 1,5,-1
 1 76 l 1,6,-1
 18 76 l 2,7,8
 22 76 22 76 22 81 c 1,9,-1
 26 80 l 1,10,-1
 26 78 l 2,11,12
 26 77 26 77 27 76 c 1,13,14
 32 86 32 86 38.5 86 c 128,-1,15
 45 86 45 86 45 78 c 128,-1,16
 45 70 45 70 35.5 70 c 2,17,-1
 30 70 l 2,0,1
32 75 m 1,18,19
 40 75 40 75 40 77.5 c 0,20,21
 40 84 40 84 36 80.5 c 128,-1,22
 32 77 32 77 32 75 c 1,18,19
EndSplineSet
EndChar

StartChar: uniFBBC
Encoding: 64444 64444 1096
Width: 0
VWidth: 108
GlyphClass: 4
Flags: W
AnchorPoint: "Anchor-5" 14 0 mark 0
AnchorPoint: "Anchor-3" 14 0 mark 0
AnchorPoint: "Anchor-1" 14 0 mark 0
LayerCount: 2
Fore
SplineSet
18 -23 m 1,0,-1
 17 -4 l 1,1,-1
 23 -4 l 1,2,-1
 24 -23 l 1,3,-1
 18 -23 l 1,0,-1
6 -23 m 1,4,-1
 5 -4 l 1,5,-1
 10 -4 l 1,6,-1
 11 -23 l 1,7,-1
 6 -23 l 1,4,-1
EndSplineSet
EndChar

StartChar: uniFBC0
Encoding: 64448 64448 1097
Width: 0
VWidth: 108
GlyphClass: 4
Flags: W
AnchorPoint: "Anchor-5" 16 92 basemark 0
AnchorPoint: "Anchor-5" 14 50 mark 0
AnchorPoint: "Anchor-3" 14 50 mark 0
AnchorPoint: "Anchor-1" 14 50 mark 0
LayerCount: 2
Fore
SplineSet
13 81 m 1,0,1
 16 84 16 84 23 84 c 128,-1,2
 30 84 30 84 30 74 c 128,-1,3
 30 64 30 64 15 64 c 2,4,-1
 10.5 64 l 1,5,-1
 2 65 l 1,6,-1
 2 71 l 1,7,8
 3.5 71 3.5 71 5 71 c 1,9,10
 6 72 6 72 7 74 c 1,11,-1
 7 92 l 1,12,-1
 13 92 l 1,13,-1
 13 81 l 1,0,1
11 70 m 1,14,-1
 18.5 70 l 2,15,16
 24 70 24 70 24 73.5 c 128,-1,17
 24 77 24 77 21.5 77 c 128,-1,18
 19 77 19 77 17 76 c 0,19,20
 13 74 13 74 11 70 c 1,14,-1
EndSplineSet
EndChar

StartChar: dotcenter-ar
Encoding: 66020 -1 1098
Width: 16
VWidth: 108
Flags: W
LayerCount: 2
Fore
SplineSet
9 -5 m 132,-1,1
 9 1 9 1 15 1 c 132,-1,2
 21 1 21 1 21 -5 c 132,-1,3
 21 -11 21 -11 15 -11 c 132,-1,0
 9 -11 9 -11 9 -5 c 132,-1,1
EndSplineSet
EndChar

StartChar: dotcenter-ar.small
Encoding: 66021 -1 1099
Width: 16
VWidth: 108
Flags: W
LayerCount: 2
Fore
SplineSet
14 -15 m 256,0,1
 14 -20 14 -20 8 -20 c 256,2,3
 3 -20 3 -20 3 -15 c 256,4,5
 3 -10 3 -10 8 -10 c 256,6,7
 14 -10 14 -10 14 -15 c 256,0,1
EndSplineSet
EndChar

StartChar: twodotsverticalabove-ar.small
Encoding: 66022 -1 1100
Width: 0
VWidth: 108
Flags: W
LayerCount: 2
Fore
SplineSet
14 81 m 256,0,1
 14 76 14 76 8 76 c 256,2,3
 3 76 3 76 3 81 c 256,4,5
 3 86 3 86 8 86 c 256,6,7
 14 86 14 86 14 81 c 256,0,1
14 67 m 256,8,9
 14 62 14 62 8 62 c 256,10,11
 3 62 3 62 3 67 c 256,12,13
 3 72 3 72 8 72 c 256,14,15
 14 72 14 72 14 67 c 256,8,9
EndSplineSet
EndChar

StartChar: twodotshorizontalabove-ar.small
Encoding: 66023 -1 1101
Width: 0
VWidth: 108
Flags: W
LayerCount: 2
Fore
SplineSet
28 67 m 256,0,1
 28 62 28 62 23 62 c 256,2,3
 18 62 18 62 18 67 c 256,4,5
 18 72 18 72 23 72 c 256,6,7
 28 72 28 72 28 67 c 256,0,1
14 67 m 256,8,9
 14 62 14 62 8 62 c 256,10,11
 3 62 3 62 3 67 c 256,12,13
 3 72 3 72 8 72 c 256,14,15
 14 72 14 72 14 67 c 256,8,9
EndSplineSet
EndChar

StartChar: twodotshorizontalabove-ar.v2
Encoding: 66024 -1 1102
Width: 0
VWidth: 108
Flags: W
LayerCount: 2
Fore
SplineSet
26 95 m 256,0,1
 26 90 26 90 21 90 c 256,2,3
 16 90 16 90 16 95 c 256,4,5
 16 101 16 101 20.5 101 c 256,6,7
 26 101 26 101 26 95 c 256,0,1
14 90 m 256,8,9
 14 84 14 84 8 84 c 256,10,11
 3 84 3 84 3 90 c 256,12,13
 3 95 3 95 8 95 c 256,14,15
 14 95 14 95 14 90 c 256,8,9
EndSplineSet
EndChar

StartChar: threedotsupabove-ar.small
Encoding: 66026 -1 1104
Width: 0
VWidth: 108
Flags: W
LayerCount: 2
Fore
SplineSet
21 79 m 256,0,1
 21 74 21 74 16 74 c 256,2,3
 10 74 10 74 10 79 c 256,4,5
 10 84 10 84 16 84 c 256,6,7
 21 84 21 84 21 79 c 256,0,1
14 67 m 256,8,9
 14 62 14 62 8 62 c 256,10,11
 3 62 3 62 3 67 c 256,12,13
 3 72 3 72 8 72 c 256,14,15
 14 72 14 72 14 67 c 256,8,9
28 67 m 256,16,17
 28 62 28 62 23 62 c 256,18,19
 18 62 18 62 18 67 c 256,20,21
 18 72 18 72 23 72 c 256,22,23
 28 72 28 72 28 67 c 256,16,17
EndSplineSet
EndChar

StartChar: threedotsupabove-ar.v2
Encoding: 66027 -1 1105
Width: 0
VWidth: 108
Flags: W
LayerCount: 2
Fore
SplineSet
28 75 m 132,-1,1
 28 81 28 81 34 81 c 132,-1,2
 40 81 40 81 40 75 c 132,-1,3
 40 69 40 69 34 69 c 132,-1,0
 28 69 28 69 28 75 c 132,-1,1
13 75 m 128,-1,5
 13 81 13 81 19 81 c 128,-1,6
 25 81 25 81 25 75 c 128,-1,7
 25 69 25 69 19 69 c 128,-1,4
 13 69 13 69 13 75 c 128,-1,5
-2 75 m 128,-1,9
 -2 81 -2 81 4 81 c 128,-1,10
 10 81 10 81 10 75 c 128,-1,11
 10 69 10 69 4 69 c 128,-1,8
 -2 69 -2 69 -2 75 c 128,-1,9
EndSplineSet
EndChar

StartChar: threedotsupbelow-ar.small
Encoding: 66028 -1 1106
Width: 0
VWidth: 108
Flags: W
LayerCount: 2
Fore
SplineSet
14 -15 m 256,0,1
 14 -20 14 -20 8 -20 c 256,2,3
 3 -20 3 -20 3 -15 c 256,4,5
 3 -10 3 -10 8 -10 c 256,6,7
 14 -10 14 -10 14 -15 c 256,0,1
28 -15 m 256,8,9
 28 -20 28 -20 23 -20 c 256,10,11
 18 -20 18 -20 18 -15 c 256,12,13
 18 -10 18 -10 23 -10 c 256,14,15
 28 -10 28 -10 28 -15 c 256,8,9
21 -27 m 256,16,17
 21 -32 21 -32 16 -32 c 256,18,19
 10 -32 10 -32 10 -27 c 256,20,21
 10 -22 10 -22 16 -22 c 256,22,23
 21 -22 21 -22 21 -27 c 256,16,17
EndSplineSet
EndChar

StartChar: fourdotsabove-ar.small
Encoding: 66029 -1 1107
Width: 0
VWidth: 108
Flags: W
LayerCount: 2
Fore
SplineSet
14 80 m 256,0,1
 14 75 14 75 8.5 75 c 128,-1,2
 3 75 3 75 3 80 c 256,3,4
 3 86 3 86 8 86 c 256,5,6
 14 86 14 86 14 80 c 256,0,1
28 80 m 256,7,8
 28 75 28 75 23 75 c 128,-1,9
 18 75 18 75 18 80 c 256,10,11
 18 86 18 86 23 86 c 128,-1,12
 28 86 28 86 28 80 c 256,7,8
14 67 m 256,13,14
 14 62 14 62 8.5 62 c 128,-1,15
 3 62 3 62 3 67 c 256,16,17
 3 72 3 72 8 72 c 256,18,19
 14 72 14 72 14 67 c 256,13,14
28 67 m 256,20,21
 28 62 28 62 23 62 c 128,-1,22
 18 62 18 62 18 67 c 256,23,24
 18 72 18 72 23 72 c 128,-1,25
 28 72 28 72 28 67 c 256,20,21
EndSplineSet
EndChar

StartChar: wasla-ar
Encoding: 66030 -1 1108
Width: 38
VWidth: 108
Flags: W
LayerCount: 2
Fore
SplineSet
9 71 m 1,0,1
 18.3333333333 85 18.3333333333 85 26.6666666667 85 c 128,-1,2
 35 85 35 85 35 75 c 128,-1,3
 35 65 35 65 19 65 c 2,4,-1
 13.5 65 l 1,5,-1
 3 66 l 1,6,-1
 4 72 l 1,7,-1
 9 71 l 1,0,1
29 75 m 256,8,9
 29 79 29 79 24.25 79 c 128,-1,10
 19.5 79 19.5 79 15 70 c 1,11,12
 17 70 17 70 23 70 c 128,-1,13
 29 70 29 70 29 75 c 256,8,9
EndSplineSet
EndChar

StartChar: _part.instroke
Encoding: 66036 -1 1121
Width: 20
VWidth: 129
Flags: W
LayerCount: 2
Fore
SplineSet
21 0 m 1,0,1
 0 0 0 0 0 21 c 1,2,-1
 10 21 l 1,3,4
 10 10 10 10 21 10 c 9,5,-1
 21 0 l 1,0,1
EndSplineSet
EndChar

StartChar: uni08E2
Encoding: 2274 2274 1122
Width: 148
VWidth: 108
Flags: W
LayerCount: 2
Fore
SplineSet
24 -12 m 1,0,1
 -5.62500000003 27.5 -5.62500000003 27.5 24 67 c 1,2,-1
 24 72 l 1,3,4
 55.1333333333 110.051851852 55.1333333333 110.051851852 102.5 89 c 0,5,6
 116 83 116 83 124 72 c 1,7,-1
 125 67 l 1,8,9
 154.625 27.5 154.625 27.5 125 -12 c 1,10,-1
 124 -16 l 1,11,12
 106.545454545 -40 106.545454545 -40 73.6363636364 -40 c 128,-1,13
 40.7272727273 -40 40.7272727273 -40 24 -17 c 1,14,-1
 24 -12 l 1,0,1
79 88 m 256,15,16
 79 92 79 92 74.5 92 c 128,-1,17
 70 92 70 92 70 88 c 256,18,19
 70 84 70 84 74 84 c 256,20,21
 79 84 79 84 79 88 c 256,15,16
44 77 m 1,22,23
 58 84 58 84 67 84 c 1,24,-1
 67 90 l 1,25,26
 58 90 58 90 49 85.5 c 2,27,-1
 44 83 l 1,28,-1
 44 77 l 1,22,23
82 84 m 1,29,30
 94.5 84 94.5 84 105 77 c 1,31,-1
 105 83 l 1,32,33
 91 90 91 90 82 90 c 1,34,-1
 82 84 l 1,29,30
40 74 m 1,35,36
 -1.78787878786 38.1818181818 -1.78787878786 38.1818181818 28 -6.5 c 0,37,38
 33 -14 33 -14 40 -19 c 1,39,-1
 40 -14 l 1,40,41
 70.7272727272 -40.3376623377 70.7272727272 -40.3376623377 109 -13 c 1,42,-1
 109 -18 l 1,43,44
 162.666666667 28 162.666666667 28 109 74 c 1,45,-1
 109 68 l 1,46,47
 79.2289156627 93.5180722892 79.2289156627 93.5180722892 40 69 c 1,48,-1
 40 74 l 1,35,36
67 -29 m 1,49,50
 60 -29 60 -29 44 -21 c 1,51,-1
 44 -28 l 1,52,-1
 55 -32.5 l 2,53,54
 60 -35 60 -35 67 -35 c 1,55,-1
 67 -29 l 1,49,50
105 -21 m 1,56,57
 93 -29 93 -29 82 -29 c 1,58,-1
 82 -35 l 1,59,60
 101.5 -35 101.5 -35 105 -28 c 1,61,-1
 105 -21 l 1,56,57
70 -32 m 256,62,63
 70 -37 70 -37 74 -37 c 256,64,65
 79 -37 79 -37 79 -32 c 256,66,67
 79 -28 79 -28 74.5 -28 c 128,-1,68
 70 -28 70 -28 70 -32 c 256,62,63
EndSplineSet
EndChar

StartChar: _dots.horz.below
Encoding: 66037 -1 1123
Width: 44
VWidth: 108
Flags: W
LayerCount: 2
Fore
SplineSet
42 -14 m 256,0,1
 42 -20 42 -20 36.5 -20 c 128,-1,2
 31 -20 31 -20 31 -14 c 256,3,4
 31 -9 31 -9 36.5 -9 c 128,-1,5
 42 -9 42 -9 42 -14 c 256,0,1
14 -14 m 256,6,7
 14 -20 14 -20 8.5 -20 c 128,-1,8
 3 -20 3 -20 3 -14 c 256,9,10
 3 -9 3 -9 8.5 -9 c 128,-1,11
 14 -9 14 -9 14 -14 c 256,6,7
28 -14 m 256,12,13
 28 -20 28 -20 22.5 -20 c 128,-1,14
 17 -20 17 -20 17 -14 c 256,15,16
 17 -9 17 -9 22.5 -9 c 128,-1,17
 28 -9 28 -9 28 -14 c 256,12,13
EndSplineSet
EndChar

StartChar: _part.Gaf.stroke
Encoding: 66039 -1 1125
Width: 65
VWidth: 108
Flags: W
LayerCount: 2
Fore
SplineSet
40 83 m 1,0,-1
 -0 60 l 1,1,-1
 -4 66 l 1,2,3
 14 78 14 78 36 89 c 1,4,-1
 40 83 l 1,0,-1
EndSplineSet
EndChar

StartChar: ringArabic
Encoding: 66040 -1 1126
Width: 24
VWidth: 108
Flags: W
LayerCount: 2
Fore
SplineSet
12 -1 m 256,0,1
 2 -1 2 -1 2 8 c 256,2,3
 2 17 2 17 12 17 c 256,4,5
 22 17 22 17 22 8 c 256,6,7
 22 -1 22 -1 12 -1 c 256,0,1
12 4 m 256,8,9
 16 4 16 4 16 8 c 256,10,11
 16 12 16 12 12 12 c 256,12,13
 8 12 8 12 8 8 c 256,14,15
 8 4 8 4 12 4 c 256,8,9
EndSplineSet
EndChar

StartChar: TahSmallTwoDots
Encoding: 66041 -1 1127
Width: 30
VWidth: 108
Flags: W
LayerCount: 2
Fore
SplineSet
13 29 m 1,0,1
 16 32 16 32 22 32 c 0,2,3
 33 32 33 32 28.75 23.5 c 128,-1,4
 24.5 15 24.5 15 14 15 c 1,5,-1
 6 16 l 2,6,7
 4 16 4 16 2 16 c 1,8,-1
 2 21 l 1,9,10
 4 21 4 21 5.5 22 c 128,-1,11
 7 23 7 23 8 24 c 1,12,-1
 8 40 l 1,13,-1
 12 40 l 1,14,-1
 13 29 l 1,0,1
14 20 m 2,15,16
 23 20 23 20 23 23 c 128,-1,17
 23 26 23 26 20.5 26 c 0,18,19
 14 26 14 26 11 20 c 1,20,-1
 14 20 l 2,15,16
18 6 m 256,21,22
 18 10 18 10 22.5 10 c 128,-1,23
 27 10 27 10 27 5.5 c 128,-1,24
 27 1 27 1 22.5 1 c 128,-1,25
 18 1 18 1 18 6 c 256,21,22
4 6 m 256,26,27
 4 10 4 10 8.5 10 c 128,-1,28
 13 10 13 10 13 5.5 c 128,-1,29
 13 1 13 1 8.5 1 c 128,-1,30
 4 1 4 1 4 6 c 256,26,27
EndSplineSet
EndChar

StartChar: _stroke
Encoding: 66042 -1 1128
Width: 35
VWidth: 108
Flags: W
LayerCount: 2
Fore
SplineSet
0 -6 m 1,0,-1
 0 0 l 1,1,-1
 36 0 l 1,2,-1
 36 -6 l 1,3,-1
 0 -6 l 1,0,-1
EndSplineSet
EndChar

StartChar: _invertedstroke
Encoding: 66043 -1 1129
Width: 33
VWidth: 108
Flags: W
LayerCount: 2
Fore
SplineSet
30 90.138671875 m 5,0,-1
 30 82.138671875 l 5,1,-1
 0 82.138671875 l 5,2,-1
 0 90.138671875 l 5,3,-1
 30 90.138671875 l 5,0,-1
EndSplineSet
EndChar

StartChar: _hehgoalcomma
Encoding: 66046 -1 1132
Width: 11
VWidth: 108
Flags: W
LayerCount: 2
Fore
SplineSet
6 -20 m 256,0,1
 0 -20 0 -20 0 -13.25 c 128,-1,2
 0 -6.5 0 -6.5 7 -3 c 1,3,-1
 10 -6 l 1,4,5
 5 -8 5 -8 5 -12 c 1,6,-1
 6 -12 l 2,7,8
 10 -12 10 -12 10 -16 c 256,9,10
 10 -20 10 -20 6 -20 c 256,0,1
EndSplineSet
EndChar

StartChar: _bar
Encoding: 66047 -1 1133
Width: 35
VWidth: 108
Flags: W
LayerCount: 2
Fore
SplineSet
0 45 m 1,0,-1
 0 52 l 1,1,-1
 35 52 l 1,2,-1
 35 45 l 1,3,-1
 0 45 l 1,0,-1
EndSplineSet
EndChar

StartChar: _barshort
Encoding: 66048 -1 1134
Width: 28
VWidth: 108
Flags: W
LayerCount: 2
Fore
SplineSet
0 45 m 1,0,-1
 0 52 l 1,1,-1
 28 52 l 1,2,-1
 28 45 l 1,3,-1
 0 45 l 1,0,-1
EndSplineSet
EndChar

StartChar: uniFBC0.small
Encoding: 66049 -1 1135
Width: 29
VWidth: 108
Flags: W
LayerCount: 2
Fore
SplineSet
12 78 m 1,0,1
 27 93 27 93 27 73.5 c 0,2,3
 27 65 27 65 16 65 c 2,4,-1
 9.5 65 l 2,5,6
 7 65 7 65 4.5 65.5 c 2,7,-1
 2 66 l 1,8,-1
 2 71 l 1,9,10
 4 70 4 70 5 70 c 0,11,12
 6 72 6 72 7 74 c 1,13,-1
 7 90 l 1,14,-1
 12 90 l 1,15,-1
 12 78 l 1,0,1
13 70 m 2,16,17
 22 70 22 70 22 73 c 0,18,19
 22 82 22 82 10 70 c 1,20,-1
 13 70 l 2,16,17
EndSplineSet
EndChar

StartChar: _stroke.wide
Encoding: 66050 -1 1136
Width: 30
VWidth: 108
Flags: W
LayerCount: 2
Fore
SplineSet
0 -6 m 1,0,-1
 0 0 l 1,1,-1
 31 0 l 1,2,-1
 31 -6 l 1,3,-1
 0 -6 l 1,0,-1
EndSplineSet
EndChar

StartChar: tehabove-ar.small
Encoding: 66051 -1 1137
Width: 37
VWidth: 108
Flags: W
LayerCount: 2
Fore
SplineSet
18 84 m 256,0,1
 18 81 18 81 15 81 c 256,2,3
 12 81 12 81 12 84 c 256,4,5
 12 87 12 87 15 87 c 256,6,7
 18 87 18 87 18 84 c 256,0,1
26 84 m 256,8,9
 26 81 26 81 23 81 c 256,10,11
 20 81 20 81 20 84 c 256,12,13
 20 87 20 87 23 87 c 256,14,15
 26 87 26 87 26 84 c 256,8,9
9 74 m 258,16,17
 9 70 9 70 18 70 c 256,18,19
 28 70 28 70 28 74 c 258,20,-1
 28 76.5 l 2,21,22
 28 78 28 78 27 80 c 1,23,-1
 32 82 l 1,24,-1
 34 74 l 1,25,26
 34 64 34 64 18 64 c 256,27,28
 3 64 3 64 3 69.5 c 2,29,-1
 4 79 l 1,30,-1
 10 78 l 1,31,-1
 9 74 l 258,16,17
EndSplineSet
EndChar

StartChar: _vbelow-ar
Encoding: 66052 -1 1138
Width: 25
VWidth: 108
Flags: W
LayerCount: 2
Fore
SplineSet
25 -8 m 1,0,-1
 16 -27 l 1,1,-1
 10 -28 l 1,2,-1
 7 -22 l 1,3,-1
 0 -9 l 1,4,-1
 5 -7 l 1,5,6
 7 -9 7 -9 9.5 -14 c 2,7,-1
 13 -21 l 1,8,9
 18 -6 18 -6 20 -6 c 2,10,-1
 25 -8 l 1,0,-1
EndSplineSet
EndChar

StartChar: _vinvertedbelow-ar
Encoding: 66053 -1 1139
Width: 25
VWidth: 108
Flags: W
LayerCount: 2
Fore
SplineSet
12 -13 m 1,0,1
 8 -25 8 -25 5 -28 c 1,2,-1
 0 -26 l 1,3,-1
 4.5 -17 l 1,4,-1
 9 -7 l 1,5,-1
 15 -6 l 1,6,-1
 20.625 -17.25 l 2,7,8
 23 -22 23 -22 25 -25 c 1,9,-1
 20 -28 l 1,10,11
 19 -27 19 -27 16.875 -22.75 c 2,12,-1
 12 -13 l 1,0,1
EndSplineSet
EndChar
